<svg xmlns="http://www.w3.org/2000/svg" xmlns:xlink="http://www.w3.org/1999/xlink" version="1.1" viewBox="0 0 5402 3219" style="background: #ffffff"><defs joint-selector="defs"></defs><g joint-selector="layers"  transform="matrix(1,0,0,1,0,0)"><g ></g><g ><!--z-index:1--><!--z-index:2--><!--z-index:3--><!--z-index:4--><!--z-index:5--><!--z-index:6--><!--z-index:7--><!--z-index:8--><!--z-index:9--><!--z-index:10--><!--z-index:11--><!--z-index:12--><!--z-index:13--><!--z-index:14--><!--z-index:15--><!--z-index:16--><!--z-index:17--><!--z-index:18--><!--z-index:19--><!--z-index:20--><!--z-index:21--><!--z-index:22--><!--z-index:23--><!--z-index:24--><!--z-index:25--><!--z-index:26--><!--z-index:27--><!--z-index:28--><!--z-index:29--><!--z-index:30--><!--z-index:31--><!--z-index:32--><!--z-index:33--><!--z-index:34--><!--z-index:35--><!--z-index:36--><!--z-index:37--><!--z-index:38--><!--z-index:39--><!--z-index:40--><!--z-index:41--><!--z-index:42--><!--z-index:43--><!--z-index:44--><!--z-index:45--><!--z-index:46--><g   id="j_2"  transform="translate(20,3175)"><g id="v-5"><text  id="v-6" font-size="24px" xml:space="preserve" y="0.8em" font-weight="normal" text-anchor="start" fill="#444444" pointer-events="none" display="block" font-family="Open Sans, Tahoma, Arial"><tspan dy="0"  display="block">sábado, 25 de abril de 2026, 11:47 hora estándar de Perú</tspan></text></g></g><!--z-index:47--><g   id="j_1"  transform="translate(20,3129)"><g id="v-3"><text  id="v-4" font-size="36px" xml:space="preserve" y="0.8em" font-weight="normal" text-anchor="start" fill="#444444" pointer-events="none" display="block" font-family="Open Sans, Tahoma, Arial"><tspan dy="0"  display="block">Component View: VITALIA SAAS - SCHEDULING CONTEXT</tspan></text></g></g><!--z-index:48--><g   id="j_3"  transform="translate(4752,1979)" style=""><g  id="v-10" style="opacity: 1;"><rect  id="v-11" rx="20" ry="20" stroke-width="2" pointer-events="visiblePainted" fill="#707070" stroke="#656565" stroke-dasharray="" width="450" height="300"></rect><text  id="v-12" font-size="33.599999999999994px" xml:space="preserve" y="72.5" font-weight="bold" text-anchor="middle" pointer-events="visible" font-family="Open Sans, Tahoma, Arial" fill="#ffffff" dominant-baseline="hanging" transform="matrix(1,0,0,1,225,0)"><tspan dy="0" >TWILIO</tspan></text><text  id="v-13" font-size="16.799999999999997px" xml:space="preserve" y="114.1" text-anchor="middle" font-family="Open Sans, Tahoma, Arial" fill="#ffffff" dominant-baseline="hanging" transform="matrix(1,0,0,1,225,0)" style="display: block;"><tspan dy="0" >[Software System]</tspan></text><text  id="v-14" font-size="24px" xml:space="preserve" y="145.89999999999998" text-anchor="middle" font-family="Open Sans, Tahoma, Arial" fill="#ffffff" dominant-baseline="hanging" transform="matrix(1,0,0,1,225,0)" style="display: block;"><tspan dy="0" >Servicio de envío de SMS y</tspan><tspan dy="1.2em" x="0" >notificaciones (recordatorios de</tspan><tspan dy="1.2em" x="0" >citas, alertas).</tspan></text><g  id="v-15" color="#ffffff" transform="matrix(1,0,0,1,222.5,268)" display="none"><g ></g><g ></g><g ></g><g ></g></g><image  id="v-16"></image></g></g><!--z-index:49--><g   id="j_5"  transform="translate(200,159)" style=""><g id="v-27"><rect  id="v-28" width="4280" height="2819" rx="20" ry="20" stroke-width="2" pointer-events="none" stroke="#1d8a8e" fill="#ffffff" stroke-dasharray=""></rect><text  id="v-29" font-size="33.599999999999994px" xml:space="preserve" y="2780" font-weight="bold" text-anchor="start" pointer-events="visible" font-family="Open Sans, Tahoma, Arial" fill="#1168bd" transform="matrix(1,0,0,1,15,0)"><tspan dy="0" >VITALIA SAAS</tspan></text><text  id="v-30" font-size="16.799999999999997px" xml:space="preserve" y="2804" font-weight="normal" text-anchor="start" pointer-events="visible" font-family="Open Sans, Tahoma, Arial" fill="#1168bd" transform="matrix(1,0,0,1,15,0)"><tspan dy="0" >[Software System]</tspan></text><image  id="v-31" pointer-events="visible"></image></g></g><!--z-index:50--><g   id="j_4"  transform="translate(2115,179)" style=""><g  id="v-20" style="opacity: 1;"><rect  id="v-21" rx="20" ry="20" stroke-width="2" pointer-events="visiblePainted" fill="#1a1f1f" stroke="#171c1c" stroke-dasharray="" width="450" height="300"></rect><text  id="v-22" font-size="33.599999999999994px" xml:space="preserve" y="101.30000000000001" font-weight="bold" text-anchor="middle" pointer-events="visible" font-family="Open Sans, Tahoma, Arial" fill="#ffffff" dominant-baseline="hanging" transform="matrix(1,0,0,1,225,0)"><tspan dy="0" >SCHEDULING</tspan></text><text  id="v-23" font-size="16.799999999999997px" xml:space="preserve" y="142.9" text-anchor="middle" font-family="Open Sans, Tahoma, Arial" fill="#ffffff" dominant-baseline="hanging" transform="matrix(1,0,0,1,225,0)" style="display: block;"><tspan dy="0" >[Container: Node.Js / Python]</tspan></text><text  id="v-24" font-size="24px" xml:space="preserve" y="174.7" text-anchor="middle" font-family="Open Sans, Tahoma, Arial" fill="#ffffff" dominant-baseline="hanging" transform="matrix(1,0,0,1,225,0)" style="display: block;"><tspan dy="0" >Agendamiento y tiempos</tspan></text><g  id="v-25" color="#ffffff" transform="matrix(1,0,0,1,222.5,268)" display="none"><g ></g><g ></g><g ></g><g ></g></g><image  id="v-26"></image></g></g><!--z-index:51--><g   id="j_7"  transform="translate(220,759)" style=""><g id="v-39"><rect  id="v-40" width="4240" height="1619" rx="20" ry="20" stroke-width="2" pointer-events="none" stroke="#171c1c" fill="#ffffff" stroke-dasharray=""></rect><text  id="v-41" font-size="33.599999999999994px" xml:space="preserve" y="1580" font-weight="bold" text-anchor="start" pointer-events="visible" font-family="Open Sans, Tahoma, Arial" fill="#438dd5" transform="matrix(1,0,0,1,15,0)"><tspan dy="0" >SCHEDULING CONTEXT</tspan></text><text  id="v-42" font-size="16.799999999999997px" xml:space="preserve" y="1604" font-weight="normal" text-anchor="start" pointer-events="visible" font-family="Open Sans, Tahoma, Arial" fill="#438dd5" transform="matrix(1,0,0,1,15,0)"><tspan dy="0" >[Container]</tspan></text><image  id="v-43" pointer-events="visible"></image></g></g><!--z-index:52--><g   id="j_15"  transform="translate(2115,2579)" style=""><g  id="v-126" style="opacity: 1;"><path  d="M 0,30 a 225,30 0,0,0 450 0 a 225,30 0,0,0 -450 0 l 0,240 a 225,30 0,0,0 450 0 l 0,-240" id="v-127" stroke-width="2" pointer-events="visiblePainted" fill="#c77646" stroke="#b36a3f" stroke-dasharray=""></path><rect  id="v-128" stroke-width="0" pointer-events="visiblePainted" fill="none" stroke="none" width="450" height="270" x="0" y="30"></rect><text  id="v-129" font-size="33.599999999999994px" xml:space="preserve" y="116.30000000000001" font-weight="bold" text-anchor="middle" pointer-events="visible" font-family="Open Sans, Tahoma, Arial" fill="#ffffff" dominant-baseline="hanging" transform="matrix(1,0,0,1,225,0)"><tspan dy="0" >DATABASE</tspan></text><text  id="v-130" font-size="16.799999999999997px" xml:space="preserve" y="157.9" text-anchor="middle" font-family="Open Sans, Tahoma, Arial" fill="#ffffff" dominant-baseline="hanging" transform="matrix(1,0,0,1,225,0)" style="display: block;"><tspan dy="0" >[Container: MySQL]</tspan></text><text  id="v-131" font-size="24px" xml:space="preserve" y="189.7" text-anchor="middle" font-family="Open Sans, Tahoma, Arial" fill="#ffffff" dominant-baseline="hanging" transform="matrix(1,0,0,1,225,0)" style="display: block;"><tspan dy="0" >Base de datos de Vitalia</tspan></text><g  id="v-132" font-weight="normal" text-anchor="middle" color="#ffffff" transform="matrix(1,0,0,1,222.5,268)" display="none"><g ></g><g ></g><g ></g><g ></g></g><image  id="v-133"></image></g></g><!--z-index:53--><g   id="j_6"  transform="translate(2115,779)" style=""><g  id="v-32" style="opacity: 1;"><rect  id="v-33" rx="20" ry="20" stroke-width="2" pointer-events="visiblePainted" fill="#a6cf58" stroke="#95ba4f" stroke-dasharray="" width="450" height="300"></rect><text  id="v-34" font-size="33.599999999999994px" xml:space="preserve" y="101.30000000000001" font-weight="bold" text-anchor="middle" pointer-events="visible" font-family="Open Sans, Tahoma, Arial" fill="#121212" dominant-baseline="hanging" transform="matrix(1,0,0,1,225,0)"><tspan dy="0" >CONTROLLER</tspan></text><text  id="v-35" font-size="16.799999999999997px" xml:space="preserve" y="142.9" text-anchor="middle" font-family="Open Sans, Tahoma, Arial" fill="#121212" dominant-baseline="hanging" transform="matrix(1,0,0,1,225,0)" style="display: block;"><tspan dy="0" >[Component: Node.js (NestJS)]</tspan></text><text  id="v-36" font-size="24px" xml:space="preserve" y="174.7" text-anchor="middle" font-family="Open Sans, Tahoma, Arial" fill="#121212" dominant-baseline="hanging" transform="matrix(1,0,0,1,225,0)" style="display: block;"><tspan dy="0" >Expone endpoints REST</tspan></text><g  id="v-37" color="#121212" transform="matrix(1,0,0,1,222.5,268)" display="none"><g ></g><g ></g><g ></g><g ></g></g><image  id="v-38"></image></g></g><!--z-index:54--><g   id="j_8"  transform="translate(240,1379)" style=""><g  id="v-50" style="opacity: 1;"><rect  id="v-51" rx="20" ry="20" stroke-width="2" pointer-events="visiblePainted" fill="#a6cf58" stroke="#95ba4f" stroke-dasharray="" width="450" height="300"></rect><text  id="v-52" font-size="33.599999999999994px" xml:space="preserve" y="81.14000000000001" font-weight="bold" text-anchor="middle" pointer-events="visible" font-family="Open Sans, Tahoma, Arial" fill="#121212" dominant-baseline="hanging" transform="matrix(1,0,0,1,225,0)"><tspan dy="0" >APPOINTMENT</tspan><tspan dy="1.2em" x="0" >MANAGEMENT</tspan></text><text  id="v-53" font-size="16.799999999999997px" xml:space="preserve" y="163.06" text-anchor="middle" font-family="Open Sans, Tahoma, Arial" fill="#121212" dominant-baseline="hanging" transform="matrix(1,0,0,1,225,0)" style="display: block;"><tspan dy="0" >[Component: Node.js (NestJS)]</tspan></text><text  id="v-54" font-size="24px" xml:space="preserve" y="194.86" text-anchor="middle" font-family="Open Sans, Tahoma, Arial" fill="#121212" dominant-baseline="hanging" transform="matrix(1,0,0,1,225,0)" style="display: block;"><tspan dy="0" >Reserva y estado de citas</tspan></text><g  id="v-55" color="#121212" transform="matrix(1,0,0,1,222.5,268)" display="none"><g ></g><g ></g><g ></g><g ></g></g><image  id="v-56"></image></g></g><!--z-index:55--><g   id="j_9"  transform="translate(990,1379)" style=""><g  id="v-60" style="opacity: 1;"><rect  id="v-61" rx="20" ry="20" stroke-width="2" pointer-events="visiblePainted" fill="#a6cf58" stroke="#95ba4f" stroke-dasharray="" width="450" height="300"></rect><text  id="v-62" font-size="33.599999999999994px" xml:space="preserve" y="101.30000000000001" font-weight="bold" text-anchor="middle" pointer-events="visible" font-family="Open Sans, Tahoma, Arial" fill="#121212" dominant-baseline="hanging" transform="matrix(1,0,0,1,225,0)"><tspan dy="0" >DOCTOR SCHEDULES</tspan></text><text  id="v-63" font-size="16.799999999999997px" xml:space="preserve" y="142.9" text-anchor="middle" font-family="Open Sans, Tahoma, Arial" fill="#121212" dominant-baseline="hanging" transform="matrix(1,0,0,1,225,0)" style="display: block;"><tspan dy="0" >[Component: Node.js (NestJS)]</tspan></text><text  id="v-64" font-size="24px" xml:space="preserve" y="174.7" text-anchor="middle" font-family="Open Sans, Tahoma, Arial" fill="#121212" dominant-baseline="hanging" transform="matrix(1,0,0,1,225,0)" style="display: block;"><tspan dy="0" >Agendas de médicos</tspan></text><g  id="v-65" color="#121212" transform="matrix(1,0,0,1,222.5,268)" display="none"><g ></g><g ></g><g ></g><g ></g></g><image  id="v-66"></image></g></g><!--z-index:56--><g   id="j_10"  transform="translate(1740,1379)" style=""><g  id="v-73" style="opacity: 1;"><rect  id="v-74" rx="20" ry="20" stroke-width="2" pointer-events="visiblePainted" fill="#a6cf58" stroke="#95ba4f" stroke-dasharray="" width="450" height="300"></rect><text  id="v-75" font-size="33.599999999999994px" xml:space="preserve" y="101.30000000000001" font-weight="bold" text-anchor="middle" pointer-events="visible" font-family="Open Sans, Tahoma, Arial" fill="#121212" dominant-baseline="hanging" transform="matrix(1,0,0,1,225,0)"><tspan dy="0" >CONSULTING ROOMS</tspan></text><text  id="v-76" font-size="16.799999999999997px" xml:space="preserve" y="142.9" text-anchor="middle" font-family="Open Sans, Tahoma, Arial" fill="#121212" dominant-baseline="hanging" transform="matrix(1,0,0,1,225,0)" style="display: block;"><tspan dy="0" >[Component: Node.js (NestJS)]</tspan></text><text  id="v-77" font-size="24px" xml:space="preserve" y="174.7" text-anchor="middle" font-family="Open Sans, Tahoma, Arial" fill="#121212" dominant-baseline="hanging" transform="matrix(1,0,0,1,225,0)" style="display: block;"><tspan dy="0" >Asignación de espacios físicos</tspan></text><g  id="v-78" color="#121212" transform="matrix(1,0,0,1,222.5,268)" display="none"><g ></g><g ></g><g ></g><g ></g></g><image  id="v-79"></image></g></g><!--z-index:57--><g   id="j_11"  transform="translate(2490,1379)" style=""><g  id="v-86" style="opacity: 1;"><rect  id="v-87" rx="20" ry="20" stroke-width="2" pointer-events="visiblePainted" fill="#a6cf58" stroke="#95ba4f" stroke-dasharray="" width="450" height="300"></rect><text  id="v-88" font-size="33.599999999999994px" xml:space="preserve" y="66.74000000000001" font-weight="bold" text-anchor="middle" pointer-events="visible" font-family="Open Sans, Tahoma, Arial" fill="#121212" dominant-baseline="hanging" transform="matrix(1,0,0,1,225,0)"><tspan dy="0" >AVAILABILITY</tspan><tspan dy="1.2em" x="0" >MANAGEMENT</tspan></text><text  id="v-89" font-size="16.799999999999997px" xml:space="preserve" y="148.66" text-anchor="middle" font-family="Open Sans, Tahoma, Arial" fill="#121212" dominant-baseline="hanging" transform="matrix(1,0,0,1,225,0)" style="display: block;"><tspan dy="0" >[Component: Node.js (NestJS)]</tspan></text><text  id="v-90" font-size="24px" xml:space="preserve" y="180.45999999999998" text-anchor="middle" font-family="Open Sans, Tahoma, Arial" fill="#121212" dominant-baseline="hanging" transform="matrix(1,0,0,1,225,0)" style="display: block;"><tspan dy="0" >Gestión de disponibilidad y</tspan><tspan dy="1.2em" x="0" >validación de horarios</tspan></text><g  id="v-91" color="#121212" transform="matrix(1,0,0,1,222.5,268)" display="none"><g ></g><g ></g><g ></g><g ></g></g><image  id="v-92"></image></g></g><!--z-index:58--><g   id="j_12"  transform="translate(3990,1379)" style=""><g  id="v-99" style="opacity: 1;"><rect  id="v-100" rx="20" ry="20" stroke-width="2" pointer-events="visiblePainted" fill="#a6cf58" stroke="#95ba4f" stroke-dasharray="" width="450" height="300"></rect><text  id="v-101" font-size="33.599999999999994px" xml:space="preserve" y="66.74000000000001" font-weight="bold" text-anchor="middle" pointer-events="visible" font-family="Open Sans, Tahoma, Arial" fill="#121212" dominant-baseline="hanging" transform="matrix(1,0,0,1,225,0)"><tspan dy="0" >APPOINTMENT</tspan><tspan dy="1.2em" x="0" >WORKFLOW</tspan></text><text  id="v-102" font-size="16.799999999999997px" xml:space="preserve" y="148.66" text-anchor="middle" font-family="Open Sans, Tahoma, Arial" fill="#121212" dominant-baseline="hanging" transform="matrix(1,0,0,1,225,0)" style="display: block;"><tspan dy="0" >[Component: Node.js (NestJS)]</tspan></text><text  id="v-103" font-size="24px" xml:space="preserve" y="180.45999999999998" text-anchor="middle" font-family="Open Sans, Tahoma, Arial" fill="#121212" dominant-baseline="hanging" transform="matrix(1,0,0,1,225,0)" style="display: block;"><tspan dy="0" >Confirmación, cancelación y</tspan><tspan dy="1.2em" x="0" >reprogramación</tspan></text><g  id="v-104" color="#121212" transform="matrix(1,0,0,1,222.5,268)" display="none"><g ></g><g ></g><g ></g><g ></g></g><image  id="v-105"></image></g></g><!--z-index:59--><g   id="j_13"  transform="translate(3240,1379)" style=""><g  id="v-109" style="opacity: 1;"><rect  id="v-110" rx="20" ry="20" stroke-width="2" pointer-events="visiblePainted" fill="#a6cf58" stroke="#95ba4f" stroke-dasharray="" width="450" height="300"></rect><text  id="v-111" font-size="33.599999999999994px" xml:space="preserve" y="101.30000000000001" font-weight="bold" text-anchor="middle" pointer-events="visible" font-family="Open Sans, Tahoma, Arial" fill="#121212" dominant-baseline="hanging" transform="matrix(1,0,0,1,225,0)"><tspan dy="0" >PATIENT FLOW</tspan></text><text  id="v-112" font-size="16.799999999999997px" xml:space="preserve" y="142.9" text-anchor="middle" font-family="Open Sans, Tahoma, Arial" fill="#121212" dominant-baseline="hanging" transform="matrix(1,0,0,1,225,0)" style="display: block;"><tspan dy="0" >[Component: Node.js (NestJS)]</tspan></text><text  id="v-113" font-size="24px" xml:space="preserve" y="174.7" text-anchor="middle" font-family="Open Sans, Tahoma, Arial" fill="#121212" dominant-baseline="hanging" transform="matrix(1,0,0,1,225,0)" style="display: block;"><tspan dy="0" >Llegada, inicio y cierre de atención</tspan></text><g  id="v-114" color="#121212" transform="matrix(1,0,0,1,222.5,268)" display="none"><g ></g><g ></g><g ></g><g ></g></g><image  id="v-115"></image></g></g><!--z-index:60--><g   id="j_14"  transform="translate(2115,1979)" style=""><g  id="v-116" style="opacity: 1;"><rect  id="v-117" rx="20" ry="20" stroke-width="2" pointer-events="visiblePainted" fill="#a6cf58" stroke="#95ba4f" stroke-dasharray="" width="450" height="300"></rect><text  id="v-118" font-size="33.599999999999994px" xml:space="preserve" y="101.30000000000001" font-weight="bold" text-anchor="middle" pointer-events="visible" font-family="Open Sans, Tahoma, Arial" fill="#121212" dominant-baseline="hanging" transform="matrix(1,0,0,1,225,0)"><tspan dy="0" >DB CONECTOR</tspan></text><text  id="v-119" font-size="16.799999999999997px" xml:space="preserve" y="142.9" text-anchor="middle" font-family="Open Sans, Tahoma, Arial" fill="#121212" dominant-baseline="hanging" transform="matrix(1,0,0,1,225,0)" style="display: block;"><tspan dy="0" >[Component: Node.js]</tspan></text><text  id="v-120" font-size="24px" xml:space="preserve" y="174.7" text-anchor="middle" font-family="Open Sans, Tahoma, Arial" fill="#121212" dominant-baseline="hanging" transform="matrix(1,0,0,1,225,0)" style="display: block;"><tspan dy="0" >Acceso a datos</tspan></text><g  id="v-121" color="#121212" transform="matrix(1,0,0,1,222.5,268)" display="none"><g ></g><g ></g><g ></g><g ></g></g><image  id="v-122"></image></g></g><!--z-index:61--><g   id="j_16" ><path  stroke="#444444" d="M 2340 479 L 2340 779" id="v-143" stroke-width="2" stroke-dasharray="8 8" fill="none" style="opacity: 1;"></path><path  fill="black" stroke="black" d="M 0 0 0 0" transform="matrix(6.123233995736766e-17,1,-1,6.123233995736766e-17,2340,479)"></path><path  fill="#444444" stroke="#444444" d="M 20 0 L 0 10 L 20 20 z" id="v-145" transform="matrix(-1.8369701987210297e-16,-1,1,-1.8369701987210297e-16,2330,779)" style="opacity: 1;"></path><path  d="M 2340 479 L 2340 779" id="v-144" fill="none" style="cursor: auto; pointer-events: visiblepainted;"></path><g ><g id="v-137"  label-idx="0" cursor="move" transform="matrix(1,0,0,1,2340,629)" style="cursor: default; opacity: 1;"><rect joint-selector="rect" id="v-140" fill="#ffffff" rx="3" ry="3" pointer-events="none" width="55.323081970214844" height="33.53821563720703" transform="matrix(1,0,0,1,-27.7,-16.8)"></rect><text joint-selector="text" id="v-139" font-size="24px" xml:space="preserve" y="0.8em" fill="#444444" text-anchor="middle" pointer-events="none" font-family="Open Sans, Tahoma, Arial" font-weight="normal" transform="matrix(1,0,0,1,0,-9.6)"><tspan dy="0" >[use]</tspan></text></g><g id="v-138"  label-idx="1" cursor="move" transform="matrix(1,0,0,1,2330,641)" style="cursor: default; opacity: 1;"><rect joint-selector="rect" id="v-142" fill="#ffffff" rx="3" ry="3"  width="0" height="0" transform="matrix(1,0,0,1,0,0)" display="none"></rect><text joint-selector="text" id="v-141" fill="#000000" font-size="14" text-anchor="middle" pointer-events="none"></text></g></g><g  display="none" style="display: none;"></g><g  id="v-147" display="none"><g  id="v-135"><path  end="source" d="M 26 0 L 0 13 L 26 26 z"></path></g><g  id="v-136"><path  end="target" d="M 26 0 L 0 13 L 26 26 z"></path></g></g><g  id="v-146" display="none"><g  id="v-134" transform="translate(2340, 519) "><g  event="remove"><circle r="11"></circle><path transform="scale(.8) translate(-16, -16)" d="M24.778,21.419 19.276,15.917 24.777,10.415 21.949,7.585 16.447,13.087 10.945,7.585 8.117,10.415 13.618,15.917 8.116,21.419 10.946,24.248 16.447,18.746 21.948,24.248z"></path><title>Remove link.</title></g><g  event="link:options"><circle r="11" transform="translate(25)"></circle><path fill="white" transform="scale(.55) translate(29, -16)" d="M31.229,17.736c0.064-0.571,0.104-1.148,0.104-1.736s-0.04-1.166-0.104-1.737l-4.377-1.557c-0.218-0.716-0.504-1.401-0.851-2.05l1.993-4.192c-0.725-0.91-1.549-1.734-2.458-2.459l-4.193,1.994c-0.647-0.347-1.334-0.632-2.049-0.849l-1.558-4.378C17.165,0.708,16.588,0.667,16,0.667s-1.166,0.041-1.737,0.105L12.707,5.15c-0.716,0.217-1.401,0.502-2.05,0.849L6.464,4.005C5.554,4.73,4.73,5.554,4.005,6.464l1.994,4.192c-0.347,0.648-0.632,1.334-0.849,2.05l-4.378,1.557C0.708,14.834,0.667,15.412,0.667,16s0.041,1.165,0.105,1.736l4.378,1.558c0.217,0.715,0.502,1.401,0.849,2.049l-1.994,4.193c0.725,0.909,1.549,1.733,2.459,2.458l4.192-1.993c0.648,0.347,1.334,0.633,2.05,0.851l1.557,4.377c0.571,0.064,1.148,0.104,1.737,0.104c0.588,0,1.165-0.04,1.736-0.104l1.558-4.377c0.715-0.218,1.399-0.504,2.049-0.851l4.193,1.993c0.909-0.725,1.733-1.549,2.458-2.458l-1.993-4.193c0.347-0.647,0.633-1.334,0.851-2.049L31.229,17.736zM16,20.871c-2.69,0-4.872-2.182-4.872-4.871c0-2.69,2.182-4.872,4.872-4.872c2.689,0,4.871,2.182,4.871,4.872C20.871,18.689,18.689,20.871,16,20.871z"></path><title>Link options.</title></g></g></g></g><!--z-index:62--><g   id="j_17" ><path  stroke="#444444" d="M 2115 997 L 850 1376 C 843.3333333333333 1378 837 1380.3333333333333 831 1383 L 690 1439" id="v-158" stroke-width="2" stroke-dasharray="8 8" fill="none" style="opacity: 1;"></path><path  fill="black" stroke="black" d="M 0 0 0 0" transform="matrix(-0.9578262599768823,0.2873479697138956,-0.2873479697138956,-0.9578262599768823,2115,996.5)"></path><path  fill="#444444" stroke="#444444" d="M 20 0 L 0 10 L 20 20 z" id="v-160" transform="matrix(0.9284766089996245,-0.3713908810681253,0.3713908810681253,0.9284766089996245,686.286115138385,1429.715275533185)" style="opacity: 1;"></path><path  d="M 2115 997 L 850 1376 C 843.3333333333333 1378 837 1380.3333333333333 831 1383 L 690 1439" id="v-159" fill="none" style="cursor: auto; pointer-events: visiblepainted;"></path><g ><g id="v-152"  label-idx="0" cursor="move" transform="matrix(1,0,0,1,1400.130126953125,1211.178466796875)" style="cursor: default; opacity: 1;"><rect joint-selector="rect" id="v-155" fill="#ffffff" rx="3" ry="3" pointer-events="none" width="55.323081970214844" height="33.53821563720703" transform="matrix(1,0,0,1,-27.7,-16.8)"></rect><text joint-selector="text" id="v-154" font-size="24px" xml:space="preserve" y="0.8em" fill="#444444" text-anchor="middle" pointer-events="none" font-family="Open Sans, Tahoma, Arial" font-weight="normal" transform="matrix(1,0,0,1,0,-9.6)"><tspan dy="0" >[use]</tspan></text></g><g id="v-153"  label-idx="1" cursor="move" transform="matrix(1,0,0,1,1390.130126953125,1223.178466796875)" style="cursor: default; opacity: 1;"><rect joint-selector="rect" id="v-157" fill="#ffffff" rx="3" ry="3"  width="0" height="0" transform="matrix(1,0,0,1,0,0)" display="none"></rect><text joint-selector="text" id="v-156" fill="#000000" font-size="14" text-anchor="middle" pointer-events="none"></text></g></g><g  display="none" style="display: none;"><g  transform="translate(840, 1379)" id="v-381"><circle  idx="0" r="10"></circle><path  idx="0" d="M16,5.333c-7.732,0-14,4.701-14,10.5c0,1.982,0.741,3.833,2.016,5.414L2,25.667l5.613-1.441c2.339,1.317,5.237,2.107,8.387,2.107c7.732,0,14-4.701,14-10.5C30,10.034,23.732,5.333,16,5.333z" transform="translate(5, -33)"></path><path  idx="0" transform="scale(.8) translate(9.5, -37)" d="M24.778,21.419 19.276,15.917 24.777,10.415 21.949,7.585 16.447,13.087 10.945,7.585 8.117,10.415 13.618,15.917 8.116,21.419 10.946,24.248 16.447,18.746 21.948,24.248z"><title>Remove vertex.</title></path></g></g><g  id="v-162" display="none"><g  id="v-150"><path  end="source" d="M 26 0 L 0 13 L 26 26 z"></path></g><g  id="v-151"><path  end="target" d="M 26 0 L 0 13 L 26 26 z"></path></g></g><g  id="v-161" display="none"><g  id="v-148" transform="translate(2076.682782722092, 1008.4800200382034) "><g  event="remove"><circle r="11"></circle><path transform="scale(.8) translate(-16, -16)" d="M24.778,21.419 19.276,15.917 24.777,10.415 21.949,7.585 16.447,13.087 10.945,7.585 8.117,10.415 13.618,15.917 8.116,21.419 10.946,24.248 16.447,18.746 21.948,24.248z"></path><title>Remove link.</title></g><g  event="link:options"><circle r="11" transform="translate(25)"></circle><path fill="white" transform="scale(.55) translate(29, -16)" d="M31.229,17.736c0.064-0.571,0.104-1.148,0.104-1.736s-0.04-1.166-0.104-1.737l-4.377-1.557c-0.218-0.716-0.504-1.401-0.851-2.05l1.993-4.192c-0.725-0.91-1.549-1.734-2.458-2.459l-4.193,1.994c-0.647-0.347-1.334-0.632-2.049-0.849l-1.558-4.378C17.165,0.708,16.588,0.667,16,0.667s-1.166,0.041-1.737,0.105L12.707,5.15c-0.716,0.217-1.401,0.502-2.05,0.849L6.464,4.005C5.554,4.73,4.73,5.554,4.005,6.464l1.994,4.192c-0.347,0.648-0.632,1.334-0.849,2.05l-4.378,1.557C0.708,14.834,0.667,15.412,0.667,16s0.041,1.165,0.105,1.736l4.378,1.558c0.217,0.715,0.502,1.401,0.849,2.049l-1.994,4.193c0.725,0.909,1.549,1.733,2.459,2.458l4.192-1.993c0.648,0.347,1.334,0.633,2.05,0.851l1.557,4.377c0.571,0.064,1.148,0.104,1.737,0.104c0.588,0,1.165-0.04,1.736-0.104l1.558-4.377c0.715-0.218,1.399-0.504,2.049-0.851l4.193,1.993c0.909-0.725,1.733-1.549,2.458-2.458l-1.993-4.193c0.347-0.647,0.633-1.334,0.851-2.049L31.229,17.736zM16,20.871c-2.69,0-4.872-2.182-4.872-4.871c0-2.69,2.182-4.872,4.872-4.872c2.689,0,4.871,2.182,4.871,4.872C20.871,18.689,18.689,20.871,16,20.871z"></path><title>Link options.</title></g></g></g></g><!--z-index:63--><g   id="j_18" ><path  stroke="#444444" d="M 2115 1049 L 1440 1409" id="v-172" stroke-width="2" stroke-dasharray="8 8" fill="none" style="opacity: 1;"></path><path  fill="black" stroke="black" d="M 0 0 0 0" transform="matrix(-0.8823528789936014,0.47058835188697895,-0.47058835188697895,-0.8823528789936014,2115,1049)"></path><path  fill="#444444" stroke="#444444" d="M 20 0 L 0 10 L 20 20 z" id="v-174" transform="matrix(0.8823530043188289,-0.4705881169021767,0.4705881169021767,0.8823530043188289,1435.294075115915,1400.1764185086458)" style="opacity: 1;"></path><path  d="M 2115 1049 L 1440 1409" id="v-173" fill="none" style="cursor: auto; pointer-events: visiblepainted;"></path><g ><g id="v-166"  label-idx="0" cursor="move" transform="matrix(1,0,0,1,1777.5,1229)" style="cursor: default; opacity: 1;"><rect joint-selector="rect" id="v-169" fill="#ffffff" rx="3" ry="3" pointer-events="none" width="55.323081970214844" height="33.53821563720703" transform="matrix(1,0,0,1,-27.7,-16.8)"></rect><text joint-selector="text" id="v-168" font-size="24px" xml:space="preserve" y="0.8em" fill="#444444" text-anchor="middle" pointer-events="none" font-family="Open Sans, Tahoma, Arial" font-weight="normal" transform="matrix(1,0,0,1,0,-9.6)"><tspan dy="0" >[use]</tspan></text></g><g id="v-167"  label-idx="1" cursor="move" transform="matrix(1,0,0,1,1767.5,1241)" style="cursor: default; opacity: 1;"><rect joint-selector="rect" id="v-171" fill="#ffffff" rx="3" ry="3"  width="0" height="0" transform="matrix(1,0,0,1,0,0)" display="none"></rect><text joint-selector="text" id="v-170" fill="#000000" font-size="14" text-anchor="middle" pointer-events="none"></text></g></g><g  display="none" style="display: none;"></g><g  id="v-176" display="none"><g  id="v-164"><path  end="source" d="M 26 0 L 0 13 L 26 26 z"></path></g><g  id="v-165"><path  end="target" d="M 26 0 L 0 13 L 26 26 z"></path></g></g><g  id="v-175" display="none"><g  id="v-163" transform="translate(2079.705882352941, 1067.8235294117646) "><g  event="remove"><circle r="11"></circle><path transform="scale(.8) translate(-16, -16)" d="M24.778,21.419 19.276,15.917 24.777,10.415 21.949,7.585 16.447,13.087 10.945,7.585 8.117,10.415 13.618,15.917 8.116,21.419 10.946,24.248 16.447,18.746 21.948,24.248z"></path><title>Remove link.</title></g><g  event="link:options"><circle r="11" transform="translate(25)"></circle><path fill="white" transform="scale(.55) translate(29, -16)" d="M31.229,17.736c0.064-0.571,0.104-1.148,0.104-1.736s-0.04-1.166-0.104-1.737l-4.377-1.557c-0.218-0.716-0.504-1.401-0.851-2.05l1.993-4.192c-0.725-0.91-1.549-1.734-2.458-2.459l-4.193,1.994c-0.647-0.347-1.334-0.632-2.049-0.849l-1.558-4.378C17.165,0.708,16.588,0.667,16,0.667s-1.166,0.041-1.737,0.105L12.707,5.15c-0.716,0.217-1.401,0.502-2.05,0.849L6.464,4.005C5.554,4.73,4.73,5.554,4.005,6.464l1.994,4.192c-0.347,0.648-0.632,1.334-0.849,2.05l-4.378,1.557C0.708,14.834,0.667,15.412,0.667,16s0.041,1.165,0.105,1.736l4.378,1.558c0.217,0.715,0.502,1.401,0.849,2.049l-1.994,4.193c0.725,0.909,1.549,1.733,2.459,2.458l4.192-1.993c0.648,0.347,1.334,0.633,2.05,0.851l1.557,4.377c0.571,0.064,1.148,0.104,1.737,0.104c0.588,0,1.165-0.04,1.736-0.104l1.558-4.377c0.715-0.218,1.399-0.504,2.049-0.851l4.193,1.993c0.909-0.725,1.733-1.549,2.458-2.458l-1.993-4.193c0.347-0.647,0.633-1.334,0.851-2.049L31.229,17.736zM16,20.871c-2.69,0-4.872-2.182-4.872-4.871c0-2.69,2.182-4.872,4.872-4.872c2.689,0,4.871,2.182,4.871,4.872C20.871,18.689,18.689,20.871,16,20.871z"></path><title>Link options.</title></g></g></g></g><!--z-index:64--><g   id="j_19" ><path  stroke="#444444" d="M 2246 1079 L 2059 1379" id="v-186" stroke-width="2" stroke-dasharray="8 8" fill="none" style="opacity: 1;"></path><path  fill="black" stroke="black" d="M 0 0 0 0" transform="matrix(-0.5299989865422612,0.8479982749181605,-0.8479982749181605,-0.5299989865422612,2246.25,1079)"></path><path  fill="#444444" stroke="#444444" d="M 20 0 L 0 10 L 20 20 z" id="v-188" transform="matrix(0.5299987607066415,-0.8479984160653982,0.8479984160653982,0.5299987607066415,2050.2700770604047,1373.7000160848374)" style="opacity: 1;"></path><path  d="M 2246 1079 L 2059 1379" id="v-187" fill="none" style="cursor: auto; pointer-events: visiblepainted;"></path><g ><g id="v-180"  label-idx="0" cursor="move" transform="matrix(1,0,0,1,2152.5,1229)" style="cursor: default; opacity: 1;"><rect joint-selector="rect" id="v-183" fill="#ffffff" rx="3" ry="3" pointer-events="none" width="55.323081970214844" height="33.53821563720703" transform="matrix(1,0,0,1,-27.7,-16.8)"></rect><text joint-selector="text" id="v-182" font-size="24px" xml:space="preserve" y="0.8em" fill="#444444" text-anchor="middle" pointer-events="none" font-family="Open Sans, Tahoma, Arial" font-weight="normal" transform="matrix(1,0,0,1,0,-9.6)"><tspan dy="0" >[use]</tspan></text></g><g id="v-181"  label-idx="1" cursor="move" transform="matrix(1,0,0,1,2142.5,1241)" style="cursor: default; opacity: 1;"><rect joint-selector="rect" id="v-185" fill="#ffffff" rx="3" ry="3"  width="0" height="0" transform="matrix(1,0,0,1,0,0)" display="none"></rect><text joint-selector="text" id="v-184" fill="#000000" font-size="14" text-anchor="middle" pointer-events="none"></text></g></g><g  display="none" style="display: none;"></g><g  id="v-190" display="none"><g  id="v-178"><path  end="source" d="M 26 0 L 0 13 L 26 26 z"></path></g><g  id="v-179"><path  end="target" d="M 26 0 L 0 13 L 26 26 z"></path></g></g><g  id="v-189" display="none"><g  id="v-177" transform="translate(2224.8407411961143, 1112.9453349794958) "><g  event="remove"><circle r="11"></circle><path transform="scale(.8) translate(-16, -16)" d="M24.778,21.419 19.276,15.917 24.777,10.415 21.949,7.585 16.447,13.087 10.945,7.585 8.117,10.415 13.618,15.917 8.116,21.419 10.946,24.248 16.447,18.746 21.948,24.248z"></path><title>Remove link.</title></g><g  event="link:options"><circle r="11" transform="translate(25)"></circle><path fill="white" transform="scale(.55) translate(29, -16)" d="M31.229,17.736c0.064-0.571,0.104-1.148,0.104-1.736s-0.04-1.166-0.104-1.737l-4.377-1.557c-0.218-0.716-0.504-1.401-0.851-2.05l1.993-4.192c-0.725-0.91-1.549-1.734-2.458-2.459l-4.193,1.994c-0.647-0.347-1.334-0.632-2.049-0.849l-1.558-4.378C17.165,0.708,16.588,0.667,16,0.667s-1.166,0.041-1.737,0.105L12.707,5.15c-0.716,0.217-1.401,0.502-2.05,0.849L6.464,4.005C5.554,4.73,4.73,5.554,4.005,6.464l1.994,4.192c-0.347,0.648-0.632,1.334-0.849,2.05l-4.378,1.557C0.708,14.834,0.667,15.412,0.667,16s0.041,1.165,0.105,1.736l4.378,1.558c0.217,0.715,0.502,1.401,0.849,2.049l-1.994,4.193c0.725,0.909,1.549,1.733,2.459,2.458l4.192-1.993c0.648,0.347,1.334,0.633,2.05,0.851l1.557,4.377c0.571,0.064,1.148,0.104,1.737,0.104c0.588,0,1.165-0.04,1.736-0.104l1.558-4.377c0.715-0.218,1.399-0.504,2.049-0.851l4.193,1.993c0.909-0.725,1.733-1.549,2.458-2.458l-1.993-4.193c0.347-0.647,0.633-1.334,0.851-2.049L31.229,17.736zM16,20.871c-2.69,0-4.872-2.182-4.872-4.871c0-2.69,2.182-4.872,4.872-4.872c2.689,0,4.871,2.182,4.871,4.872C20.871,18.689,18.689,20.871,16,20.871z"></path><title>Link options.</title></g></g></g></g><!--z-index:65--><g   id="j_20" ><path  stroke="#444444" d="M 2434 1079 L 2621 1379" id="v-200" stroke-width="2" stroke-dasharray="8 8" fill="none" style="opacity: 1;"></path><path  fill="black" stroke="black" d="M 0 0 0 0" transform="matrix(0.52999893008336,0.8479983102049754,-0.8479983102049754,0.52999893008336,2433.75,1079)"></path><path  fill="#444444" stroke="#444444" d="M 20 0 L 0 10 L 20 20 z" id="v-202" transform="matrix(-0.5299989865422614,-0.8479982749181603,0.8479982749181603,-0.5299989865422614,2612.769958288116,1384.2999921458543)" style="opacity: 1;"></path><path  d="M 2434 1079 L 2621 1379" id="v-201" fill="none" style="cursor: auto; pointer-events: visiblepainted;"></path><g ><g id="v-194"  label-idx="0" cursor="move" transform="matrix(1,0,0,1,2527.5,1229)" style="cursor: default; opacity: 1;"><rect joint-selector="rect" id="v-197" fill="#ffffff" rx="3" ry="3" pointer-events="none" width="55.323081970214844" height="33.53821563720703" transform="matrix(1,0,0,1,-27.7,-16.8)"></rect><text joint-selector="text" id="v-196" font-size="24px" xml:space="preserve" y="0.8em" fill="#444444" text-anchor="middle" pointer-events="none" font-family="Open Sans, Tahoma, Arial" font-weight="normal" transform="matrix(1,0,0,1,0,-9.6)"><tspan dy="0" >[use]</tspan></text></g><g id="v-195"  label-idx="1" cursor="move" transform="matrix(1,0,0,1,2517.5,1241)" style="cursor: default; opacity: 1;"><rect joint-selector="rect" id="v-199" fill="#ffffff" rx="3" ry="3"  width="0" height="0" transform="matrix(1,0,0,1,0,0)" display="none"></rect><text joint-selector="text" id="v-198" fill="#000000" font-size="14" text-anchor="middle" pointer-events="none"></text></g></g><g  display="none" style="display: none;"></g><g  id="v-204" display="none"><g  id="v-192"><path  end="source" d="M 26 0 L 0 13 L 26 26 z"></path></g><g  id="v-193"><path  end="target" d="M 26 0 L 0 13 L 26 26 z"></path></g></g><g  id="v-203" display="none"><g  id="v-191" transform="translate(2455.1592588038857, 1112.9453349794958) "><g  event="remove"><circle r="11"></circle><path transform="scale(.8) translate(-16, -16)" d="M24.778,21.419 19.276,15.917 24.777,10.415 21.949,7.585 16.447,13.087 10.945,7.585 8.117,10.415 13.618,15.917 8.116,21.419 10.946,24.248 16.447,18.746 21.948,24.248z"></path><title>Remove link.</title></g><g  event="link:options"><circle r="11" transform="translate(25)"></circle><path fill="white" transform="scale(.55) translate(29, -16)" d="M31.229,17.736c0.064-0.571,0.104-1.148,0.104-1.736s-0.04-1.166-0.104-1.737l-4.377-1.557c-0.218-0.716-0.504-1.401-0.851-2.05l1.993-4.192c-0.725-0.91-1.549-1.734-2.458-2.459l-4.193,1.994c-0.647-0.347-1.334-0.632-2.049-0.849l-1.558-4.378C17.165,0.708,16.588,0.667,16,0.667s-1.166,0.041-1.737,0.105L12.707,5.15c-0.716,0.217-1.401,0.502-2.05,0.849L6.464,4.005C5.554,4.73,4.73,5.554,4.005,6.464l1.994,4.192c-0.347,0.648-0.632,1.334-0.849,2.05l-4.378,1.557C0.708,14.834,0.667,15.412,0.667,16s0.041,1.165,0.105,1.736l4.378,1.558c0.217,0.715,0.502,1.401,0.849,2.049l-1.994,4.193c0.725,0.909,1.549,1.733,2.459,2.458l4.192-1.993c0.648,0.347,1.334,0.633,2.05,0.851l1.557,4.377c0.571,0.064,1.148,0.104,1.737,0.104c0.588,0,1.165-0.04,1.736-0.104l1.558-4.377c0.715-0.218,1.399-0.504,2.049-0.851l4.193,1.993c0.909-0.725,1.733-1.549,2.458-2.458l-1.993-4.193c0.347-0.647,0.633-1.334,0.851-2.049L31.229,17.736zM16,20.871c-2.69,0-4.872-2.182-4.872-4.871c0-2.69,2.182-4.872,4.872-4.872c2.689,0,4.871,2.182,4.871,4.872C20.871,18.689,18.689,20.871,16,20.871z"></path><title>Link options.</title></g></g></g></g><!--z-index:66--><g   id="j_21" ><path  stroke="#444444" d="M 2565 997 L 3830 1376 C 3836.6666666666665 1378 3843 1380.3333333333333 3849 1383 L 3990 1439" id="v-215" stroke-width="2" stroke-dasharray="8 8" fill="none" style="opacity: 1;"></path><path  fill="black" stroke="black" d="M 0 0 0 0" transform="matrix(0.9578262886739,0.28734787405718315,-0.28734787405718315,0.9578262886739,2565,996.5)"></path><path  fill="#444444" stroke="#444444" d="M 20 0 L 0 10 L 20 20 z" id="v-217" transform="matrix(-0.928476707906966,-0.3713906337998342,0.3713906337998342,-0.928476707906966,3986.286192772321,1448.284806229568)" style="opacity: 1;"></path><path  d="M 2565 997 L 3830 1376 C 3836.6666666666665 1378 3843 1380.3333333333333 3849 1383 L 3990 1439" id="v-216" fill="none" style="cursor: auto; pointer-events: visiblepainted;"></path><g ><g id="v-209"  label-idx="0" cursor="move" transform="matrix(1,0,0,1,3279.869873046875,1211.178466796875)" style="cursor: default; opacity: 1;"><rect joint-selector="rect" id="v-212" fill="#ffffff" rx="3" ry="3" pointer-events="none" width="55.323081970214844" height="33.53821563720703" transform="matrix(1,0,0,1,-27.7,-16.8)"></rect><text joint-selector="text" id="v-211" font-size="24px" xml:space="preserve" y="0.8em" fill="#444444" text-anchor="middle" pointer-events="none" font-family="Open Sans, Tahoma, Arial" font-weight="normal" transform="matrix(1,0,0,1,0,-9.6)"><tspan dy="0" >[use]</tspan></text></g><g id="v-210"  label-idx="1" cursor="move" transform="matrix(1,0,0,1,3269.869873046875,1223.178466796875)" style="cursor: default; opacity: 1;"><rect joint-selector="rect" id="v-214" fill="#ffffff" rx="3" ry="3"  width="0" height="0" transform="matrix(1,0,0,1,0,0)" display="none"></rect><text joint-selector="text" id="v-213" fill="#000000" font-size="14" text-anchor="middle" pointer-events="none"></text></g></g><g  display="none" style="display: none;"><g  transform="translate(3840, 1379)" id="v-382"><circle  idx="0" r="10"></circle><path  idx="0" d="M16,5.333c-7.732,0-14,4.701-14,10.5c0,1.982,0.741,3.833,2.016,5.414L2,25.667l5.613-1.441c2.339,1.317,5.237,2.107,8.387,2.107c7.732,0,14-4.701,14-10.5C30,10.034,23.732,5.333,16,5.333z" transform="translate(5, -33)"></path><path  idx="0" transform="scale(.8) translate(9.5, -37)" d="M24.778,21.419 19.276,15.917 24.777,10.415 21.949,7.585 16.447,13.087 10.945,7.585 8.117,10.415 13.618,15.917 8.116,21.419 10.946,24.248 16.447,18.746 21.948,24.248z"><title>Remove vertex.</title></path></g></g><g  id="v-219" display="none"><g  id="v-207"><path  end="source" d="M 26 0 L 0 13 L 26 26 z"></path></g><g  id="v-208"><path  end="target" d="M 26 0 L 0 13 L 26 26 z"></path></g></g><g  id="v-218" display="none"><g  id="v-205" transform="translate(2603.3172172779086, 1008.4800200382034) "><g  event="remove"><circle r="11"></circle><path transform="scale(.8) translate(-16, -16)" d="M24.778,21.419 19.276,15.917 24.777,10.415 21.949,7.585 16.447,13.087 10.945,7.585 8.117,10.415 13.618,15.917 8.116,21.419 10.946,24.248 16.447,18.746 21.948,24.248z"></path><title>Remove link.</title></g><g  event="link:options"><circle r="11" transform="translate(25)"></circle><path fill="white" transform="scale(.55) translate(29, -16)" d="M31.229,17.736c0.064-0.571,0.104-1.148,0.104-1.736s-0.04-1.166-0.104-1.737l-4.377-1.557c-0.218-0.716-0.504-1.401-0.851-2.05l1.993-4.192c-0.725-0.91-1.549-1.734-2.458-2.459l-4.193,1.994c-0.647-0.347-1.334-0.632-2.049-0.849l-1.558-4.378C17.165,0.708,16.588,0.667,16,0.667s-1.166,0.041-1.737,0.105L12.707,5.15c-0.716,0.217-1.401,0.502-2.05,0.849L6.464,4.005C5.554,4.73,4.73,5.554,4.005,6.464l1.994,4.192c-0.347,0.648-0.632,1.334-0.849,2.05l-4.378,1.557C0.708,14.834,0.667,15.412,0.667,16s0.041,1.165,0.105,1.736l4.378,1.558c0.217,0.715,0.502,1.401,0.849,2.049l-1.994,4.193c0.725,0.909,1.549,1.733,2.459,2.458l4.192-1.993c0.648,0.347,1.334,0.633,2.05,0.851l1.557,4.377c0.571,0.064,1.148,0.104,1.737,0.104c0.588,0,1.165-0.04,1.736-0.104l1.558-4.377c0.715-0.218,1.399-0.504,2.049-0.851l4.193,1.993c0.909-0.725,1.733-1.549,2.458-2.458l-1.993-4.193c0.347-0.647,0.633-1.334,0.851-2.049L31.229,17.736zM16,20.871c-2.69,0-4.872-2.182-4.872-4.871c0-2.69,2.182-4.872,4.872-4.872c2.689,0,4.871,2.182,4.871,4.872C20.871,18.689,18.689,20.871,16,20.871z"></path><title>Link options.</title></g></g></g></g><!--z-index:67--><g   id="j_22" ><path  stroke="#444444" d="M 2565 1049 L 3240 1409" id="v-229" stroke-width="2" stroke-dasharray="8 8" fill="none" style="opacity: 1;"></path><path  fill="black" stroke="black" d="M 0 0 0 0" transform="matrix(0.882352941656223,0.47058823439458186,-0.47058823439458186,0.882352941656223,2565,1049)"></path><path  fill="#444444" stroke="#444444" d="M 20 0 L 0 10 L 20 20 z" id="v-231" transform="matrix(-0.8823528789936015,-0.47058835188697873,0.47058835188697873,-0.8823528789936015,3235.294158942941,1417.8234796916183)" style="opacity: 1;"></path><path  d="M 2565 1049 L 3240 1409" id="v-230" fill="none" style="cursor: auto; pointer-events: visiblepainted;"></path><g ><g id="v-223"  label-idx="0" cursor="move" transform="matrix(1,0,0,1,2902.5,1229)" style="cursor: default; opacity: 1;"><rect joint-selector="rect" id="v-226" fill="#ffffff" rx="3" ry="3" pointer-events="none" width="55.323081970214844" height="33.53821563720703" transform="matrix(1,0,0,1,-27.7,-16.8)"></rect><text joint-selector="text" id="v-225" font-size="24px" xml:space="preserve" y="0.8em" fill="#444444" text-anchor="middle" pointer-events="none" font-family="Open Sans, Tahoma, Arial" font-weight="normal" transform="matrix(1,0,0,1,0,-9.6)"><tspan dy="0" >[use]</tspan></text></g><g id="v-224"  label-idx="1" cursor="move" transform="matrix(1,0,0,1,2892.5,1241)" style="cursor: default; opacity: 1;"><rect joint-selector="rect" id="v-228" fill="#ffffff" rx="3" ry="3"  width="0" height="0" transform="matrix(1,0,0,1,0,0)" display="none"></rect><text joint-selector="text" id="v-227" fill="#000000" font-size="14" text-anchor="middle" pointer-events="none"></text></g></g><g  display="none" style="display: none;"></g><g  id="v-233" display="none"><g  id="v-221"><path  end="source" d="M 26 0 L 0 13 L 26 26 z"></path></g><g  id="v-222"><path  end="target" d="M 26 0 L 0 13 L 26 26 z"></path></g></g><g  id="v-232" display="none"><g  id="v-220" transform="translate(2600.294117647059, 1067.8235294117646) "><g  event="remove"><circle r="11"></circle><path transform="scale(.8) translate(-16, -16)" d="M24.778,21.419 19.276,15.917 24.777,10.415 21.949,7.585 16.447,13.087 10.945,7.585 8.117,10.415 13.618,15.917 8.116,21.419 10.946,24.248 16.447,18.746 21.948,24.248z"></path><title>Remove link.</title></g><g  event="link:options"><circle r="11" transform="translate(25)"></circle><path fill="white" transform="scale(.55) translate(29, -16)" d="M31.229,17.736c0.064-0.571,0.104-1.148,0.104-1.736s-0.04-1.166-0.104-1.737l-4.377-1.557c-0.218-0.716-0.504-1.401-0.851-2.05l1.993-4.192c-0.725-0.91-1.549-1.734-2.458-2.459l-4.193,1.994c-0.647-0.347-1.334-0.632-2.049-0.849l-1.558-4.378C17.165,0.708,16.588,0.667,16,0.667s-1.166,0.041-1.737,0.105L12.707,5.15c-0.716,0.217-1.401,0.502-2.05,0.849L6.464,4.005C5.554,4.73,4.73,5.554,4.005,6.464l1.994,4.192c-0.347,0.648-0.632,1.334-0.849,2.05l-4.378,1.557C0.708,14.834,0.667,15.412,0.667,16s0.041,1.165,0.105,1.736l4.378,1.558c0.217,0.715,0.502,1.401,0.849,2.049l-1.994,4.193c0.725,0.909,1.549,1.733,2.459,2.458l4.192-1.993c0.648,0.347,1.334,0.633,2.05,0.851l1.557,4.377c0.571,0.064,1.148,0.104,1.737,0.104c0.588,0,1.165-0.04,1.736-0.104l1.558-4.377c0.715-0.218,1.399-0.504,2.049-0.851l4.193,1.993c0.909-0.725,1.733-1.549,2.458-2.458l-1.993-4.193c0.347-0.647,0.633-1.334,0.851-2.049L31.229,17.736zM16,20.871c-2.69,0-4.872-2.182-4.872-4.871c0-2.69,2.182-4.872,4.872-4.872c2.689,0,4.871,2.182,4.871,4.872C20.871,18.689,18.689,20.871,16,20.871z"></path><title>Link options.</title></g></g></g></g><!--z-index:68--><g   id="j_23" ><path  stroke="#444444" d="M 690 1619 L 831 1675 C 837 1677.6666666666665 843.3333333333333 1680 850 1682 L 2115 2062" id="v-247" stroke-width="2" stroke-dasharray="8 8" fill="none" style="opacity: 1;"></path><path  fill="black" stroke="black" d="M 0 0 0 0" transform="matrix(0.9284766955435519,0.371390664708372,-0.371390664708372,0.9284766955435519,690,1619)"></path><path  fill="#444444" stroke="#444444" d="M 20 0 L 0 10 L 20 20 z" id="v-249" transform="matrix(-0.9578262599768824,-0.28734796971389537,0.28734796971389537,-0.9578262599768824,2112.1264137620046,2071.078207140658)" style="opacity: 1;"></path><path  d="M 690 1619 L 831 1675 C 837 1677.6666666666665 843.3333333333333 1680 850 1682 L 2115 2062" id="v-248" fill="none" style="cursor: auto; pointer-events: visiblepainted;"></path><g ><g id="v-241"  label-idx="0" cursor="move" transform="matrix(1,0,0,1,1400.14794921875,1847.2618408203125)" style="cursor: default; opacity: 1;"><rect joint-selector="rect" id="v-244" fill="#ffffff" rx="3" ry="3" pointer-events="none" width="164.62171936035156" height="62.338218688964844" transform="matrix(1,0,0,1,-82.3,-31.2)"></rect><text joint-selector="text" id="v-243" font-size="24px" xml:space="preserve" y="0.8em" fill="#444444" text-anchor="middle" pointer-events="none" font-family="Open Sans, Tahoma, Arial" font-weight="normal" transform="matrix(1,0,0,1,0,-24)"><tspan dy="0" >[manage</tspan><tspan dy="1.2em" x="0" >appointments]</tspan></text></g><g id="v-242"  label-idx="1" cursor="move" transform="matrix(1,0,0,1,1390.14794921875,1873.661865234375)" style="cursor: default; opacity: 1;"><rect joint-selector="rect" id="v-246" fill="#ffffff" rx="3" ry="3"  width="0" height="0" transform="matrix(1,0,0,1,0,0)" display="none"></rect><text joint-selector="text" id="v-245" fill="#000000" font-size="14" text-anchor="middle" pointer-events="none"></text></g></g><g  display="none" style="display: none;"><g  transform="translate(840, 1679)" id="v-383"><circle  idx="0" r="10"></circle><path  idx="0" d="M16,5.333c-7.732,0-14,4.701-14,10.5c0,1.982,0.741,3.833,2.016,5.414L2,25.667l5.613-1.441c2.339,1.317,5.237,2.107,8.387,2.107c7.732,0,14-4.701,14-10.5C30,10.034,23.732,5.333,16,5.333z" transform="translate(5, -33)"></path><path  idx="0" transform="scale(.8) translate(9.5, -37)" d="M24.778,21.419 19.276,15.917 24.777,10.415 21.949,7.585 16.447,13.087 10.945,7.585 8.117,10.415 13.618,15.917 8.116,21.419 10.946,24.248 16.447,18.746 21.948,24.248z"><title>Remove vertex.</title></path></g></g><g  id="v-251" display="none"><g  id="v-239"><path  end="source" d="M 26 0 L 0 13 L 26 26 z"></path></g><g  id="v-240"><path  end="target" d="M 26 0 L 0 13 L 26 26 z"></path></g></g><g  id="v-250" display="none"><g  id="v-237" transform="translate(727.1753225311058, 1633.7646671045527) "><g  event="remove"><circle r="11"></circle><path transform="scale(.8) translate(-16, -16)" d="M24.778,21.419 19.276,15.917 24.777,10.415 21.949,7.585 16.447,13.087 10.945,7.585 8.117,10.415 13.618,15.917 8.116,21.419 10.946,24.248 16.447,18.746 21.948,24.248z"></path><title>Remove link.</title></g><g  event="link:options"><circle r="11" transform="translate(25)"></circle><path fill="white" transform="scale(.55) translate(29, -16)" d="M31.229,17.736c0.064-0.571,0.104-1.148,0.104-1.736s-0.04-1.166-0.104-1.737l-4.377-1.557c-0.218-0.716-0.504-1.401-0.851-2.05l1.993-4.192c-0.725-0.91-1.549-1.734-2.458-2.459l-4.193,1.994c-0.647-0.347-1.334-0.632-2.049-0.849l-1.558-4.378C17.165,0.708,16.588,0.667,16,0.667s-1.166,0.041-1.737,0.105L12.707,5.15c-0.716,0.217-1.401,0.502-2.05,0.849L6.464,4.005C5.554,4.73,4.73,5.554,4.005,6.464l1.994,4.192c-0.347,0.648-0.632,1.334-0.849,2.05l-4.378,1.557C0.708,14.834,0.667,15.412,0.667,16s0.041,1.165,0.105,1.736l4.378,1.558c0.217,0.715,0.502,1.401,0.849,2.049l-1.994,4.193c0.725,0.909,1.549,1.733,2.459,2.458l4.192-1.993c0.648,0.347,1.334,0.633,2.05,0.851l1.557,4.377c0.571,0.064,1.148,0.104,1.737,0.104c0.588,0,1.165-0.04,1.736-0.104l1.558-4.377c0.715-0.218,1.399-0.504,2.049-0.851l4.193,1.993c0.909-0.725,1.733-1.549,2.458-2.458l-1.993-4.193c0.347-0.647,0.633-1.334,0.851-2.049L31.229,17.736zM16,20.871c-2.69,0-4.872-2.182-4.872-4.871c0-2.69,2.182-4.872,4.872-4.872c2.689,0,4.871,2.182,4.871,4.872C20.871,18.689,18.689,20.871,16,20.871z"></path><title>Link options.</title></g></g></g></g><!--z-index:69--><g   id="j_24" ><path  stroke="#444444" d="M 1440 1649 L 2115 2009" id="v-264" stroke-width="2" stroke-dasharray="8 8" fill="none" style="opacity: 1;"></path><path  fill="black" stroke="black" d="M 0 0 0 0" transform="matrix(0.882352941656223,0.47058823439458186,-0.47058823439458186,0.882352941656223,1440,1649)"></path><path  fill="#444444" stroke="#444444" d="M 20 0 L 0 10 L 20 20 z" id="v-266" transform="matrix(-0.8823528789936015,-0.47058835188697873,0.47058835188697873,-0.8823528789936015,2110.294158942941,2017.8234796916183)" style="opacity: 1;"></path><path  d="M 1440 1649 L 2115 2009" id="v-265" fill="none" style="cursor: auto; pointer-events: visiblepainted;"></path><g ><g id="v-258"  label-idx="0" cursor="move" transform="matrix(1,0,0,1,1777.5,1829)" style="cursor: default; opacity: 1;"><rect joint-selector="rect" id="v-261" fill="#ffffff" rx="3" ry="3" pointer-events="none" width="119.25530242919922" height="62.338218688964844" transform="matrix(1,0,0,1,-59.6,-31.2)"></rect><text joint-selector="text" id="v-260" font-size="24px" xml:space="preserve" y="0.8em" fill="#444444" text-anchor="middle" pointer-events="none" font-family="Open Sans, Tahoma, Arial" font-weight="normal" transform="matrix(1,0,0,1,0,-24)"><tspan dy="0" >[manage</tspan><tspan dy="1.2em" x="0" >schedules]</tspan></text></g><g id="v-259"  label-idx="1" cursor="move" transform="matrix(1,0,0,1,1767.5,1855.4000244140625)" style="cursor: default; opacity: 1;"><rect joint-selector="rect" id="v-263" fill="#ffffff" rx="3" ry="3"  width="0" height="0" transform="matrix(1,0,0,1,0,0)" display="none"></rect><text joint-selector="text" id="v-262" fill="#000000" font-size="14" text-anchor="middle" pointer-events="none"></text></g></g><g  display="none" style="display: none;"></g><g  id="v-268" display="none"><g  id="v-256"><path  end="source" d="M 26 0 L 0 13 L 26 26 z"></path></g><g  id="v-257"><path  end="target" d="M 26 0 L 0 13 L 26 26 z"></path></g></g><g  id="v-267" display="none"><g  id="v-255" transform="translate(1475.2941176470588, 1667.8235294117649) "><g  event="remove"><circle r="11"></circle><path transform="scale(.8) translate(-16, -16)" d="M24.778,21.419 19.276,15.917 24.777,10.415 21.949,7.585 16.447,13.087 10.945,7.585 8.117,10.415 13.618,15.917 8.116,21.419 10.946,24.248 16.447,18.746 21.948,24.248z"></path><title>Remove link.</title></g><g  event="link:options"><circle r="11" transform="translate(25)"></circle><path fill="white" transform="scale(.55) translate(29, -16)" d="M31.229,17.736c0.064-0.571,0.104-1.148,0.104-1.736s-0.04-1.166-0.104-1.737l-4.377-1.557c-0.218-0.716-0.504-1.401-0.851-2.05l1.993-4.192c-0.725-0.91-1.549-1.734-2.458-2.459l-4.193,1.994c-0.647-0.347-1.334-0.632-2.049-0.849l-1.558-4.378C17.165,0.708,16.588,0.667,16,0.667s-1.166,0.041-1.737,0.105L12.707,5.15c-0.716,0.217-1.401,0.502-2.05,0.849L6.464,4.005C5.554,4.73,4.73,5.554,4.005,6.464l1.994,4.192c-0.347,0.648-0.632,1.334-0.849,2.05l-4.378,1.557C0.708,14.834,0.667,15.412,0.667,16s0.041,1.165,0.105,1.736l4.378,1.558c0.217,0.715,0.502,1.401,0.849,2.049l-1.994,4.193c0.725,0.909,1.549,1.733,2.459,2.458l4.192-1.993c0.648,0.347,1.334,0.633,2.05,0.851l1.557,4.377c0.571,0.064,1.148,0.104,1.737,0.104c0.588,0,1.165-0.04,1.736-0.104l1.558-4.377c0.715-0.218,1.399-0.504,2.049-0.851l4.193,1.993c0.909-0.725,1.733-1.549,2.458-2.458l-1.993-4.193c0.347-0.647,0.633-1.334,0.851-2.049L31.229,17.736zM16,20.871c-2.69,0-4.872-2.182-4.872-4.871c0-2.69,2.182-4.872,4.872-4.872c2.689,0,4.871,2.182,4.871,4.872C20.871,18.689,18.689,20.871,16,20.871z"></path><title>Link options.</title></g></g></g></g><!--z-index:70--><g   id="j_25" ><path  stroke="#444444" d="M 2059 1679 L 2246 1979" id="v-281" stroke-width="2" stroke-dasharray="8 8" fill="none" style="opacity: 1;"></path><path  fill="black" stroke="black" d="M 0 0 0 0" transform="matrix(0.52999893008336,0.8479983102049754,-0.8479983102049754,0.52999893008336,2058.75,1679)"></path><path  fill="#444444" stroke="#444444" d="M 20 0 L 0 10 L 20 20 z" id="v-283" transform="matrix(-0.5299989865422614,-0.8479982749181603,0.8479982749181603,-0.5299989865422614,2237.769958288116,1984.2999921458543)" style="opacity: 1;"></path><path  d="M 2059 1679 L 2246 1979" id="v-282" fill="none" style="cursor: auto; pointer-events: visiblepainted;"></path><g ><g id="v-275"  label-idx="0" cursor="move" transform="matrix(1,0,0,1,2152.5,1829)" style="cursor: default; opacity: 1;"><rect joint-selector="rect" id="v-278" fill="#ffffff" rx="3" ry="3" pointer-events="none" width="164.17254638671875" height="33.53821563720703" transform="matrix(1,0,0,1,-82.1,-16.8)"></rect><text joint-selector="text" id="v-277" font-size="24px" xml:space="preserve" y="0.8em" fill="#444444" text-anchor="middle" pointer-events="none" font-family="Open Sans, Tahoma, Arial" font-weight="normal" transform="matrix(1,0,0,1,0,-9.6)"><tspan dy="0" >[assign rooms]</tspan></text></g><g id="v-276"  label-idx="1" cursor="move" transform="matrix(1,0,0,1,2142.5,1841)" style="cursor: default; opacity: 1;"><rect joint-selector="rect" id="v-280" fill="#ffffff" rx="3" ry="3"  width="0" height="0" transform="matrix(1,0,0,1,0,0)" display="none"></rect><text joint-selector="text" id="v-279" fill="#000000" font-size="14" text-anchor="middle" pointer-events="none"></text></g></g><g  display="none" style="display: none;"></g><g  id="v-285" display="none"><g  id="v-273"><path  end="source" d="M 26 0 L 0 13 L 26 26 z"></path></g><g  id="v-274"><path  end="target" d="M 26 0 L 0 13 L 26 26 z"></path></g></g><g  id="v-284" display="none"><g  id="v-272" transform="translate(2080.1592588038857, 1712.945334979496) "><g  event="remove"><circle r="11"></circle><path transform="scale(.8) translate(-16, -16)" d="M24.778,21.419 19.276,15.917 24.777,10.415 21.949,7.585 16.447,13.087 10.945,7.585 8.117,10.415 13.618,15.917 8.116,21.419 10.946,24.248 16.447,18.746 21.948,24.248z"></path><title>Remove link.</title></g><g  event="link:options"><circle r="11" transform="translate(25)"></circle><path fill="white" transform="scale(.55) translate(29, -16)" d="M31.229,17.736c0.064-0.571,0.104-1.148,0.104-1.736s-0.04-1.166-0.104-1.737l-4.377-1.557c-0.218-0.716-0.504-1.401-0.851-2.05l1.993-4.192c-0.725-0.91-1.549-1.734-2.458-2.459l-4.193,1.994c-0.647-0.347-1.334-0.632-2.049-0.849l-1.558-4.378C17.165,0.708,16.588,0.667,16,0.667s-1.166,0.041-1.737,0.105L12.707,5.15c-0.716,0.217-1.401,0.502-2.05,0.849L6.464,4.005C5.554,4.73,4.73,5.554,4.005,6.464l1.994,4.192c-0.347,0.648-0.632,1.334-0.849,2.05l-4.378,1.557C0.708,14.834,0.667,15.412,0.667,16s0.041,1.165,0.105,1.736l4.378,1.558c0.217,0.715,0.502,1.401,0.849,2.049l-1.994,4.193c0.725,0.909,1.549,1.733,2.459,2.458l4.192-1.993c0.648,0.347,1.334,0.633,2.05,0.851l1.557,4.377c0.571,0.064,1.148,0.104,1.737,0.104c0.588,0,1.165-0.04,1.736-0.104l1.558-4.377c0.715-0.218,1.399-0.504,2.049-0.851l4.193,1.993c0.909-0.725,1.733-1.549,2.458-2.458l-1.993-4.193c0.347-0.647,0.633-1.334,0.851-2.049L31.229,17.736zM16,20.871c-2.69,0-4.872-2.182-4.872-4.871c0-2.69,2.182-4.872,4.872-4.872c2.689,0,4.871,2.182,4.871,4.872C20.871,18.689,18.689,20.871,16,20.871z"></path><title>Link options.</title></g></g></g></g><!--z-index:71--><g   id="j_26" ><path  stroke="#444444" d="M 2621 1679 L 2434 1979" id="v-298" stroke-width="2" stroke-dasharray="8 8" fill="none" style="opacity: 1;"></path><path  fill="black" stroke="black" d="M 0 0 0 0" transform="matrix(-0.5299989865422612,0.8479982749181605,-0.8479982749181605,-0.5299989865422612,2621.25,1679)"></path><path  fill="#444444" stroke="#444444" d="M 20 0 L 0 10 L 20 20 z" id="v-300" transform="matrix(0.5299987607066415,-0.8479984160653982,0.8479984160653982,0.5299987607066415,2425.2700770604047,1973.7000160848374)" style="opacity: 1;"></path><path  d="M 2621 1679 L 2434 1979" id="v-299" fill="none" style="cursor: auto; pointer-events: visiblepainted;"></path><g ><g id="v-292"  label-idx="0" cursor="move" transform="matrix(1,0,0,1,2527.5,1829)" style="cursor: default; opacity: 1;"><rect joint-selector="rect" id="v-295" fill="#ffffff" rx="3" ry="3" pointer-events="none" width="125.31912994384766" height="62.338218688964844" transform="matrix(1,0,0,1,-62.7,-31.2)"></rect><text joint-selector="text" id="v-294" font-size="24px" xml:space="preserve" y="0.8em" fill="#444444" text-anchor="middle" pointer-events="none" font-family="Open Sans, Tahoma, Arial" font-weight="normal" transform="matrix(1,0,0,1,0,-24)"><tspan dy="0" >[validate</tspan><tspan dy="1.2em" x="0" >availability]</tspan></text></g><g id="v-293"  label-idx="1" cursor="move" transform="matrix(1,0,0,1,2517.5,1855.4000244140625)" style="cursor: default; opacity: 1;"><rect joint-selector="rect" id="v-297" fill="#ffffff" rx="3" ry="3"  width="0" height="0" transform="matrix(1,0,0,1,0,0)" display="none"></rect><text joint-selector="text" id="v-296" fill="#000000" font-size="14" text-anchor="middle" pointer-events="none"></text></g></g><g  display="none" style="display: none;"></g><g  id="v-302" display="none"><g  id="v-290"><path  end="source" d="M 26 0 L 0 13 L 26 26 z"></path></g><g  id="v-291"><path  end="target" d="M 26 0 L 0 13 L 26 26 z"></path></g></g><g  id="v-301" display="none"><g  id="v-289" transform="translate(2599.8407411961143, 1712.945334979496) "><g  event="remove"><circle r="11"></circle><path transform="scale(.8) translate(-16, -16)" d="M24.778,21.419 19.276,15.917 24.777,10.415 21.949,7.585 16.447,13.087 10.945,7.585 8.117,10.415 13.618,15.917 8.116,21.419 10.946,24.248 16.447,18.746 21.948,24.248z"></path><title>Remove link.</title></g><g  event="link:options"><circle r="11" transform="translate(25)"></circle><path fill="white" transform="scale(.55) translate(29, -16)" d="M31.229,17.736c0.064-0.571,0.104-1.148,0.104-1.736s-0.04-1.166-0.104-1.737l-4.377-1.557c-0.218-0.716-0.504-1.401-0.851-2.05l1.993-4.192c-0.725-0.91-1.549-1.734-2.458-2.459l-4.193,1.994c-0.647-0.347-1.334-0.632-2.049-0.849l-1.558-4.378C17.165,0.708,16.588,0.667,16,0.667s-1.166,0.041-1.737,0.105L12.707,5.15c-0.716,0.217-1.401,0.502-2.05,0.849L6.464,4.005C5.554,4.73,4.73,5.554,4.005,6.464l1.994,4.192c-0.347,0.648-0.632,1.334-0.849,2.05l-4.378,1.557C0.708,14.834,0.667,15.412,0.667,16s0.041,1.165,0.105,1.736l4.378,1.558c0.217,0.715,0.502,1.401,0.849,2.049l-1.994,4.193c0.725,0.909,1.549,1.733,2.459,2.458l4.192-1.993c0.648,0.347,1.334,0.633,2.05,0.851l1.557,4.377c0.571,0.064,1.148,0.104,1.737,0.104c0.588,0,1.165-0.04,1.736-0.104l1.558-4.377c0.715-0.218,1.399-0.504,2.049-0.851l4.193,1.993c0.909-0.725,1.733-1.549,2.458-2.458l-1.993-4.193c0.347-0.647,0.633-1.334,0.851-2.049L31.229,17.736zM16,20.871c-2.69,0-4.872-2.182-4.872-4.871c0-2.69,2.182-4.872,4.872-4.872c2.689,0,4.871,2.182,4.871,4.872C20.871,18.689,18.689,20.871,16,20.871z"></path><title>Link options.</title></g></g></g></g><!--z-index:72--><g   id="j_27" ><path  stroke="#444444" d="M 3990 1619 L 3849 1675 C 3843 1677.6666666666665 3836.6666666666665 1680 3830 1682 L 2565 2062" id="v-316" stroke-width="2" stroke-dasharray="8 8" fill="none" style="opacity: 1;"></path><path  fill="black" stroke="black" d="M 0 0 0 0" transform="matrix(-0.928476707906966,0.37139063379983406,-0.37139063379983406,-0.928476707906966,3990,1619)"></path><path  fill="#444444" stroke="#444444" d="M 20 0 L 0 10 L 20 20 z" id="v-318" transform="matrix(0.9578262599768823,-0.2873479697138957,0.2873479697138957,0.9578262599768823,2562.126626843717,2051.92168194112)" style="opacity: 1;"></path><path  d="M 3990 1619 L 3849 1675 C 3843 1677.6666666666665 3836.6666666666665 1680 3830 1682 L 2565 2062" id="v-317" fill="none" style="cursor: auto; pointer-events: visiblepainted;"></path><g ><g id="v-310"  label-idx="0" cursor="move" transform="matrix(1,0,0,1,3279.85205078125,1847.2618408203125)" style="cursor: default; opacity: 1;"><rect joint-selector="rect" id="v-313" fill="#ffffff" rx="3" ry="3" pointer-events="none" width="146.35377502441406" height="91.13821792602539" transform="matrix(1,0,0,1,-72.7,-45.6)"></rect><text joint-selector="text" id="v-312" font-size="24px" xml:space="preserve" y="0.8em" fill="#444444" text-anchor="middle" pointer-events="none" font-family="Open Sans, Tahoma, Arial" font-weight="normal" transform="matrix(1,0,0,1,0,-38.4)"><tspan dy="0" >[update</tspan><tspan dy="1.2em" x="0" >appointment</tspan><tspan dy="1.2em" x="0" >status]</tspan></text></g><g id="v-311"  label-idx="1" cursor="move" transform="matrix(1,0,0,1,3269.85205078125,1888.0618896484375)" style="cursor: default; opacity: 1;"><rect joint-selector="rect" id="v-315" fill="#ffffff" rx="3" ry="3"  width="0" height="0" transform="matrix(1,0,0,1,0,0)" display="none"></rect><text joint-selector="text" id="v-314" fill="#000000" font-size="14" text-anchor="middle" pointer-events="none"></text></g></g><g  display="none" style="display: none;"><g  transform="translate(3840, 1679)" id="v-384"><circle  idx="0" r="10"></circle><path  idx="0" d="M16,5.333c-7.732,0-14,4.701-14,10.5c0,1.982,0.741,3.833,2.016,5.414L2,25.667l5.613-1.441c2.339,1.317,5.237,2.107,8.387,2.107c7.732,0,14-4.701,14-10.5C30,10.034,23.732,5.333,16,5.333z" transform="translate(5, -33)"></path><path  idx="0" transform="scale(.8) translate(9.5, -37)" d="M24.778,21.419 19.276,15.917 24.777,10.415 21.949,7.585 16.447,13.087 10.945,7.585 8.117,10.415 13.618,15.917 8.116,21.419 10.946,24.248 16.447,18.746 21.948,24.248z"><title>Remove vertex.</title></path></g></g><g  id="v-320" display="none"><g  id="v-308"><path  end="source" d="M 26 0 L 0 13 L 26 26 z"></path></g><g  id="v-309"><path  end="target" d="M 26 0 L 0 13 L 26 26 z"></path></g></g><g  id="v-319" display="none"><g  id="v-306" transform="translate(3952.824677468894, 1633.7646671045527) "><g  event="remove"><circle r="11"></circle><path transform="scale(.8) translate(-16, -16)" d="M24.778,21.419 19.276,15.917 24.777,10.415 21.949,7.585 16.447,13.087 10.945,7.585 8.117,10.415 13.618,15.917 8.116,21.419 10.946,24.248 16.447,18.746 21.948,24.248z"></path><title>Remove link.</title></g><g  event="link:options"><circle r="11" transform="translate(25)"></circle><path fill="white" transform="scale(.55) translate(29, -16)" d="M31.229,17.736c0.064-0.571,0.104-1.148,0.104-1.736s-0.04-1.166-0.104-1.737l-4.377-1.557c-0.218-0.716-0.504-1.401-0.851-2.05l1.993-4.192c-0.725-0.91-1.549-1.734-2.458-2.459l-4.193,1.994c-0.647-0.347-1.334-0.632-2.049-0.849l-1.558-4.378C17.165,0.708,16.588,0.667,16,0.667s-1.166,0.041-1.737,0.105L12.707,5.15c-0.716,0.217-1.401,0.502-2.05,0.849L6.464,4.005C5.554,4.73,4.73,5.554,4.005,6.464l1.994,4.192c-0.347,0.648-0.632,1.334-0.849,2.05l-4.378,1.557C0.708,14.834,0.667,15.412,0.667,16s0.041,1.165,0.105,1.736l4.378,1.558c0.217,0.715,0.502,1.401,0.849,2.049l-1.994,4.193c0.725,0.909,1.549,1.733,2.459,2.458l4.192-1.993c0.648,0.347,1.334,0.633,2.05,0.851l1.557,4.377c0.571,0.064,1.148,0.104,1.737,0.104c0.588,0,1.165-0.04,1.736-0.104l1.558-4.377c0.715-0.218,1.399-0.504,2.049-0.851l4.193,1.993c0.909-0.725,1.733-1.549,2.458-2.458l-1.993-4.193c0.347-0.647,0.633-1.334,0.851-2.049L31.229,17.736zM16,20.871c-2.69,0-4.872-2.182-4.872-4.871c0-2.69,2.182-4.872,4.872-4.872c2.689,0,4.871,2.182,4.871,4.872C20.871,18.689,18.689,20.871,16,20.871z"></path><title>Link options.</title></g></g></g></g><!--z-index:73--><g   id="j_28" ><path  stroke="#444444" d="M 3240 1649 L 2565 2009" id="v-333" stroke-width="2" stroke-dasharray="8 8" fill="none" style="opacity: 1;"></path><path  fill="black" stroke="black" d="M 0 0 0 0" transform="matrix(-0.8823528789936014,0.47058835188697895,-0.47058835188697895,-0.8823528789936014,3240,1649)"></path><path  fill="#444444" stroke="#444444" d="M 20 0 L 0 10 L 20 20 z" id="v-335" transform="matrix(0.8823530043188289,-0.4705881169021767,0.4705881169021767,0.8823530043188289,2560.294075115915,2000.1764185086458)" style="opacity: 1;"></path><path  d="M 3240 1649 L 2565 2009" id="v-334" fill="none" style="cursor: auto; pointer-events: visiblepainted;"></path><g ><g id="v-327"  label-idx="0" cursor="move" transform="matrix(1,0,0,1,2902.5,1829)" style="cursor: default; opacity: 1;"><rect joint-selector="rect" id="v-330" fill="#ffffff" rx="3" ry="3" pointer-events="none" width="150.18255615234375" height="62.338218688964844" transform="matrix(1,0,0,1,-74.6,-31.2)"></rect><text joint-selector="text" id="v-329" font-size="24px" xml:space="preserve" y="0.8em" fill="#444444" text-anchor="middle" pointer-events="none" font-family="Open Sans, Tahoma, Arial" font-weight="normal" transform="matrix(1,0,0,1,0,-24)"><tspan dy="0" >[track patient</tspan><tspan dy="1.2em" x="0" >flow]</tspan></text></g><g id="v-328"  label-idx="1" cursor="move" transform="matrix(1,0,0,1,2892.5,1855.4000244140625)" style="cursor: default; opacity: 1;"><rect joint-selector="rect" id="v-332" fill="#ffffff" rx="3" ry="3"  width="0" height="0" transform="matrix(1,0,0,1,0,0)" display="none"></rect><text joint-selector="text" id="v-331" fill="#000000" font-size="14" text-anchor="middle" pointer-events="none"></text></g></g><g  display="none" style="display: none;"></g><g  id="v-337" display="none"><g  id="v-325"><path  end="source" d="M 26 0 L 0 13 L 26 26 z"></path></g><g  id="v-326"><path  end="target" d="M 26 0 L 0 13 L 26 26 z"></path></g></g><g  id="v-336" display="none"><g  id="v-324" transform="translate(3204.705882352941, 1667.8235294117649) "><g  event="remove"><circle r="11"></circle><path transform="scale(.8) translate(-16, -16)" d="M24.778,21.419 19.276,15.917 24.777,10.415 21.949,7.585 16.447,13.087 10.945,7.585 8.117,10.415 13.618,15.917 8.116,21.419 10.946,24.248 16.447,18.746 21.948,24.248z"></path><title>Remove link.</title></g><g  event="link:options"><circle r="11" transform="translate(25)"></circle><path fill="white" transform="scale(.55) translate(29, -16)" d="M31.229,17.736c0.064-0.571,0.104-1.148,0.104-1.736s-0.04-1.166-0.104-1.737l-4.377-1.557c-0.218-0.716-0.504-1.401-0.851-2.05l1.993-4.192c-0.725-0.91-1.549-1.734-2.458-2.459l-4.193,1.994c-0.647-0.347-1.334-0.632-2.049-0.849l-1.558-4.378C17.165,0.708,16.588,0.667,16,0.667s-1.166,0.041-1.737,0.105L12.707,5.15c-0.716,0.217-1.401,0.502-2.05,0.849L6.464,4.005C5.554,4.73,4.73,5.554,4.005,6.464l1.994,4.192c-0.347,0.648-0.632,1.334-0.849,2.05l-4.378,1.557C0.708,14.834,0.667,15.412,0.667,16s0.041,1.165,0.105,1.736l4.378,1.558c0.217,0.715,0.502,1.401,0.849,2.049l-1.994,4.193c0.725,0.909,1.549,1.733,2.459,2.458l4.192-1.993c0.648,0.347,1.334,0.633,2.05,0.851l1.557,4.377c0.571,0.064,1.148,0.104,1.737,0.104c0.588,0,1.165-0.04,1.736-0.104l1.558-4.377c0.715-0.218,1.399-0.504,2.049-0.851l4.193,1.993c0.909-0.725,1.733-1.549,2.458-2.458l-1.993-4.193c0.347-0.647,0.633-1.334,0.851-2.049L31.229,17.736zM16,20.871c-2.69,0-4.872-2.182-4.872-4.871c0-2.69,2.182-4.872,4.872-4.872c2.689,0,4.871,2.182,4.871,4.872C20.871,18.689,18.689,20.871,16,20.871z"></path><title>Link options.</title></g></g></g></g><!--z-index:74--><g   id="j_29" ><path  stroke="#444444" d="M 4406 1679 L 4787 1979" id="v-350" stroke-width="2" stroke-dasharray="8 8" fill="none" style="opacity: 1;"></path><path  fill="black" stroke="black" d="M 0 0 0 0" transform="matrix(0.785673918787932,0.6186408435727583,-0.6186408435727583,0.785673918787932,4405.5,1679)"></path><path  fill="#444444" stroke="#444444" d="M 20 0 L 0 10 L 20 20 z" id="v-352" transform="matrix(-0.7856739187879319,-0.6186408435727584,0.6186408435727584,-0.7856739187879319,4780.313397158402,1986.8567462564195)" style="opacity: 1;"></path><path  d="M 4406 1679 L 4787 1979" id="v-351" fill="none" style="cursor: auto; pointer-events: visiblepainted;"></path><g ><g id="v-344"  label-idx="0" cursor="move" transform="matrix(1,0,0,1,4596.5,1829)" style="cursor: default; opacity: 1;"><rect joint-selector="rect" id="v-347" fill="#ffffff" rx="3" ry="3" pointer-events="none" width="200.4956817626953" height="91.13821792602539" transform="matrix(1,0,0,1,-99.7,-45.6)"></rect><text joint-selector="text" id="v-346" font-size="24px" xml:space="preserve" y="0.8em" fill="#444444" text-anchor="middle" pointer-events="none" font-family="Open Sans, Tahoma, Arial" font-weight="normal" transform="matrix(1,0,0,1,0,-38.4)"><tspan dy="0" >[Process payment</tspan><tspan dy="1.2em" x="0" >notification</tspan><tspan dy="1.2em" x="0" >(Twilio)]</tspan></text></g><g id="v-345"  label-idx="1" cursor="move" transform="matrix(1,0,0,1,4586.5,1869.800048828125)" style="cursor: default; opacity: 1;"><rect joint-selector="rect" id="v-349" fill="#ffffff" rx="3" ry="3"  width="0" height="0" transform="matrix(1,0,0,1,0,0)" display="none"></rect><text joint-selector="text" id="v-348" fill="#000000" font-size="14" text-anchor="middle" pointer-events="none"></text></g></g><g  display="none" style="display: none;"></g><g  id="v-354" display="none"><g  id="v-342"><path  end="source" d="M 26 0 L 0 13 L 26 26 z"></path></g><g  id="v-343"><path  end="target" d="M 26 0 L 0 13 L 26 26 z"></path></g></g><g  id="v-353" display="none"><g  id="v-341" transform="translate(4437.426956025113, 1703.7456346654435) "><g  event="remove"><circle r="11"></circle><path transform="scale(.8) translate(-16, -16)" d="M24.778,21.419 19.276,15.917 24.777,10.415 21.949,7.585 16.447,13.087 10.945,7.585 8.117,10.415 13.618,15.917 8.116,21.419 10.946,24.248 16.447,18.746 21.948,24.248z"></path><title>Remove link.</title></g><g  event="link:options"><circle r="11" transform="translate(25)"></circle><path fill="white" transform="scale(.55) translate(29, -16)" d="M31.229,17.736c0.064-0.571,0.104-1.148,0.104-1.736s-0.04-1.166-0.104-1.737l-4.377-1.557c-0.218-0.716-0.504-1.401-0.851-2.05l1.993-4.192c-0.725-0.91-1.549-1.734-2.458-2.459l-4.193,1.994c-0.647-0.347-1.334-0.632-2.049-0.849l-1.558-4.378C17.165,0.708,16.588,0.667,16,0.667s-1.166,0.041-1.737,0.105L12.707,5.15c-0.716,0.217-1.401,0.502-2.05,0.849L6.464,4.005C5.554,4.73,4.73,5.554,4.005,6.464l1.994,4.192c-0.347,0.648-0.632,1.334-0.849,2.05l-4.378,1.557C0.708,14.834,0.667,15.412,0.667,16s0.041,1.165,0.105,1.736l4.378,1.558c0.217,0.715,0.502,1.401,0.849,2.049l-1.994,4.193c0.725,0.909,1.549,1.733,2.459,2.458l4.192-1.993c0.648,0.347,1.334,0.633,2.05,0.851l1.557,4.377c0.571,0.064,1.148,0.104,1.737,0.104c0.588,0,1.165-0.04,1.736-0.104l1.558-4.377c0.715-0.218,1.399-0.504,2.049-0.851l4.193,1.993c0.909-0.725,1.733-1.549,2.458-2.458l-1.993-4.193c0.347-0.647,0.633-1.334,0.851-2.049L31.229,17.736zM16,20.871c-2.69,0-4.872-2.182-4.872-4.871c0-2.69,2.182-4.872,4.872-4.872c2.689,0,4.871,2.182,4.871,4.872C20.871,18.689,18.689,20.871,16,20.871z"></path><title>Link options.</title></g></g></g></g><!--z-index:75--><g   id="j_30" ><path  stroke="#444444" d="M 2340 2279 L 2340 2579" id="v-367" stroke-width="2" stroke-dasharray="8 8" fill="none" style="opacity: 1;"></path><path  fill="black" stroke="black" d="M 0 0 0 0" transform="matrix(6.123233995736766e-17,1,-1,6.123233995736766e-17,2340,2279)"></path><path  fill="#444444" stroke="#444444" d="M 20 0 L 0 10 L 20 20 z" id="v-369" transform="matrix(-1.8369701987210297e-16,-1,1,-1.8369701987210297e-16,2330,2579)" style="opacity: 1;"></path><path  d="M 2340 2279 L 2340 2579" id="v-368" fill="none" style="cursor: auto; pointer-events: visiblepainted;"></path><g ><g id="v-361"  label-idx="0" cursor="move" transform="matrix(1,0,0,1,2340,2429)" style="cursor: default; opacity: 1;"><rect joint-selector="rect" id="v-364" fill="#ffffff" rx="3" ry="3" pointer-events="none" width="188.31558227539062" height="33.53821563720703" transform="matrix(1,0,0,1,-94.2,-16.8)"></rect><text joint-selector="text" id="v-363" font-size="24px" xml:space="preserve" y="0.8em" fill="#444444" text-anchor="middle" pointer-events="none" font-family="Open Sans, Tahoma, Arial" font-weight="normal" transform="matrix(1,0,0,1,0,-9.6)"><tspan dy="0" >[read/write data]</tspan></text></g><g id="v-362"  label-idx="1" cursor="move" transform="matrix(1,0,0,1,2330,2441)" style="cursor: default; opacity: 1;"><rect joint-selector="rect" id="v-366" fill="#ffffff" rx="3" ry="3"  width="0" height="0" transform="matrix(1,0,0,1,0,0)" display="none"></rect><text joint-selector="text" id="v-365" fill="#000000" font-size="14" text-anchor="middle" pointer-events="none"></text></g></g><g  display="none" style="display: none;"></g><g  id="v-371" display="none"><g  id="v-359"><path  end="source" d="M 26 0 L 0 13 L 26 26 z"></path></g><g  id="v-360"><path  end="target" d="M 26 0 L 0 13 L 26 26 z"></path></g></g><g  id="v-370" display="none"><g  id="v-358" transform="translate(2340, 2319) "><g  event="remove"><circle r="11"></circle><path transform="scale(.8) translate(-16, -16)" d="M24.778,21.419 19.276,15.917 24.777,10.415 21.949,7.585 16.447,13.087 10.945,7.585 8.117,10.415 13.618,15.917 8.116,21.419 10.946,24.248 16.447,18.746 21.948,24.248z"></path><title>Remove link.</title></g><g  event="link:options"><circle r="11" transform="translate(25)"></circle><path fill="white" transform="scale(.55) translate(29, -16)" d="M31.229,17.736c0.064-0.571,0.104-1.148,0.104-1.736s-0.04-1.166-0.104-1.737l-4.377-1.557c-0.218-0.716-0.504-1.401-0.851-2.05l1.993-4.192c-0.725-0.91-1.549-1.734-2.458-2.459l-4.193,1.994c-0.647-0.347-1.334-0.632-2.049-0.849l-1.558-4.378C17.165,0.708,16.588,0.667,16,0.667s-1.166,0.041-1.737,0.105L12.707,5.15c-0.716,0.217-1.401,0.502-2.05,0.849L6.464,4.005C5.554,4.73,4.73,5.554,4.005,6.464l1.994,4.192c-0.347,0.648-0.632,1.334-0.849,2.05l-4.378,1.557C0.708,14.834,0.667,15.412,0.667,16s0.041,1.165,0.105,1.736l4.378,1.558c0.217,0.715,0.502,1.401,0.849,2.049l-1.994,4.193c0.725,0.909,1.549,1.733,2.459,2.458l4.192-1.993c0.648,0.347,1.334,0.633,2.05,0.851l1.557,4.377c0.571,0.064,1.148,0.104,1.737,0.104c0.588,0,1.165-0.04,1.736-0.104l1.558-4.377c0.715-0.218,1.399-0.504,2.049-0.851l4.193,1.993c0.909-0.725,1.733-1.549,2.458-2.458l-1.993-4.193c0.347-0.647,0.633-1.334,0.851-2.049L31.229,17.736zM16,20.871c-2.69,0-4.872-2.182-4.872-4.871c0-2.69,2.182-4.872,4.872-4.872c2.689,0,4.871,2.182,4.871,4.872C20.871,18.689,18.689,20.871,16,20.871z"></path><title>Link options.</title></g></g></g></g><!--z-index:76--></g><g ></g><g ></g><g ></g></g></svg>