<svg xmlns="http://www.w3.org/2000/svg" xmlns:xlink="http://www.w3.org/1999/xlink" version="1.1" viewBox="0 0 3380 2648" style="background: #ffffff"><defs joint-selector="defs"></defs><g joint-selector="layers"  transform="matrix(1,0,0,1,0,0)"><g ></g><g ><!--z-index:1--><!--z-index:2--><!--z-index:3--><!--z-index:4--><!--z-index:5--><!--z-index:6--><!--z-index:7--><!--z-index:8--><!--z-index:9--><!--z-index:10--><!--z-index:11--><!--z-index:12--><!--z-index:13--><!--z-index:14--><!--z-index:15--><!--z-index:16--><!--z-index:17--><!--z-index:18--><!--z-index:19--><!--z-index:20--><!--z-index:21--><!--z-index:22--><!--z-index:23--><!--z-index:24--><!--z-index:25--><!--z-index:26--><!--z-index:27--><!--z-index:28--><!--z-index:29--><!--z-index:30--><!--z-index:31--><!--z-index:32--><!--z-index:33--><!--z-index:34--><!--z-index:35--><!--z-index:36--><!--z-index:37--><!--z-index:38--><!--z-index:39--><!--z-index:40--><g   id="j_91"  transform="translate(20,2604)"><g id="v-1121"><text  id="v-1122" font-size="24px" xml:space="preserve" y="0.8em" font-weight="normal" text-anchor="start" fill="#444444" pointer-events="none" display="block" font-family="Open Sans, Tahoma, Arial"><tspan dy="0"  display="block">sábado, 25 de abril de 2026, 11:27 hora estándar de Perú</tspan></text></g></g><!--z-index:41--><g   id="j_90"  transform="translate(20,2558)"><g id="v-1119"><text  id="v-1120" font-size="36px" xml:space="preserve" y="0.8em" font-weight="normal" text-anchor="start" fill="#444444" pointer-events="none" display="block" font-family="Open Sans, Tahoma, Arial"><tspan dy="0"  display="block">Component View: VITALIA SAAS - PHARMACY &amp; ORDERS CONTEXT</tspan></text></g></g><!--z-index:42--><g   id="j_93"  transform="translate(385,145)" style=""><g id="v-1136"><rect  id="v-1137" width="2815" height="2324" rx="20" ry="20" stroke-width="2" pointer-events="none" stroke="#1d8a8e" fill="#ffffff" stroke-dasharray=""></rect><text  id="v-1138" font-size="33.599999999999994px" xml:space="preserve" y="2285" font-weight="bold" text-anchor="start" pointer-events="visible" font-family="Open Sans, Tahoma, Arial" fill="#1168bd" transform="matrix(1,0,0,1,15,0)"><tspan dy="0" >VITALIA SAAS</tspan></text><text  id="v-1139" font-size="16.799999999999997px" xml:space="preserve" y="2309" font-weight="normal" text-anchor="start" pointer-events="visible" font-family="Open Sans, Tahoma, Arial" fill="#1168bd" transform="matrix(1,0,0,1,15,0)"><tspan dy="0" >[Software System]</tspan></text><image  id="v-1140" pointer-events="visible"></image></g></g><!--z-index:43--><g   id="j_92"  transform="translate(1525,165)" style=""><g  id="v-1129" style="opacity: 1;"><rect  id="v-1130" rx="20" ry="20" stroke-width="2" pointer-events="visiblePainted" fill="#1a1f1f" stroke="#171c1c" stroke-dasharray="" width="450" height="300"></rect><text  id="v-1131" font-size="33.599999999999994px" xml:space="preserve" y="101.30000000000001" font-weight="bold" text-anchor="middle" pointer-events="visible" font-family="Open Sans, Tahoma, Arial" fill="#ffffff" dominant-baseline="hanging" transform="matrix(1,0,0,1,225,0)"><tspan dy="0" >PHARMACY &amp; ORDERS</tspan></text><text  id="v-1132" font-size="16.799999999999997px" xml:space="preserve" y="142.9" text-anchor="middle" font-family="Open Sans, Tahoma, Arial" fill="#ffffff" dominant-baseline="hanging" transform="matrix(1,0,0,1,225,0)" style="display: block;"><tspan dy="0" >[Container: Node.Js / Python]</tspan></text><text  id="v-1133" font-size="24px" xml:space="preserve" y="174.7" text-anchor="middle" font-family="Open Sans, Tahoma, Arial" fill="#ffffff" dominant-baseline="hanging" transform="matrix(1,0,0,1,225,0)" style="display: block;"><tspan dy="0" >Gestión de botica y órdenes de lab</tspan></text><g  id="v-1134" color="#ffffff" transform="matrix(1,0,0,1,222.5,268)" display="none"><g ></g><g ></g><g ></g><g ></g></g><image  id="v-1135"></image></g></g><!--z-index:44--><g   id="j_95"  transform="translate(405,615)" style=""><g id="v-1148"><rect  id="v-1149" width="2775" height="1379" rx="20" ry="20" stroke-width="2" pointer-events="none" stroke="#171c1c" fill="#ffffff" stroke-dasharray=""></rect><text  id="v-1150" font-size="33.599999999999994px" xml:space="preserve" y="1340" font-weight="bold" text-anchor="start" pointer-events="visible" font-family="Open Sans, Tahoma, Arial" fill="#438dd5" transform="matrix(1,0,0,1,15,0)"><tspan dy="0" >PHARMACY &amp; ORDERS CONTEXT</tspan></text><text  id="v-1151" font-size="16.799999999999997px" xml:space="preserve" y="1364" font-weight="normal" text-anchor="start" pointer-events="visible" font-family="Open Sans, Tahoma, Arial" fill="#438dd5" transform="matrix(1,0,0,1,15,0)"><tspan dy="0" >[Container]</tspan></text><image  id="v-1152" pointer-events="visible"></image></g></g><!--z-index:45--><g   id="j_102"  transform="translate(1485,2070)" style=""><g  id="v-1219" style="opacity: 1;"><path  d="M 0,30 a 225,30 0,0,0 450 0 a 225,30 0,0,0 -450 0 l 0,240 a 225,30 0,0,0 450 0 l 0,-240" id="v-1220" stroke-width="2" pointer-events="visiblePainted" fill="#c77646" stroke="#b36a3f" stroke-dasharray=""></path><rect  id="v-1221" stroke-width="0" pointer-events="visiblePainted" fill="none" stroke="none" width="450" height="270" x="0" y="30"></rect><text  id="v-1222" font-size="33.599999999999994px" xml:space="preserve" y="116.30000000000001" font-weight="bold" text-anchor="middle" pointer-events="visible" font-family="Open Sans, Tahoma, Arial" fill="#ffffff" dominant-baseline="hanging" transform="matrix(1,0,0,1,225,0)"><tspan dy="0" >DATABASE</tspan></text><text  id="v-1223" font-size="16.799999999999997px" xml:space="preserve" y="157.9" text-anchor="middle" font-family="Open Sans, Tahoma, Arial" fill="#ffffff" dominant-baseline="hanging" transform="matrix(1,0,0,1,225,0)" style="display: block;"><tspan dy="0" >[Container: MySQL]</tspan></text><text  id="v-1224" font-size="24px" xml:space="preserve" y="189.7" text-anchor="middle" font-family="Open Sans, Tahoma, Arial" fill="#ffffff" dominant-baseline="hanging" transform="matrix(1,0,0,1,225,0)" style="display: block;"><tspan dy="0" >Base de datos de Vitalia</tspan></text><g  id="v-1225" font-weight="normal" text-anchor="middle" color="#ffffff" transform="matrix(1,0,0,1,222.5,268)" display="none"><g ></g><g ></g><g ></g><g ></g></g><image  id="v-1226"></image></g></g><!--z-index:46--><g   id="j_94"  transform="translate(1535,635)" style=""><g  id="v-1141" style="opacity: 1;"><rect  id="v-1142" rx="20" ry="20" stroke-width="2" pointer-events="visiblePainted" fill="#a6cf58" stroke="#95ba4f" stroke-dasharray="" width="450" height="300"></rect><text  id="v-1143" font-size="33.599999999999994px" xml:space="preserve" y="101.30000000000001" font-weight="bold" text-anchor="middle" pointer-events="visible" font-family="Open Sans, Tahoma, Arial" fill="#121212" dominant-baseline="hanging" transform="matrix(1,0,0,1,225,0)"><tspan dy="0" >CONTROLLER</tspan></text><text  id="v-1144" font-size="16.799999999999997px" xml:space="preserve" y="142.9" text-anchor="middle" font-family="Open Sans, Tahoma, Arial" fill="#121212" dominant-baseline="hanging" transform="matrix(1,0,0,1,225,0)" style="display: block;"><tspan dy="0" >[Component: Node.js (NestJS)]</tspan></text><text  id="v-1145" font-size="24px" xml:space="preserve" y="174.7" text-anchor="middle" font-family="Open Sans, Tahoma, Arial" fill="#121212" dominant-baseline="hanging" transform="matrix(1,0,0,1,225,0)" style="display: block;"><tspan dy="0" >Expone endpoints REST</tspan></text><g  id="v-1146" color="#121212" transform="matrix(1,0,0,1,222.5,268)" display="none"><g ></g><g ></g><g ></g><g ></g></g><image  id="v-1147"></image></g></g><!--z-index:47--><g   id="j_96"  transform="translate(1580,1040)" style=""><g  id="v-1159" style="opacity: 1;"><rect  id="v-1160" rx="20" ry="20" stroke-width="2" pointer-events="visiblePainted" fill="#a6cf58" stroke="#95ba4f" stroke-dasharray="" width="450" height="300"></rect><text  id="v-1161" font-size="33.599999999999994px" xml:space="preserve" y="81.14000000000001" font-weight="bold" text-anchor="middle" pointer-events="visible" font-family="Open Sans, Tahoma, Arial" fill="#121212" dominant-baseline="hanging" transform="matrix(1,0,0,1,225,0)"><tspan dy="0" >INVENTORY</tspan><tspan dy="1.2em" x="0" >MANAGEMENT</tspan></text><text  id="v-1162" font-size="16.799999999999997px" xml:space="preserve" y="163.06" text-anchor="middle" font-family="Open Sans, Tahoma, Arial" fill="#121212" dominant-baseline="hanging" transform="matrix(1,0,0,1,225,0)" style="display: block;"><tspan dy="0" >[Component: Node.js (NestJS)]</tspan></text><text  id="v-1163" font-size="24px" xml:space="preserve" y="194.86" text-anchor="middle" font-family="Open Sans, Tahoma, Arial" fill="#121212" dominant-baseline="hanging" transform="matrix(1,0,0,1,225,0)" style="display: block;"><tspan dy="0" >Control de stock de medicamentos</tspan></text><g  id="v-1164" color="#121212" transform="matrix(1,0,0,1,222.5,268)" display="none"><g ></g><g ></g><g ></g><g ></g></g><image  id="v-1165"></image></g></g><!--z-index:48--><g   id="j_97"  transform="translate(2710,1035)" style=""><g  id="v-1166" style="opacity: 1;"><rect  id="v-1167" rx="20" ry="20" stroke-width="2" pointer-events="visiblePainted" fill="#a6cf58" stroke="#95ba4f" stroke-dasharray="" width="450" height="300"></rect><text  id="v-1168" font-size="33.599999999999994px" xml:space="preserve" y="101.30000000000001" font-weight="bold" text-anchor="middle" pointer-events="visible" font-family="Open Sans, Tahoma, Arial" fill="#121212" dominant-baseline="hanging" transform="matrix(1,0,0,1,225,0)"><tspan dy="0" >DISPENSATION</tspan></text><text  id="v-1169" font-size="16.799999999999997px" xml:space="preserve" y="142.9" text-anchor="middle" font-family="Open Sans, Tahoma, Arial" fill="#121212" dominant-baseline="hanging" transform="matrix(1,0,0,1,225,0)" style="display: block;"><tspan dy="0" >[Component: Node.js (NestJS)]</tspan></text><text  id="v-1170" font-size="24px" xml:space="preserve" y="174.7" text-anchor="middle" font-family="Open Sans, Tahoma, Arial" fill="#121212" dominant-baseline="hanging" transform="matrix(1,0,0,1,225,0)" style="display: block;"><tspan dy="0" >Entrega de medicinas</tspan></text><g  id="v-1171" color="#121212" transform="matrix(1,0,0,1,222.5,268)" display="none"><g ></g><g ></g><g ></g><g ></g></g><image  id="v-1172"></image></g></g><!--z-index:49--><g   id="j_98"  transform="translate(2135,1045)" style=""><g  id="v-1179" style="opacity: 1;"><rect  id="v-1180" rx="20" ry="20" stroke-width="2" pointer-events="visiblePainted" fill="#a6cf58" stroke="#95ba4f" stroke-dasharray="" width="450" height="300"></rect><text  id="v-1181" font-size="33.599999999999994px" xml:space="preserve" y="86.9" font-weight="bold" text-anchor="middle" pointer-events="visible" font-family="Open Sans, Tahoma, Arial" fill="#121212" dominant-baseline="hanging" transform="matrix(1,0,0,1,225,0)"><tspan dy="0" >ORDERS MANAGEMENT</tspan></text><text  id="v-1182" font-size="16.799999999999997px" xml:space="preserve" y="128.5" text-anchor="middle" font-family="Open Sans, Tahoma, Arial" fill="#121212" dominant-baseline="hanging" transform="matrix(1,0,0,1,225,0)" style="display: block;"><tspan dy="0" >[Component: Node.js (NestJS)]</tspan></text><text  id="v-1183" font-size="24px" xml:space="preserve" y="160.3" text-anchor="middle" font-family="Open Sans, Tahoma, Arial" fill="#121212" dominant-baseline="hanging" transform="matrix(1,0,0,1,225,0)" style="display: block;"><tspan dy="0" >Gestión de órdenes y resultados</tspan><tspan dy="1.2em" x="0" >de lab</tspan></text><g  id="v-1184" color="#121212" transform="matrix(1,0,0,1,222.5,268)" display="none"><g ></g><g ></g><g ></g><g ></g></g><image  id="v-1185"></image></g></g><!--z-index:50--><g   id="j_99"  transform="translate(425,1020)" style=""><g  id="v-1189" style="opacity: 1;"><rect  id="v-1190" rx="20" ry="20" stroke-width="2" pointer-events="visiblePainted" fill="#a6cf58" stroke="#95ba4f" stroke-dasharray="" width="450" height="300"></rect><text  id="v-1191" font-size="33.599999999999994px" xml:space="preserve" y="101.30000000000001" font-weight="bold" text-anchor="middle" pointer-events="visible" font-family="Open Sans, Tahoma, Arial" fill="#121212" dominant-baseline="hanging" transform="matrix(1,0,0,1,225,0)"><tspan dy="0" >CART MANAGEMENT</tspan></text><text  id="v-1192" font-size="16.799999999999997px" xml:space="preserve" y="142.9" text-anchor="middle" font-family="Open Sans, Tahoma, Arial" fill="#121212" dominant-baseline="hanging" transform="matrix(1,0,0,1,225,0)" style="display: block;"><tspan dy="0" >[Component: Node.js (NestJS)]</tspan></text><text  id="v-1193" font-size="24px" xml:space="preserve" y="174.7" text-anchor="middle" font-family="Open Sans, Tahoma, Arial" fill="#121212" dominant-baseline="hanging" transform="matrix(1,0,0,1,225,0)" style="display: block;"><tspan dy="0" >Gestión del carrito de compra</tspan></text><g  id="v-1194" color="#121212" transform="matrix(1,0,0,1,222.5,268)" display="none"><g ></g><g ></g><g ></g><g ></g></g><image  id="v-1195"></image></g></g><!--z-index:51--><g   id="j_100"  transform="translate(1045,1040)" style=""><g  id="v-1202" style="opacity: 1;"><rect  id="v-1203" rx="20" ry="20" stroke-width="2" pointer-events="visiblePainted" fill="#a6cf58" stroke="#95ba4f" stroke-dasharray="" width="450" height="300"></rect><text  id="v-1204" font-size="33.599999999999994px" xml:space="preserve" y="86.9" font-weight="bold" text-anchor="middle" pointer-events="visible" font-family="Open Sans, Tahoma, Arial" fill="#121212" dominant-baseline="hanging" transform="matrix(1,0,0,1,225,0)"><tspan dy="0" >STOCK VALIDATION</tspan></text><text  id="v-1205" font-size="16.799999999999997px" xml:space="preserve" y="128.5" text-anchor="middle" font-family="Open Sans, Tahoma, Arial" fill="#121212" dominant-baseline="hanging" transform="matrix(1,0,0,1,225,0)" style="display: block;"><tspan dy="0" >[Component: Node.js (NestJS)]</tspan></text><text  id="v-1206" font-size="24px" xml:space="preserve" y="160.3" text-anchor="middle" font-family="Open Sans, Tahoma, Arial" fill="#121212" dominant-baseline="hanging" transform="matrix(1,0,0,1,225,0)" style="display: block;"><tspan dy="0" >Validación de disponibilidad de</tspan><tspan dy="1.2em" x="0" >stock</tspan></text><g  id="v-1207" color="#121212" transform="matrix(1,0,0,1,222.5,268)" display="none"><g ></g><g ></g><g ></g><g ></g></g><image  id="v-1208"></image></g></g><!--z-index:52--><g   id="j_101"  transform="translate(1465,1595)" style=""><g  id="v-1209" style="opacity: 1;"><rect  id="v-1210" rx="20" ry="20" stroke-width="2" pointer-events="visiblePainted" fill="#a6cf58" stroke="#95ba4f" stroke-dasharray="" width="450" height="300"></rect><text  id="v-1211" font-size="33.599999999999994px" xml:space="preserve" y="101.30000000000001" font-weight="bold" text-anchor="middle" pointer-events="visible" font-family="Open Sans, Tahoma, Arial" fill="#121212" dominant-baseline="hanging" transform="matrix(1,0,0,1,225,0)"><tspan dy="0" >DB CONECTOR</tspan></text><text  id="v-1212" font-size="16.799999999999997px" xml:space="preserve" y="142.9" text-anchor="middle" font-family="Open Sans, Tahoma, Arial" fill="#121212" dominant-baseline="hanging" transform="matrix(1,0,0,1,225,0)" style="display: block;"><tspan dy="0" >[Component: Node.js]</tspan></text><text  id="v-1213" font-size="24px" xml:space="preserve" y="174.7" text-anchor="middle" font-family="Open Sans, Tahoma, Arial" fill="#121212" dominant-baseline="hanging" transform="matrix(1,0,0,1,225,0)" style="display: block;"><tspan dy="0" >Acceso a datos</tspan></text><g  id="v-1214" color="#121212" transform="matrix(1,0,0,1,222.5,268)" display="none"><g ></g><g ></g><g ></g><g ></g></g><image  id="v-1215"></image></g></g><!--z-index:53--><g   id="j_103" ><path  stroke="#444444" d="M 1753 465 L 1757 635" id="v-1236" stroke-width="2" stroke-dasharray="8 8" fill="none" style="opacity: 1;"></path><path  fill="black" stroke="black" d="M 0 0 0 0" transform="matrix(0.021289299149378525,0.9997733571873818,-0.9997733571873818,0.021289299149378525,1753.18994140625,465)"></path><path  fill="#444444" stroke="#444444" d="M 20 0 L 0 10 L 20 20 z" id="v-1238" transform="matrix(-0.021289299149378202,-0.9997733571873818,0.9997733571873818,-0.021289299149378202,1746.81232738837,635.212884864149)" style="opacity: 1;"></path><path  d="M 1753 465 L 1757 635" id="v-1237" fill="none" style="cursor: auto; pointer-events: visiblepainted;"></path><g ><g id="v-1230"  label-idx="0" cursor="move" transform="matrix(1,0,0,1,1755,550)" style="cursor: default; opacity: 1;"><rect joint-selector="rect" id="v-1233" fill="#ffffff" rx="3" ry="3" pointer-events="none" width="55.32197570800781" height="33.54258728027344" transform="matrix(1,0,0,1,-27.7,-16.8)"></rect><text joint-selector="text" id="v-1232" font-size="24px" xml:space="preserve" y="0.8em" fill="#444444" text-anchor="middle" pointer-events="none" font-family="Open Sans, Tahoma, Arial" font-weight="normal" transform="matrix(1,0,0,1,0,-9.9)"><tspan dy="0" >[use]</tspan></text></g><g id="v-1231"  label-idx="1" cursor="move" transform="matrix(1,0,0,1,1745,562)" style="cursor: default; opacity: 1;"><rect joint-selector="rect" id="v-1235" fill="#ffffff" rx="3" ry="3"  width="0" height="0" transform="matrix(1,0,0,1,0,0)" display="none"></rect><text joint-selector="text" id="v-1234" fill="#000000" font-size="14" text-anchor="middle" pointer-events="none"></text></g></g><g  display="none" style="display: none;"></g><g  id="v-1240" display="none"><g  id="v-1228"><path  end="source" d="M 26 0 L 0 13 L 26 26 z"></path></g><g  id="v-1229"><path  end="target" d="M 26 0 L 0 13 L 26 26 z"></path></g></g><g  id="v-1239" display="none"><g  id="v-1227" transform="translate(1753.940916045439, 504.9889319311661) "><g  event="remove"><circle r="11"></circle><path transform="scale(.8) translate(-16, -16)" d="M24.778,21.419 19.276,15.917 24.777,10.415 21.949,7.585 16.447,13.087 10.945,7.585 8.117,10.415 13.618,15.917 8.116,21.419 10.946,24.248 16.447,18.746 21.948,24.248z"></path><title>Remove link.</title></g><g  event="link:options"><circle r="11" transform="translate(25)"></circle><path fill="white" transform="scale(.55) translate(29, -16)" d="M31.229,17.736c0.064-0.571,0.104-1.148,0.104-1.736s-0.04-1.166-0.104-1.737l-4.377-1.557c-0.218-0.716-0.504-1.401-0.851-2.05l1.993-4.192c-0.725-0.91-1.549-1.734-2.458-2.459l-4.193,1.994c-0.647-0.347-1.334-0.632-2.049-0.849l-1.558-4.378C17.165,0.708,16.588,0.667,16,0.667s-1.166,0.041-1.737,0.105L12.707,5.15c-0.716,0.217-1.401,0.502-2.05,0.849L6.464,4.005C5.554,4.73,4.73,5.554,4.005,6.464l1.994,4.192c-0.347,0.648-0.632,1.334-0.849,2.05l-4.378,1.557C0.708,14.834,0.667,15.412,0.667,16s0.041,1.165,0.105,1.736l4.378,1.558c0.217,0.715,0.502,1.401,0.849,2.049l-1.994,4.193c0.725,0.909,1.549,1.733,2.459,2.458l4.192-1.993c0.648,0.347,1.334,0.633,2.05,0.851l1.557,4.377c0.571,0.064,1.148,0.104,1.737,0.104c0.588,0,1.165-0.04,1.736-0.104l1.558-4.377c0.715-0.218,1.399-0.504,2.049-0.851l4.193,1.993c0.909-0.725,1.733-1.549,2.458-2.458l-1.993-4.193c0.347-0.647,0.633-1.334,0.851-2.049L31.229,17.736zM16,20.871c-2.69,0-4.872-2.182-4.872-4.871c0-2.69,2.182-4.872,4.872-4.872c2.689,0,4.871,2.182,4.871,4.872C20.871,18.689,18.689,20.871,16,20.871z"></path><title>Link options.</title></g></g></g></g><!--z-index:54--><g   id="j_104" ><path  stroke="#444444" d="M 1777 935 L 1788 1040" id="v-1250" stroke-width="2" stroke-dasharray="8 8" fill="none" style="opacity: 1;"></path><path  fill="black" stroke="black" d="M 0 0 0 0" transform="matrix(0.11036924329142973,0.9938906530072998,-0.9938906530072998,0.11036924329142973,1776.6700439453125,935)"></path><path  fill="#444444" stroke="#444444" d="M 20 0 L 0 10 L 20 20 z" id="v-1252" transform="matrix(-0.11036937563597427,-0.9938906383107374,0.9938906383107374,-0.11036937563597427,1778.3911057326275,1041.1036352957174)" style="opacity: 1;"></path><path  d="M 1777 935 L 1788 1040" id="v-1251" fill="none" style="cursor: auto; pointer-events: visiblepainted;"></path><g ><g id="v-1244"  label-idx="0" cursor="move" transform="matrix(1,0,0,1,1782.5,987.5)" style="cursor: default; opacity: 1;"><rect joint-selector="rect" id="v-1247" fill="#ffffff" rx="3" ry="3" pointer-events="none" width="55.32197570800781" height="33.54258728027344" transform="matrix(1,0,0,1,-27.7,-16.8)"></rect><text joint-selector="text" id="v-1246" font-size="24px" xml:space="preserve" y="0.8em" fill="#444444" text-anchor="middle" pointer-events="none" font-family="Open Sans, Tahoma, Arial" font-weight="normal" transform="matrix(1,0,0,1,0,-9.9)"><tspan dy="0" >[use]</tspan></text></g><g id="v-1245"  label-idx="1" cursor="move" transform="matrix(1,0,0,1,1772.5,999.5)" style="cursor: default; opacity: 1;"><rect joint-selector="rect" id="v-1249" fill="#ffffff" rx="3" ry="3"  width="0" height="0" transform="matrix(1,0,0,1,0,0)" display="none"></rect><text joint-selector="text" id="v-1248" fill="#000000" font-size="14" text-anchor="middle" pointer-events="none"></text></g></g><g  display="none" style="display: none;"></g><g  id="v-1254" display="none"><g  id="v-1242"><path  end="source" d="M 26 0 L 0 13 L 26 26 z"></path></g><g  id="v-1243"><path  end="target" d="M 26 0 L 0 13 L 26 26 z"></path></g></g><g  id="v-1253" display="none"><g  id="v-1241" transform="translate(1781.167668400428, 974.7822892768136) "><g  event="remove"><circle r="11"></circle><path transform="scale(.8) translate(-16, -16)" d="M24.778,21.419 19.276,15.917 24.777,10.415 21.949,7.585 16.447,13.087 10.945,7.585 8.117,10.415 13.618,15.917 8.116,21.419 10.946,24.248 16.447,18.746 21.948,24.248z"></path><title>Remove link.</title></g><g  event="link:options"><circle r="11" transform="translate(25)"></circle><path fill="white" transform="scale(.55) translate(29, -16)" d="M31.229,17.736c0.064-0.571,0.104-1.148,0.104-1.736s-0.04-1.166-0.104-1.737l-4.377-1.557c-0.218-0.716-0.504-1.401-0.851-2.05l1.993-4.192c-0.725-0.91-1.549-1.734-2.458-2.459l-4.193,1.994c-0.647-0.347-1.334-0.632-2.049-0.849l-1.558-4.378C17.165,0.708,16.588,0.667,16,0.667s-1.166,0.041-1.737,0.105L12.707,5.15c-0.716,0.217-1.401,0.502-2.05,0.849L6.464,4.005C5.554,4.73,4.73,5.554,4.005,6.464l1.994,4.192c-0.347,0.648-0.632,1.334-0.849,2.05l-4.378,1.557C0.708,14.834,0.667,15.412,0.667,16s0.041,1.165,0.105,1.736l4.378,1.558c0.217,0.715,0.502,1.401,0.849,2.049l-1.994,4.193c0.725,0.909,1.549,1.733,2.459,2.458l4.192-1.993c0.648,0.347,1.334,0.633,2.05,0.851l1.557,4.377c0.571,0.064,1.148,0.104,1.737,0.104c0.588,0,1.165-0.04,1.736-0.104l1.558-4.377c0.715-0.218,1.399-0.504,2.049-0.851l4.193,1.993c0.909-0.725,1.733-1.549,2.458-2.458l-1.993-4.193c0.347-0.647,0.633-1.334,0.851-2.049L31.229,17.736zM16,20.871c-2.69,0-4.872-2.182-4.872-4.871c0-2.69,2.182-4.872,4.872-4.872c2.689,0,4.871,2.182,4.871,4.872C20.871,18.689,18.689,20.871,16,20.871z"></path><title>Link options.</title></g></g></g></g><!--z-index:55--><g   id="j_105" ><path  stroke="#444444" d="M 1985 862 L 2710 1108" id="v-1264" stroke-width="2" stroke-dasharray="8 8" fill="none" style="opacity: 1;"></path><path  fill="black" stroke="black" d="M 0 0 0 0" transform="matrix(0.946653298086272,0.3222538335262804,-0.3222538335262804,0.946653298086272,1985,861.5999755859375)"></path><path  fill="#444444" stroke="#444444" d="M 20 0 L 0 10 L 20 20 z" id="v-1266" transform="matrix(-0.9466532766309231,-0.32225389655353553,0.32225389655353553,-0.9466532766309231,2706.777441066399,1117.8665619662197)" style="opacity: 1;"></path><path  d="M 1985 862 L 2710 1108" id="v-1265" fill="none" style="cursor: auto; pointer-events: visiblepainted;"></path><g ><g id="v-1258"  label-idx="0" cursor="move" transform="matrix(1,0,0,1,2347.5,985)" style="cursor: default; opacity: 1;"><rect joint-selector="rect" id="v-1261" fill="#ffffff" rx="3" ry="3" pointer-events="none" width="55.32197570800781" height="33.54258728027344" transform="matrix(1,0,0,1,-27.7,-16.8)"></rect><text joint-selector="text" id="v-1260" font-size="24px" xml:space="preserve" y="0.8em" fill="#444444" text-anchor="middle" pointer-events="none" font-family="Open Sans, Tahoma, Arial" font-weight="normal" transform="matrix(1,0,0,1,0,-9.9)"><tspan dy="0" >[use]</tspan></text></g><g id="v-1259"  label-idx="1" cursor="move" transform="matrix(1,0,0,1,2337.5,997)" style="cursor: default; opacity: 1;"><rect joint-selector="rect" id="v-1263" fill="#ffffff" rx="3" ry="3"  width="0" height="0" transform="matrix(1,0,0,1,0,0)" display="none"></rect><text joint-selector="text" id="v-1262" fill="#000000" font-size="14" text-anchor="middle" pointer-events="none"></text></g></g><g  display="none" style="display: none;"></g><g  id="v-1268" display="none"><g  id="v-1256"><path  end="source" d="M 26 0 L 0 13 L 26 26 z"></path></g><g  id="v-1257"><path  end="target" d="M 26 0 L 0 13 L 26 26 z"></path></g></g><g  id="v-1267" display="none"><g  id="v-1255" transform="translate(2022.8788641350552, 874.8526904513428) "><g  event="remove"><circle r="11"></circle><path transform="scale(.8) translate(-16, -16)" d="M24.778,21.419 19.276,15.917 24.777,10.415 21.949,7.585 16.447,13.087 10.945,7.585 8.117,10.415 13.618,15.917 8.116,21.419 10.946,24.248 16.447,18.746 21.948,24.248z"></path><title>Remove link.</title></g><g  event="link:options"><circle r="11" transform="translate(25)"></circle><path fill="white" transform="scale(.55) translate(29, -16)" d="M31.229,17.736c0.064-0.571,0.104-1.148,0.104-1.736s-0.04-1.166-0.104-1.737l-4.377-1.557c-0.218-0.716-0.504-1.401-0.851-2.05l1.993-4.192c-0.725-0.91-1.549-1.734-2.458-2.459l-4.193,1.994c-0.647-0.347-1.334-0.632-2.049-0.849l-1.558-4.378C17.165,0.708,16.588,0.667,16,0.667s-1.166,0.041-1.737,0.105L12.707,5.15c-0.716,0.217-1.401,0.502-2.05,0.849L6.464,4.005C5.554,4.73,4.73,5.554,4.005,6.464l1.994,4.192c-0.347,0.648-0.632,1.334-0.849,2.05l-4.378,1.557C0.708,14.834,0.667,15.412,0.667,16s0.041,1.165,0.105,1.736l4.378,1.558c0.217,0.715,0.502,1.401,0.849,2.049l-1.994,4.193c0.725,0.909,1.549,1.733,2.459,2.458l4.192-1.993c0.648,0.347,1.334,0.633,2.05,0.851l1.557,4.377c0.571,0.064,1.148,0.104,1.737,0.104c0.588,0,1.165-0.04,1.736-0.104l1.558-4.377c0.715-0.218,1.399-0.504,2.049-0.851l4.193,1.993c0.909-0.725,1.733-1.549,2.458-2.458l-1.993-4.193c0.347-0.647,0.633-1.334,0.851-2.049L31.229,17.736zM16,20.871c-2.69,0-4.872-2.182-4.872-4.871c0-2.69,2.182-4.872,4.872-4.872c2.689,0,4.871,2.182,4.871,4.872C20.871,18.689,18.689,20.871,16,20.871z"></path><title>Link options.</title></g></g></g></g><!--z-index:56--><g   id="j_106" ><path  stroke="#444444" d="M 1980 935 L 2140 1045" id="v-1278" stroke-width="2" stroke-dasharray="8 8" fill="none" style="opacity: 1;"></path><path  fill="black" stroke="black" d="M 0 0 0 0" transform="matrix(0.8256517918570929,0.5641800409471887,-0.5641800409471887,0.8256517918570929,1979.510009765625,935)"></path><path  fill="#444444" stroke="#444444" d="M 20 0 L 0 10 L 20 20 z" id="v-1280" transform="matrix(-0.8256518294196493,-0.5641799859760943,0.5641799859760943,-0.8256518294196493,2134.848116871936,1053.2564724508327)" style="opacity: 1;"></path><path  d="M 1980 935 L 2140 1045" id="v-1279" fill="none" style="cursor: auto; pointer-events: visiblepainted;"></path><g ><g id="v-1272"  label-idx="0" cursor="move" transform="matrix(1,0,0,1,2060,990)" style="cursor: default; opacity: 1;"><rect joint-selector="rect" id="v-1275" fill="#ffffff" rx="3" ry="3" pointer-events="none" width="55.32197570800781" height="33.54258728027344" transform="matrix(1,0,0,1,-27.7,-16.8)"></rect><text joint-selector="text" id="v-1274" font-size="24px" xml:space="preserve" y="0.8em" fill="#444444" text-anchor="middle" pointer-events="none" font-family="Open Sans, Tahoma, Arial" font-weight="normal" transform="matrix(1,0,0,1,0,-9.9)"><tspan dy="0" >[use]</tspan></text></g><g id="v-1273"  label-idx="1" cursor="move" transform="matrix(1,0,0,1,2050,1002)" style="cursor: default; opacity: 1;"><rect joint-selector="rect" id="v-1277" fill="#ffffff" rx="3" ry="3"  width="0" height="0" transform="matrix(1,0,0,1,0,0)" display="none"></rect><text joint-selector="text" id="v-1276" fill="#000000" font-size="14" text-anchor="middle" pointer-events="none"></text></g></g><g  display="none" style="display: none;"></g><g  id="v-1282" display="none"><g  id="v-1270"><path  end="source" d="M 26 0 L 0 13 L 26 26 z"></path></g><g  id="v-1271"><path  end="target" d="M 26 0 L 0 13 L 26 26 z"></path></g></g><g  id="v-1281" display="none"><g  id="v-1269" transform="translate(2012.9616769679747, 957.6611529154826) "><g  event="remove"><circle r="11"></circle><path transform="scale(.8) translate(-16, -16)" d="M24.778,21.419 19.276,15.917 24.777,10.415 21.949,7.585 16.447,13.087 10.945,7.585 8.117,10.415 13.618,15.917 8.116,21.419 10.946,24.248 16.447,18.746 21.948,24.248z"></path><title>Remove link.</title></g><g  event="link:options"><circle r="11" transform="translate(25)"></circle><path fill="white" transform="scale(.55) translate(29, -16)" d="M31.229,17.736c0.064-0.571,0.104-1.148,0.104-1.736s-0.04-1.166-0.104-1.737l-4.377-1.557c-0.218-0.716-0.504-1.401-0.851-2.05l1.993-4.192c-0.725-0.91-1.549-1.734-2.458-2.459l-4.193,1.994c-0.647-0.347-1.334-0.632-2.049-0.849l-1.558-4.378C17.165,0.708,16.588,0.667,16,0.667s-1.166,0.041-1.737,0.105L12.707,5.15c-0.716,0.217-1.401,0.502-2.05,0.849L6.464,4.005C5.554,4.73,4.73,5.554,4.005,6.464l1.994,4.192c-0.347,0.648-0.632,1.334-0.849,2.05l-4.378,1.557C0.708,14.834,0.667,15.412,0.667,16s0.041,1.165,0.105,1.736l4.378,1.558c0.217,0.715,0.502,1.401,0.849,2.049l-1.994,4.193c0.725,0.909,1.549,1.733,2.459,2.458l4.192-1.993c0.648,0.347,1.334,0.633,2.05,0.851l1.557,4.377c0.571,0.064,1.148,0.104,1.737,0.104c0.588,0,1.165-0.04,1.736-0.104l1.558-4.377c0.715-0.218,1.399-0.504,2.049-0.851l4.193,1.993c0.909-0.725,1.733-1.549,2.458-2.458l-1.993-4.193c0.347-0.647,0.633-1.334,0.851-2.049L31.229,17.736zM16,20.871c-2.69,0-4.872-2.182-4.872-4.871c0-2.69,2.182-4.872,4.872-4.872c2.689,0,4.871,2.182,4.871,4.872C20.871,18.689,18.689,20.871,16,20.871z"></path><title>Link options.</title></g></g></g></g><!--z-index:57--><g   id="j_107" ><path  stroke="#444444" d="M 1535 863 L 875 1092" id="v-1292" stroke-width="2" stroke-dasharray="8 8" fill="none" style="opacity: 1;"></path><path  fill="black" stroke="black" d="M 0 0 0 0" transform="matrix(-0.9447830092883653,0.3276966056583746,-0.3276966056583746,-0.9447830092883653,1535,863.0399780273438)"></path><path  fill="#444444" stroke="#444444" d="M 20 0 L 0 10 L 20 20 z" id="v-1294" transform="matrix(0.9447830092883653,-0.3276966056583747,0.3276966056583747,0.9447830092883653,871.7230187919387,1082.5121193621376)" style="opacity: 1;"></path><path  d="M 1535 863 L 875 1092" id="v-1293" fill="none" style="cursor: auto; pointer-events: visiblepainted;"></path><g ><g id="v-1286"  label-idx="0" cursor="move" transform="matrix(1,0,0,1,1205,977.5)" style="cursor: default; opacity: 1;"><rect joint-selector="rect" id="v-1289" fill="#ffffff" rx="3" ry="3" pointer-events="none" width="55.32197570800781" height="33.54258728027344" transform="matrix(1,0,0,1,-27.7,-16.8)"></rect><text joint-selector="text" id="v-1288" font-size="24px" xml:space="preserve" y="0.8em" fill="#444444" text-anchor="middle" pointer-events="none" font-family="Open Sans, Tahoma, Arial" font-weight="normal" transform="matrix(1,0,0,1,0,-9.9)"><tspan dy="0" >[use]</tspan></text></g><g id="v-1287"  label-idx="1" cursor="move" transform="matrix(1,0,0,1,1195,989.5)" style="cursor: default; opacity: 1;"><rect joint-selector="rect" id="v-1291" fill="#ffffff" rx="3" ry="3"  width="0" height="0" transform="matrix(1,0,0,1,0,0)" display="none"></rect><text joint-selector="text" id="v-1290" fill="#000000" font-size="14" text-anchor="middle" pointer-events="none"></text></g></g><g  display="none" style="display: none;"></g><g  id="v-1296" display="none"><g  id="v-1284"><path  end="source" d="M 26 0 L 0 13 L 26 26 z"></path></g><g  id="v-1285"><path  end="target" d="M 26 0 L 0 13 L 26 26 z"></path></g></g><g  id="v-1295" display="none"><g  id="v-1283" transform="translate(1497.2100973876054, 876.111951057937) "><g  event="remove"><circle r="11"></circle><path transform="scale(.8) translate(-16, -16)" d="M24.778,21.419 19.276,15.917 24.777,10.415 21.949,7.585 16.447,13.087 10.945,7.585 8.117,10.415 13.618,15.917 8.116,21.419 10.946,24.248 16.447,18.746 21.948,24.248z"></path><title>Remove link.</title></g><g  event="link:options"><circle r="11" transform="translate(25)"></circle><path fill="white" transform="scale(.55) translate(29, -16)" d="M31.229,17.736c0.064-0.571,0.104-1.148,0.104-1.736s-0.04-1.166-0.104-1.737l-4.377-1.557c-0.218-0.716-0.504-1.401-0.851-2.05l1.993-4.192c-0.725-0.91-1.549-1.734-2.458-2.459l-4.193,1.994c-0.647-0.347-1.334-0.632-2.049-0.849l-1.558-4.378C17.165,0.708,16.588,0.667,16,0.667s-1.166,0.041-1.737,0.105L12.707,5.15c-0.716,0.217-1.401,0.502-2.05,0.849L6.464,4.005C5.554,4.73,4.73,5.554,4.005,6.464l1.994,4.192c-0.347,0.648-0.632,1.334-0.849,2.05l-4.378,1.557C0.708,14.834,0.667,15.412,0.667,16s0.041,1.165,0.105,1.736l4.378,1.558c0.217,0.715,0.502,1.401,0.849,2.049l-1.994,4.193c0.725,0.909,1.549,1.733,2.459,2.458l4.192-1.993c0.648,0.347,1.334,0.633,2.05,0.851l1.557,4.377c0.571,0.064,1.148,0.104,1.737,0.104c0.588,0,1.165-0.04,1.736-0.104l1.558-4.377c0.715-0.218,1.399-0.504,2.049-0.851l4.193,1.993c0.909-0.725,1.733-1.549,2.458-2.458l-1.993-4.193c0.347-0.647,0.633-1.334,0.851-2.049L31.229,17.736zM16,20.871c-2.69,0-4.872-2.182-4.872-4.871c0-2.69,2.182-4.872,4.872-4.872c2.689,0,4.871,2.182,4.871,4.872C20.871,18.689,18.689,20.871,16,20.871z"></path><title>Link options.</title></g></g></g></g><!--z-index:58--><g   id="j_108" ><path  stroke="#444444" d="M 1579 935 L 1451 1040" id="v-1306" stroke-width="2" stroke-dasharray="8 8" fill="none" style="opacity: 1;"></path><path  fill="black" stroke="black" d="M 0 0 0 0" transform="matrix(-0.7708011726141661,0.6370757822242392,-0.6370757822242392,-0.7708011726141661,1578.52001953125,935)"></path><path  fill="#444444" stroke="#444444" d="M 20 0 L 0 10 L 20 20 z" id="v-1308" transform="matrix(0.7708010029505951,-0.6370759875009859,0.6370759875009859,0.7708010029505951,1445.109218376734,1032.2920223064416)" style="opacity: 1;"></path><path  d="M 1579 935 L 1451 1040" id="v-1307" fill="none" style="cursor: auto; pointer-events: visiblepainted;"></path><g ><g id="v-1300"  label-idx="0" cursor="move" transform="matrix(1,0,0,1,1515,987.5)" style="cursor: default; opacity: 1;"><rect joint-selector="rect" id="v-1303" fill="#ffffff" rx="3" ry="3" pointer-events="none" width="55.32197570800781" height="33.54258728027344" transform="matrix(1,0,0,1,-27.7,-16.8)"></rect><text joint-selector="text" id="v-1302" font-size="24px" xml:space="preserve" y="0.8em" fill="#444444" text-anchor="middle" pointer-events="none" font-family="Open Sans, Tahoma, Arial" font-weight="normal" transform="matrix(1,0,0,1,0,-9.9)"><tspan dy="0" >[use]</tspan></text></g><g id="v-1301"  label-idx="1" cursor="move" transform="matrix(1,0,0,1,1505,999.5)" style="cursor: default; opacity: 1;"><rect joint-selector="rect" id="v-1305" fill="#ffffff" rx="3" ry="3"  width="0" height="0" transform="matrix(1,0,0,1,0,0)" display="none"></rect><text joint-selector="text" id="v-1304" fill="#000000" font-size="14" text-anchor="middle" pointer-events="none"></text></g></g><g  display="none" style="display: none;"></g><g  id="v-1310" display="none"><g  id="v-1298"><path  end="source" d="M 26 0 L 0 13 L 26 26 z"></path></g><g  id="v-1299"><path  end="target" d="M 26 0 L 0 13 L 26 26 z"></path></g></g><g  id="v-1309" display="none"><g  id="v-1297" transform="translate(1548.0740274875623, 960.368961826609) "><g  event="remove"><circle r="11"></circle><path transform="scale(.8) translate(-16, -16)" d="M24.778,21.419 19.276,15.917 24.777,10.415 21.949,7.585 16.447,13.087 10.945,7.585 8.117,10.415 13.618,15.917 8.116,21.419 10.946,24.248 16.447,18.746 21.948,24.248z"></path><title>Remove link.</title></g><g  event="link:options"><circle r="11" transform="translate(25)"></circle><path fill="white" transform="scale(.55) translate(29, -16)" d="M31.229,17.736c0.064-0.571,0.104-1.148,0.104-1.736s-0.04-1.166-0.104-1.737l-4.377-1.557c-0.218-0.716-0.504-1.401-0.851-2.05l1.993-4.192c-0.725-0.91-1.549-1.734-2.458-2.459l-4.193,1.994c-0.647-0.347-1.334-0.632-2.049-0.849l-1.558-4.378C17.165,0.708,16.588,0.667,16,0.667s-1.166,0.041-1.737,0.105L12.707,5.15c-0.716,0.217-1.401,0.502-2.05,0.849L6.464,4.005C5.554,4.73,4.73,5.554,4.005,6.464l1.994,4.192c-0.347,0.648-0.632,1.334-0.849,2.05l-4.378,1.557C0.708,14.834,0.667,15.412,0.667,16s0.041,1.165,0.105,1.736l4.378,1.558c0.217,0.715,0.502,1.401,0.849,2.049l-1.994,4.193c0.725,0.909,1.549,1.733,2.459,2.458l4.192-1.993c0.648,0.347,1.334,0.633,2.05,0.851l1.557,4.377c0.571,0.064,1.148,0.104,1.737,0.104c0.588,0,1.165-0.04,1.736-0.104l1.558-4.377c0.715-0.218,1.399-0.504,2.049-0.851l4.193,1.993c0.909-0.725,1.733-1.549,2.458-2.458l-1.993-4.193c0.347-0.647,0.633-1.334,0.851-2.049L31.229,17.736zM16,20.871c-2.69,0-4.872-2.182-4.872-4.871c0-2.69,2.182-4.872,4.872-4.872c2.689,0,4.871,2.182,4.871,4.872C20.871,18.689,18.689,20.871,16,20.871z"></path><title>Link options.</title></g></g></g></g><!--z-index:59--><g   id="j_109" ><path  stroke="#444444" d="M 1774 1340 L 1721 1595" id="v-1323" stroke-width="2" stroke-dasharray="8 8" fill="none" style="opacity: 1;"></path><path  fill="black" stroke="black" d="M 0 0 0 0" transform="matrix(-0.2029052459494807,0.9791983768196211,-0.9791983768196211,-0.2029052459494807,1773.9200439453125,1340)"></path><path  fill="#444444" stroke="#444444" d="M 20 0 L 0 10 L 20 20 z" id="v-1325" transform="matrix(0.20290537633762945,-0.9791983498011446,0.9791983498011446,0.20290537633762945,1711.2879715276747,1592.9709375471355)" style="opacity: 1;"></path><path  d="M 1774 1340 L 1721 1595" id="v-1324" fill="none" style="cursor: auto; pointer-events: visiblepainted;"></path><g ><g id="v-1317"  label-idx="0" cursor="move" transform="matrix(1,0,0,1,1747.5,1467.5)" style="cursor: default; opacity: 1;"><rect joint-selector="rect" id="v-1320" fill="#ffffff" rx="3" ry="3" pointer-events="none" width="113.58475494384766" height="62.34259033203125" transform="matrix(1,0,0,1,-56.8,-31.2)"></rect><text joint-selector="text" id="v-1319" font-size="24px" xml:space="preserve" y="0.8em" fill="#444444" text-anchor="middle" pointer-events="none" font-family="Open Sans, Tahoma, Arial" font-weight="normal" transform="matrix(1,0,0,1,0,-24.3)"><tspan dy="0" >[manage</tspan><tspan dy="1.2em" x="0" >inventory]</tspan></text></g><g id="v-1318"  label-idx="1" cursor="move" transform="matrix(1,0,0,1,1737.5,1493.9000244140625)" style="cursor: default; opacity: 1;"><rect joint-selector="rect" id="v-1322" fill="#ffffff" rx="3" ry="3"  width="0" height="0" transform="matrix(1,0,0,1,0,0)" display="none"></rect><text joint-selector="text" id="v-1321" fill="#000000" font-size="14" text-anchor="middle" pointer-events="none"></text></g></g><g  display="none" style="display: none;"></g><g  id="v-1327" display="none"><g  id="v-1315"><path  end="source" d="M 26 0 L 0 13 L 26 26 z"></path></g><g  id="v-1316"><path  end="target" d="M 26 0 L 0 13 L 26 26 z"></path></g></g><g  id="v-1326" display="none"><g  id="v-1314" transform="translate(1765.8602297395278, 1379.1630455928382) "><g  event="remove"><circle r="11"></circle><path transform="scale(.8) translate(-16, -16)" d="M24.778,21.419 19.276,15.917 24.777,10.415 21.949,7.585 16.447,13.087 10.945,7.585 8.117,10.415 13.618,15.917 8.116,21.419 10.946,24.248 16.447,18.746 21.948,24.248z"></path><title>Remove link.</title></g><g  event="link:options"><circle r="11" transform="translate(25)"></circle><path fill="white" transform="scale(.55) translate(29, -16)" d="M31.229,17.736c0.064-0.571,0.104-1.148,0.104-1.736s-0.04-1.166-0.104-1.737l-4.377-1.557c-0.218-0.716-0.504-1.401-0.851-2.05l1.993-4.192c-0.725-0.91-1.549-1.734-2.458-2.459l-4.193,1.994c-0.647-0.347-1.334-0.632-2.049-0.849l-1.558-4.378C17.165,0.708,16.588,0.667,16,0.667s-1.166,0.041-1.737,0.105L12.707,5.15c-0.716,0.217-1.401,0.502-2.05,0.849L6.464,4.005C5.554,4.73,4.73,5.554,4.005,6.464l1.994,4.192c-0.347,0.648-0.632,1.334-0.849,2.05l-4.378,1.557C0.708,14.834,0.667,15.412,0.667,16s0.041,1.165,0.105,1.736l4.378,1.558c0.217,0.715,0.502,1.401,0.849,2.049l-1.994,4.193c0.725,0.909,1.549,1.733,2.459,2.458l4.192-1.993c0.648,0.347,1.334,0.633,2.05,0.851l1.557,4.377c0.571,0.064,1.148,0.104,1.737,0.104c0.588,0,1.165-0.04,1.736-0.104l1.558-4.377c0.715-0.218,1.399-0.504,2.049-0.851l4.193,1.993c0.909-0.725,1.733-1.549,2.458-2.458l-1.993-4.193c0.347-0.647,0.633-1.334,0.851-2.049L31.229,17.736zM16,20.871c-2.69,0-4.872-2.182-4.872-4.871c0-2.69,2.182-4.872,4.872-4.872c2.689,0,4.871,2.182,4.871,4.872C20.871,18.689,18.689,20.871,16,20.871z"></path><title>Link options.</title></g></g></g></g><!--z-index:60--><g   id="j_110" ><path  stroke="#444444" d="M 2710 1286 L 1915 1644" id="v-1340" stroke-width="2" stroke-dasharray="8 8" fill="none" style="opacity: 1;"></path><path  fill="black" stroke="black" d="M 0 0 0 0" transform="matrix(-0.9119859203351253,0.41022150249651024,-0.41022150249651024,-0.9119859203351253,2710,1286.199951171875)"></path><path  fill="#444444" stroke="#444444" d="M 20 0 L 0 10 L 20 20 z" id="v-1342" transform="matrix(0.911985920335125,-0.41022150249651074,0.41022150249651074,0.911985920335125,1910.8977988185584,1634.680109727864)" style="opacity: 1;"></path><path  d="M 2710 1286 L 1915 1644" id="v-1341" fill="none" style="cursor: auto; pointer-events: visiblepainted;"></path><g ><g id="v-1334"  label-idx="0" cursor="move" transform="matrix(1,0,0,1,2312.5,1465)" style="cursor: default; opacity: 1;"><rect joint-selector="rect" id="v-1337" fill="#ffffff" rx="3" ry="3" pointer-events="none" width="128.08493041992188" height="62.34259033203125" transform="matrix(1,0,0,1,-64,-31.2)"></rect><text joint-selector="text" id="v-1336" font-size="24px" xml:space="preserve" y="0.8em" fill="#444444" text-anchor="middle" pointer-events="none" font-family="Open Sans, Tahoma, Arial" font-weight="normal" transform="matrix(1,0,0,1,0,-24.3)"><tspan dy="0" >[process</tspan><tspan dy="1.2em" x="0" >dispensing]</tspan></text></g><g id="v-1335"  label-idx="1" cursor="move" transform="matrix(1,0,0,1,2302.5,1491.4000244140625)" style="cursor: default; opacity: 1;"><rect joint-selector="rect" id="v-1339" fill="#ffffff" rx="3" ry="3"  width="0" height="0" transform="matrix(1,0,0,1,0,0)" display="none"></rect><text joint-selector="text" id="v-1338" fill="#000000" font-size="14" text-anchor="middle" pointer-events="none"></text></g></g><g  display="none" style="display: none;"></g><g  id="v-1344" display="none"><g  id="v-1332"><path  end="source" d="M 26 0 L 0 13 L 26 26 z"></path></g><g  id="v-1333"><path  end="target" d="M 26 0 L 0 13 L 26 26 z"></path></g></g><g  id="v-1343" display="none"><g  id="v-1331" transform="translate(2673.5274331084165, 1302.42412446187) "><g  event="remove"><circle r="11"></circle><path transform="scale(.8) translate(-16, -16)" d="M24.778,21.419 19.276,15.917 24.777,10.415 21.949,7.585 16.447,13.087 10.945,7.585 8.117,10.415 13.618,15.917 8.116,21.419 10.946,24.248 16.447,18.746 21.948,24.248z"></path><title>Remove link.</title></g><g  event="link:options"><circle r="11" transform="translate(25)"></circle><path fill="white" transform="scale(.55) translate(29, -16)" d="M31.229,17.736c0.064-0.571,0.104-1.148,0.104-1.736s-0.04-1.166-0.104-1.737l-4.377-1.557c-0.218-0.716-0.504-1.401-0.851-2.05l1.993-4.192c-0.725-0.91-1.549-1.734-2.458-2.459l-4.193,1.994c-0.647-0.347-1.334-0.632-2.049-0.849l-1.558-4.378C17.165,0.708,16.588,0.667,16,0.667s-1.166,0.041-1.737,0.105L12.707,5.15c-0.716,0.217-1.401,0.502-2.05,0.849L6.464,4.005C5.554,4.73,4.73,5.554,4.005,6.464l1.994,4.192c-0.347,0.648-0.632,1.334-0.849,2.05l-4.378,1.557C0.708,14.834,0.667,15.412,0.667,16s0.041,1.165,0.105,1.736l4.378,1.558c0.217,0.715,0.502,1.401,0.849,2.049l-1.994,4.193c0.725,0.909,1.549,1.733,2.459,2.458l4.192-1.993c0.648,0.347,1.334,0.633,2.05,0.851l1.557,4.377c0.571,0.064,1.148,0.104,1.737,0.104c0.588,0,1.165-0.04,1.736-0.104l1.558-4.377c0.715-0.218,1.399-0.504,2.049-0.851l4.193,1.993c0.909-0.725,1.733-1.549,2.458-2.458l-1.993-4.193c0.347-0.647,0.633-1.334,0.851-2.049L31.229,17.736zM16,20.871c-2.69,0-4.872-2.182-4.872-4.871c0-2.69,2.182-4.872,4.872-4.872c2.689,0,4.871,2.182,4.871,4.872C20.871,18.689,18.689,20.871,16,20.871z"></path><title>Link options.</title></g></g></g></g><!--z-index:61--><g   id="j_111" ><path  stroke="#444444" d="M 2177 1345 L 1873 1595" id="v-1357" stroke-width="2" stroke-dasharray="8 8" fill="none" style="opacity: 1;"></path><path  fill="black" stroke="black" d="M 0 0 0 0" transform="matrix(-0.7729227613697515,0.634500122109175,-0.634500122109175,-0.7729227613697515,2177.27001953125,1345)"></path><path  fill="#444444" stroke="#444444" d="M 20 0 L 0 10 L 20 20 z" id="v-1359" transform="matrix(0.7729225923921205,-0.6345003279509347,0.6345003279509347,0.7729225923921205,1866.3849993121942,1587.2708066524633)" style="opacity: 1;"></path><path  d="M 2177 1345 L 1873 1595" id="v-1358" fill="none" style="cursor: auto; pointer-events: visiblepainted;"></path><g ><g id="v-1351"  label-idx="0" cursor="move" transform="matrix(1,0,0,1,2025,1470)" style="cursor: default; opacity: 1;"><rect joint-selector="rect" id="v-1354" fill="#ffffff" rx="3" ry="3" pointer-events="none" width="185.59066772460938" height="33.54258728027344" transform="matrix(1,0,0,1,-92.8,-16.8)"></rect><text joint-selector="text" id="v-1353" font-size="24px" xml:space="preserve" y="0.8em" fill="#444444" text-anchor="middle" pointer-events="none" font-family="Open Sans, Tahoma, Arial" font-weight="normal" transform="matrix(1,0,0,1,0,-9.9)"><tspan dy="0" >[manage orders]</tspan></text></g><g id="v-1352"  label-idx="1" cursor="move" transform="matrix(1,0,0,1,2015,1482)" style="cursor: default; opacity: 1;"><rect joint-selector="rect" id="v-1356" fill="#ffffff" rx="3" ry="3"  width="0" height="0" transform="matrix(1,0,0,1,0,0)" display="none"></rect><text joint-selector="text" id="v-1355" fill="#000000" font-size="14" text-anchor="middle" pointer-events="none"></text></g></g><g  display="none" style="display: none;"></g><g  id="v-1361" display="none"><g  id="v-1349"><path  end="source" d="M 26 0 L 0 13 L 26 26 z"></path></g><g  id="v-1350"><path  end="target" d="M 26 0 L 0 13 L 26 26 z"></path></g></g><g  id="v-1360" display="none"><g  id="v-1348" transform="translate(2146.1051964838975, 1370.4069107862688) "><g  event="remove"><circle r="11"></circle><path transform="scale(.8) translate(-16, -16)" d="M24.778,21.419 19.276,15.917 24.777,10.415 21.949,7.585 16.447,13.087 10.945,7.585 8.117,10.415 13.618,15.917 8.116,21.419 10.946,24.248 16.447,18.746 21.948,24.248z"></path><title>Remove link.</title></g><g  event="link:options"><circle r="11" transform="translate(25)"></circle><path fill="white" transform="scale(.55) translate(29, -16)" d="M31.229,17.736c0.064-0.571,0.104-1.148,0.104-1.736s-0.04-1.166-0.104-1.737l-4.377-1.557c-0.218-0.716-0.504-1.401-0.851-2.05l1.993-4.192c-0.725-0.91-1.549-1.734-2.458-2.459l-4.193,1.994c-0.647-0.347-1.334-0.632-2.049-0.849l-1.558-4.378C17.165,0.708,16.588,0.667,16,0.667s-1.166,0.041-1.737,0.105L12.707,5.15c-0.716,0.217-1.401,0.502-2.05,0.849L6.464,4.005C5.554,4.73,4.73,5.554,4.005,6.464l1.994,4.192c-0.347,0.648-0.632,1.334-0.849,2.05l-4.378,1.557C0.708,14.834,0.667,15.412,0.667,16s0.041,1.165,0.105,1.736l4.378,1.558c0.217,0.715,0.502,1.401,0.849,2.049l-1.994,4.193c0.725,0.909,1.549,1.733,2.459,2.458l4.192-1.993c0.648,0.347,1.334,0.633,2.05,0.851l1.557,4.377c0.571,0.064,1.148,0.104,1.737,0.104c0.588,0,1.165-0.04,1.736-0.104l1.558-4.377c0.715-0.218,1.399-0.504,2.049-0.851l4.193,1.993c0.909-0.725,1.733-1.549,2.458-2.458l-1.993-4.193c0.347-0.647,0.633-1.334,0.851-2.049L31.229,17.736zM16,20.871c-2.69,0-4.872-2.182-4.872-4.871c0-2.69,2.182-4.872,4.872-4.872c2.689,0,4.871,2.182,4.871,4.872C20.871,18.689,18.689,20.871,16,20.871z"></path><title>Link options.</title></g></g></g></g><!--z-index:62--><g   id="j_112" ><path  stroke="#444444" d="M 875 1294 L 1465 1621" id="v-1374" stroke-width="2" stroke-dasharray="8 8" fill="none" style="opacity: 1;"></path><path  fill="black" stroke="black" d="M 0 0 0 0" transform="matrix(0.8751489822612306,0.4838535510328842,-0.4838535510328842,0.8751489822612306,875,1294.4000244140625)"></path><path  fill="#444444" stroke="#444444" d="M 20 0 L 0 10 L 20 20 z" id="v-1376" transform="matrix(-0.8751489339394782,-0.4838536384327337,0.4838536384327337,-0.8751489339394782,1460.1614881113176,1629.3515003330972)" style="opacity: 1;"></path><path  d="M 875 1294 L 1465 1621" id="v-1375" fill="none" style="cursor: auto; pointer-events: visiblepainted;"></path><g ><g id="v-1368"  label-idx="0" cursor="move" transform="matrix(1,0,0,1,1170,1457.5)" style="cursor: default; opacity: 1;"><rect joint-selector="rect" id="v-1371" fill="#ffffff" rx="3" ry="3" pointer-events="none" width="155.16358947753906" height="33.54258728027344" transform="matrix(1,0,0,1,-77.6,-16.8)"></rect><text joint-selector="text" id="v-1370" font-size="24px" xml:space="preserve" y="0.8em" fill="#444444" text-anchor="middle" pointer-events="none" font-family="Open Sans, Tahoma, Arial" font-weight="normal" transform="matrix(1,0,0,1,0,-9.9)"><tspan dy="0" >[manage cart]</tspan></text></g><g id="v-1369"  label-idx="1" cursor="move" transform="matrix(1,0,0,1,1160,1469.5)" style="cursor: default; opacity: 1;"><rect joint-selector="rect" id="v-1373" fill="#ffffff" rx="3" ry="3"  width="0" height="0" transform="matrix(1,0,0,1,0,0)" display="none"></rect><text joint-selector="text" id="v-1372" fill="#000000" font-size="14" text-anchor="middle" pointer-events="none"></text></g></g><g  display="none" style="display: none;"></g><g  id="v-1378" display="none"><g  id="v-1366"><path  end="source" d="M 26 0 L 0 13 L 26 26 z"></path></g><g  id="v-1367"><path  end="target" d="M 26 0 L 0 13 L 26 26 z"></path></g></g><g  id="v-1377" display="none"><g  id="v-1365" transform="translate(909.9858528303973, 1313.3904641958304) "><g  event="remove"><circle r="11"></circle><path transform="scale(.8) translate(-16, -16)" d="M24.778,21.419 19.276,15.917 24.777,10.415 21.949,7.585 16.447,13.087 10.945,7.585 8.117,10.415 13.618,15.917 8.116,21.419 10.946,24.248 16.447,18.746 21.948,24.248z"></path><title>Remove link.</title></g><g  event="link:options"><circle r="11" transform="translate(25)"></circle><path fill="white" transform="scale(.55) translate(29, -16)" d="M31.229,17.736c0.064-0.571,0.104-1.148,0.104-1.736s-0.04-1.166-0.104-1.737l-4.377-1.557c-0.218-0.716-0.504-1.401-0.851-2.05l1.993-4.192c-0.725-0.91-1.549-1.734-2.458-2.459l-4.193,1.994c-0.647-0.347-1.334-0.632-2.049-0.849l-1.558-4.378C17.165,0.708,16.588,0.667,16,0.667s-1.166,0.041-1.737,0.105L12.707,5.15c-0.716,0.217-1.401,0.502-2.05,0.849L6.464,4.005C5.554,4.73,4.73,5.554,4.005,6.464l1.994,4.192c-0.347,0.648-0.632,1.334-0.849,2.05l-4.378,1.557C0.708,14.834,0.667,15.412,0.667,16s0.041,1.165,0.105,1.736l4.378,1.558c0.217,0.715,0.502,1.401,0.849,2.049l-1.994,4.193c0.725,0.909,1.549,1.733,2.459,2.458l4.192-1.993c0.648,0.347,1.334,0.633,2.05,0.851l1.557,4.377c0.571,0.064,1.148,0.104,1.737,0.104c0.588,0,1.165-0.04,1.736-0.104l1.558-4.377c0.715-0.218,1.399-0.504,2.049-0.851l4.193,1.993c0.909-0.725,1.733-1.549,2.458-2.458l-1.993-4.193c0.347-0.647,0.633-1.334,0.851-2.049L31.229,17.736zM16,20.871c-2.69,0-4.872-2.182-4.872-4.871c0-2.69,2.182-4.872,4.872-4.872c2.689,0,4.871,2.182,4.871,4.872C20.871,18.689,18.689,20.871,16,20.871z"></path><title>Link options.</title></g></g></g></g><!--z-index:63--><g   id="j_113" ><path  stroke="#444444" d="M 1384 1340 L 1576 1595" id="v-1391" stroke-width="2" stroke-dasharray="8 8" fill="none" style="opacity: 1;"></path><path  fill="black" stroke="black" d="M 0 0 0 0" transform="matrix(0.6034566686372723,0.797395791986141,-0.797395791986141,0.6034566686372723,1383.510009765625,1340)"></path><path  fill="#444444" stroke="#444444" d="M 20 0 L 0 10 L 20 20 z" id="v-1393" transform="matrix(-0.6034565624575948,-0.7973958723412498,0.7973958723412498,-0.6034565624575948,1568.516051237101,1601.0345253245512)" style="opacity: 1;"></path><path  d="M 1384 1340 L 1576 1595" id="v-1392" fill="none" style="cursor: auto; pointer-events: visiblepainted;"></path><g ><g id="v-1385"  label-idx="0" cursor="move" transform="matrix(1,0,0,1,1480,1467.5)" style="cursor: default; opacity: 1;"><rect joint-selector="rect" id="v-1388" fill="#ffffff" rx="3" ry="3" pointer-events="none" width="167.8585205078125" height="33.54258728027344" transform="matrix(1,0,0,1,-83.9,-16.8)"></rect><text joint-selector="text" id="v-1387" font-size="24px" xml:space="preserve" y="0.8em" fill="#444444" text-anchor="middle" pointer-events="none" font-family="Open Sans, Tahoma, Arial" font-weight="normal" transform="matrix(1,0,0,1,0,-9.9)"><tspan dy="0" >[validate stock]</tspan></text></g><g id="v-1386"  label-idx="1" cursor="move" transform="matrix(1,0,0,1,1470,1479.5)" style="cursor: default; opacity: 1;"><rect joint-selector="rect" id="v-1390" fill="#ffffff" rx="3" ry="3"  width="0" height="0" transform="matrix(1,0,0,1,0,0)" display="none"></rect><text joint-selector="text" id="v-1389" fill="#000000" font-size="14" text-anchor="middle" pointer-events="none"></text></g></g><g  display="none" style="display: none;"></g><g  id="v-1395" display="none"><g  id="v-1383"><path  end="source" d="M 26 0 L 0 13 L 26 26 z"></path></g><g  id="v-1384"><path  end="target" d="M 26 0 L 0 13 L 26 26 z"></path></g></g><g  id="v-1394" display="none"><g  id="v-1382" transform="translate(1408.0601078705577, 1371.9548307655841) "><g  event="remove"><circle r="11"></circle><path transform="scale(.8) translate(-16, -16)" d="M24.778,21.419 19.276,15.917 24.777,10.415 21.949,7.585 16.447,13.087 10.945,7.585 8.117,10.415 13.618,15.917 8.116,21.419 10.946,24.248 16.447,18.746 21.948,24.248z"></path><title>Remove link.</title></g><g  event="link:options"><circle r="11" transform="translate(25)"></circle><path fill="white" transform="scale(.55) translate(29, -16)" d="M31.229,17.736c0.064-0.571,0.104-1.148,0.104-1.736s-0.04-1.166-0.104-1.737l-4.377-1.557c-0.218-0.716-0.504-1.401-0.851-2.05l1.993-4.192c-0.725-0.91-1.549-1.734-2.458-2.459l-4.193,1.994c-0.647-0.347-1.334-0.632-2.049-0.849l-1.558-4.378C17.165,0.708,16.588,0.667,16,0.667s-1.166,0.041-1.737,0.105L12.707,5.15c-0.716,0.217-1.401,0.502-2.05,0.849L6.464,4.005C5.554,4.73,4.73,5.554,4.005,6.464l1.994,4.192c-0.347,0.648-0.632,1.334-0.849,2.05l-4.378,1.557C0.708,14.834,0.667,15.412,0.667,16s0.041,1.165,0.105,1.736l4.378,1.558c0.217,0.715,0.502,1.401,0.849,2.049l-1.994,4.193c0.725,0.909,1.549,1.733,2.459,2.458l4.192-1.993c0.648,0.347,1.334,0.633,2.05,0.851l1.557,4.377c0.571,0.064,1.148,0.104,1.737,0.104c0.588,0,1.165-0.04,1.736-0.104l1.558-4.377c0.715-0.218,1.399-0.504,2.049-0.851l4.193,1.993c0.909-0.725,1.733-1.549,2.458-2.458l-1.993-4.193c0.347-0.647,0.633-1.334,0.851-2.049L31.229,17.736zM16,20.871c-2.69,0-4.872-2.182-4.872-4.871c0-2.69,2.182-4.872,4.872-4.872c2.689,0,4.871,2.182,4.871,4.872C20.871,18.689,18.689,20.871,16,20.871z"></path><title>Link options.</title></g></g></g></g><!--z-index:64--><g   id="j_114" ><path  stroke="#444444" d="M 1696 1895 L 1704 2070" id="v-1408" stroke-width="2" stroke-dasharray="8 8" fill="none" style="opacity: 1;"></path><path  fill="black" stroke="black" d="M 0 0 0 0" transform="matrix(0.04202002965845085,0.9991167685048143,-0.9991167685048143,0.04202002965845085,1696.3199462890625,1895)"></path><path  fill="#444444" stroke="#444444" d="M 20 0 L 0 10 L 20 20 z" id="v-1410" transform="matrix(-0.042019763577559315,-0.9991167796953897,0.9991167796953897,-0.042019763577559315,1693.6887954638216,2070.42015449523)" style="opacity: 1;"></path><path  d="M 1696 1895 L 1704 2070" id="v-1409" fill="none" style="cursor: auto; pointer-events: visiblepainted;"></path><g ><g id="v-1402"  label-idx="0" cursor="move" transform="matrix(1,0,0,1,1700,1982.5)" style="cursor: default; opacity: 1;"><rect joint-selector="rect" id="v-1405" fill="#ffffff" rx="3" ry="3" pointer-events="none" width="188.32765197753906" height="33.54258728027344" transform="matrix(1,0,0,1,-94.2,-16.8)"></rect><text joint-selector="text" id="v-1404" font-size="24px" xml:space="preserve" y="0.8em" fill="#444444" text-anchor="middle" pointer-events="none" font-family="Open Sans, Tahoma, Arial" font-weight="normal" transform="matrix(1,0,0,1,0,-9.9)"><tspan dy="0" >[read/write data]</tspan></text></g><g id="v-1403"  label-idx="1" cursor="move" transform="matrix(1,0,0,1,1690,1994.5)" style="cursor: default; opacity: 1;"><rect joint-selector="rect" id="v-1407" fill="#ffffff" rx="3" ry="3"  width="0" height="0" transform="matrix(1,0,0,1,0,0)" display="none"></rect><text joint-selector="text" id="v-1406" fill="#000000" font-size="14" text-anchor="middle" pointer-events="none"></text></g></g><g  display="none" style="display: none;"></g><g  id="v-1412" display="none"><g  id="v-1400"><path  end="source" d="M 26 0 L 0 13 L 26 26 z"></path></g><g  id="v-1401"><path  end="target" d="M 26 0 L 0 13 L 26 26 z"></path></g></g><g  id="v-1411" display="none"><g  id="v-1399" transform="translate(1697.8266637474953, 1934.9582694764624) "><g  event="remove"><circle r="11"></circle><path transform="scale(.8) translate(-16, -16)" d="M24.778,21.419 19.276,15.917 24.777,10.415 21.949,7.585 16.447,13.087 10.945,7.585 8.117,10.415 13.618,15.917 8.116,21.419 10.946,24.248 16.447,18.746 21.948,24.248z"></path><title>Remove link.</title></g><g  event="link:options"><circle r="11" transform="translate(25)"></circle><path fill="white" transform="scale(.55) translate(29, -16)" d="M31.229,17.736c0.064-0.571,0.104-1.148,0.104-1.736s-0.04-1.166-0.104-1.737l-4.377-1.557c-0.218-0.716-0.504-1.401-0.851-2.05l1.993-4.192c-0.725-0.91-1.549-1.734-2.458-2.459l-4.193,1.994c-0.647-0.347-1.334-0.632-2.049-0.849l-1.558-4.378C17.165,0.708,16.588,0.667,16,0.667s-1.166,0.041-1.737,0.105L12.707,5.15c-0.716,0.217-1.401,0.502-2.05,0.849L6.464,4.005C5.554,4.73,4.73,5.554,4.005,6.464l1.994,4.192c-0.347,0.648-0.632,1.334-0.849,2.05l-4.378,1.557C0.708,14.834,0.667,15.412,0.667,16s0.041,1.165,0.105,1.736l4.378,1.558c0.217,0.715,0.502,1.401,0.849,2.049l-1.994,4.193c0.725,0.909,1.549,1.733,2.459,2.458l4.192-1.993c0.648,0.347,1.334,0.633,2.05,0.851l1.557,4.377c0.571,0.064,1.148,0.104,1.737,0.104c0.588,0,1.165-0.04,1.736-0.104l1.558-4.377c0.715-0.218,1.399-0.504,2.049-0.851l4.193,1.993c0.909-0.725,1.733-1.549,2.458-2.458l-1.993-4.193c0.347-0.647,0.633-1.334,0.851-2.049L31.229,17.736zM16,20.871c-2.69,0-4.872-2.182-4.872-4.871c0-2.69,2.182-4.872,4.872-4.872c2.689,0,4.871,2.182,4.871,4.872C20.871,18.689,18.689,20.871,16,20.871z"></path><title>Link options.</title></g></g></g></g><!--z-index:65--><!--z-index:66--><!--z-index:67--><!--z-index:68--><!--z-index:69--><!--z-index:70--><!--z-index:71--><!--z-index:72--><!--z-index:73--><!--z-index:74--><!--z-index:75--><!--z-index:76--><!--z-index:77--><!--z-index:78--><!--z-index:79--></g><g ></g><g ></g><g ></g></g></svg>