<svg xmlns="http://www.w3.org/2000/svg" xmlns:xlink="http://www.w3.org/1999/xlink" version="1.1" viewBox="0 0 4680 3219" style="background: #ffffff"><defs joint-selector="defs"></defs><g joint-selector="layers"  transform="matrix(1,0,0,1,0,0)"><g ></g><g ><!--z-index:1--><!--z-index:2--><!--z-index:3--><!--z-index:4--><!--z-index:5--><!--z-index:6--><!--z-index:7--><!--z-index:8--><!--z-index:9--><!--z-index:10--><!--z-index:11--><!--z-index:12--><!--z-index:13--><!--z-index:14--><!--z-index:15--><!--z-index:16--><!--z-index:17--><!--z-index:18--><!--z-index:19--><!--z-index:20--><!--z-index:21--><!--z-index:22--><!--z-index:23--><!--z-index:24--><!--z-index:25--><!--z-index:26--><!--z-index:27--><!--z-index:28--><!--z-index:29--><!--z-index:30--><!--z-index:31--><!--z-index:32--><!--z-index:33--><!--z-index:34--><!--z-index:35--><!--z-index:36--><!--z-index:37--><!--z-index:38--><!--z-index:39--><!--z-index:40--><!--z-index:41--><!--z-index:42--><!--z-index:43--><!--z-index:44--><g   id="j_116"  transform="translate(20,3175)"><g id="v-1421"><text  id="v-1422" font-size="24px" xml:space="preserve" y="0.8em" font-weight="normal" text-anchor="start" fill="#444444" pointer-events="none" display="block" font-family="Open Sans, Tahoma, Arial"><tspan dy="0"  display="block">sábado, 25 de abril de 2026, 11:27 hora estándar de Perú</tspan></text></g></g><!--z-index:45--><g   id="j_115"  transform="translate(20,3129)"><g id="v-1419"><text  id="v-1420" font-size="36px" xml:space="preserve" y="0.8em" font-weight="normal" text-anchor="start" fill="#444444" pointer-events="none" display="block" font-family="Open Sans, Tahoma, Arial"><tspan dy="0"  display="block">Component View: VITALIA SAAS - DASHBOARD &amp; ANALYTICS CONTEXT</tspan></text></g></g><!--z-index:46--><g   id="j_118"  transform="translate(200,160)" style=""><g id="v-1436"><rect  id="v-1437" width="4280" height="2819" rx="20" ry="20" stroke-width="2" pointer-events="none" stroke="#1d8a8e" fill="#ffffff" stroke-dasharray=""></rect><text  id="v-1438" font-size="33.599999999999994px" xml:space="preserve" y="2780" font-weight="bold" text-anchor="start" pointer-events="visible" font-family="Open Sans, Tahoma, Arial" fill="#1168bd" transform="matrix(1,0,0,1,15,0)"><tspan dy="0" >VITALIA SAAS</tspan></text><text  id="v-1439" font-size="16.799999999999997px" xml:space="preserve" y="2804" font-weight="normal" text-anchor="start" pointer-events="visible" font-family="Open Sans, Tahoma, Arial" fill="#1168bd" transform="matrix(1,0,0,1,15,0)"><tspan dy="0" >[Software System]</tspan></text><image  id="v-1440" pointer-events="visible"></image></g></g><!--z-index:47--><g   id="j_117"  transform="translate(2115,180)" style=""><g  id="v-1429" style="opacity: 1;"><rect  id="v-1430" rx="20" ry="20" stroke-width="2" pointer-events="visiblePainted" fill="#1a1f1f" stroke="#171c1c" stroke-dasharray="" width="450" height="300"></rect><text  id="v-1431" font-size="33.599999999999994px" xml:space="preserve" y="81.14000000000001" font-weight="bold" text-anchor="middle" pointer-events="visible" font-family="Open Sans, Tahoma, Arial" fill="#ffffff" dominant-baseline="hanging" transform="matrix(1,0,0,1,225,0)"><tspan dy="0" >DASHBOARDS &amp;</tspan><tspan dy="1.2em" x="0" >ANALYTICS</tspan></text><text  id="v-1432" font-size="16.799999999999997px" xml:space="preserve" y="163.06" text-anchor="middle" font-family="Open Sans, Tahoma, Arial" fill="#ffffff" dominant-baseline="hanging" transform="matrix(1,0,0,1,225,0)" style="display: block;"><tspan dy="0" >[Container: Node.Js / Python]</tspan></text><text  id="v-1433" font-size="24px" xml:space="preserve" y="194.86" text-anchor="middle" font-family="Open Sans, Tahoma, Arial" fill="#ffffff" dominant-baseline="hanging" transform="matrix(1,0,0,1,225,0)" style="display: block;"><tspan dy="0" >Agendamiento y tiempos</tspan></text><g  id="v-1434" color="#ffffff" transform="matrix(1,0,0,1,222.5,268)" display="none"><g ></g><g ></g><g ></g><g ></g></g><image  id="v-1435"></image></g></g><!--z-index:48--><g   id="j_120"  transform="translate(220,760)" style=""><g id="v-1448"><rect  id="v-1449" width="4240" height="1619" rx="20" ry="20" stroke-width="2" pointer-events="none" stroke="#171c1c" fill="#ffffff" stroke-dasharray=""></rect><text  id="v-1450" font-size="33.599999999999994px" xml:space="preserve" y="1580" font-weight="bold" text-anchor="start" pointer-events="visible" font-family="Open Sans, Tahoma, Arial" fill="#438dd5" transform="matrix(1,0,0,1,15,0)"><tspan dy="0" >DASHBOARD &amp; ANALYTICS CONTEXT</tspan></text><text  id="v-1451" font-size="16.799999999999997px" xml:space="preserve" y="1604" font-weight="normal" text-anchor="start" pointer-events="visible" font-family="Open Sans, Tahoma, Arial" fill="#438dd5" transform="matrix(1,0,0,1,15,0)"><tspan dy="0" >[Container]</tspan></text><image  id="v-1452" pointer-events="visible"></image></g></g><!--z-index:49--><g   id="j_128"  transform="translate(2115,2580)" style=""><g  id="v-1529" style="opacity: 1;"><path  d="M 0,30 a 225,30 0,0,0 450 0 a 225,30 0,0,0 -450 0 l 0,240 a 225,30 0,0,0 450 0 l 0,-240" id="v-1530" stroke-width="2" pointer-events="visiblePainted" fill="#c77646" stroke="#b36a3f" stroke-dasharray=""></path><rect  id="v-1531" stroke-width="0" pointer-events="visiblePainted" fill="none" stroke="none" width="450" height="270" x="0" y="30"></rect><text  id="v-1532" font-size="33.599999999999994px" xml:space="preserve" y="116.30000000000001" font-weight="bold" text-anchor="middle" pointer-events="visible" font-family="Open Sans, Tahoma, Arial" fill="#ffffff" dominant-baseline="hanging" transform="matrix(1,0,0,1,225,0)"><tspan dy="0" >DATABASE</tspan></text><text  id="v-1533" font-size="16.799999999999997px" xml:space="preserve" y="157.9" text-anchor="middle" font-family="Open Sans, Tahoma, Arial" fill="#ffffff" dominant-baseline="hanging" transform="matrix(1,0,0,1,225,0)" style="display: block;"><tspan dy="0" >[Container: MySQL]</tspan></text><text  id="v-1534" font-size="24px" xml:space="preserve" y="189.7" text-anchor="middle" font-family="Open Sans, Tahoma, Arial" fill="#ffffff" dominant-baseline="hanging" transform="matrix(1,0,0,1,225,0)" style="display: block;"><tspan dy="0" >Base de datos de Vitalia</tspan></text><g  id="v-1535" font-weight="normal" text-anchor="middle" color="#ffffff" transform="matrix(1,0,0,1,222.5,268)" display="none"><g ></g><g ></g><g ></g><g ></g></g><image  id="v-1536"></image></g></g><!--z-index:50--><g   id="j_119"  transform="translate(2115,780)" style=""><g  id="v-1441" style="opacity: 1;"><rect  id="v-1442" rx="20" ry="20" stroke-width="2" pointer-events="visiblePainted" fill="#a6cf58" stroke="#95ba4f" stroke-dasharray="" width="450" height="300"></rect><text  id="v-1443" font-size="33.599999999999994px" xml:space="preserve" y="101.30000000000001" font-weight="bold" text-anchor="middle" pointer-events="visible" font-family="Open Sans, Tahoma, Arial" fill="#121212" dominant-baseline="hanging" transform="matrix(1,0,0,1,225,0)"><tspan dy="0" >CONTROLLER</tspan></text><text  id="v-1444" font-size="16.799999999999997px" xml:space="preserve" y="142.9" text-anchor="middle" font-family="Open Sans, Tahoma, Arial" fill="#121212" dominant-baseline="hanging" transform="matrix(1,0,0,1,225,0)" style="display: block;"><tspan dy="0" >[Component: Node.js (NestJS)]</tspan></text><text  id="v-1445" font-size="24px" xml:space="preserve" y="174.7" text-anchor="middle" font-family="Open Sans, Tahoma, Arial" fill="#121212" dominant-baseline="hanging" transform="matrix(1,0,0,1,225,0)" style="display: block;"><tspan dy="0" >Expone endpoints REST</tspan></text><g  id="v-1446" color="#121212" transform="matrix(1,0,0,1,222.5,268)" display="none"><g ></g><g ></g><g ></g><g ></g></g><image  id="v-1447"></image></g></g><!--z-index:51--><g   id="j_121"  transform="translate(240,1380)" style=""><g  id="v-1459" style="opacity: 1;"><rect  id="v-1460" rx="20" ry="20" stroke-width="2" pointer-events="visiblePainted" fill="#a6cf58" stroke="#95ba4f" stroke-dasharray="" width="450" height="300"></rect><text  id="v-1461" font-size="33.599999999999994px" xml:space="preserve" y="101.30000000000001" font-weight="bold" text-anchor="middle" pointer-events="visible" font-family="Open Sans, Tahoma, Arial" fill="#121212" dominant-baseline="hanging" transform="matrix(1,0,0,1,225,0)"><tspan dy="0" >ANALYTICS ENGINE</tspan></text><text  id="v-1462" font-size="16.799999999999997px" xml:space="preserve" y="142.9" text-anchor="middle" font-family="Open Sans, Tahoma, Arial" fill="#121212" dominant-baseline="hanging" transform="matrix(1,0,0,1,225,0)" style="display: block;"><tspan dy="0" >[Component: Node.js (NestJS)]</tspan></text><text  id="v-1463" font-size="24px" xml:space="preserve" y="174.7" text-anchor="middle" font-family="Open Sans, Tahoma, Arial" fill="#121212" dominant-baseline="hanging" transform="matrix(1,0,0,1,225,0)" style="display: block;"><tspan dy="0" >Procesamiento de métricas</tspan></text><g  id="v-1464" color="#121212" transform="matrix(1,0,0,1,222.5,268)" display="none"><g ></g><g ></g><g ></g><g ></g></g><image  id="v-1465"></image></g></g><!--z-index:52--><g   id="j_122"  transform="translate(990,1380)" style=""><g  id="v-1472" style="opacity: 1;"><rect  id="v-1473" rx="20" ry="20" stroke-width="2" pointer-events="visiblePainted" fill="#a6cf58" stroke="#95ba4f" stroke-dasharray="" width="450" height="300"></rect><text  id="v-1474" font-size="33.599999999999994px" xml:space="preserve" y="101.30000000000001" font-weight="bold" text-anchor="middle" pointer-events="visible" font-family="Open Sans, Tahoma, Arial" fill="#121212" dominant-baseline="hanging" transform="matrix(1,0,0,1,225,0)"><tspan dy="0" >REPORT GENERATION</tspan></text><text  id="v-1475" font-size="16.799999999999997px" xml:space="preserve" y="142.9" text-anchor="middle" font-family="Open Sans, Tahoma, Arial" fill="#121212" dominant-baseline="hanging" transform="matrix(1,0,0,1,225,0)" style="display: block;"><tspan dy="0" >[Component: Node.js (NestJS)]</tspan></text><text  id="v-1476" font-size="24px" xml:space="preserve" y="174.7" text-anchor="middle" font-family="Open Sans, Tahoma, Arial" fill="#121212" dominant-baseline="hanging" transform="matrix(1,0,0,1,225,0)" style="display: block;"><tspan dy="0" >Generación de reportes</tspan></text><g  id="v-1477" color="#121212" transform="matrix(1,0,0,1,222.5,268)" display="none"><g ></g><g ></g><g ></g><g ></g></g><image  id="v-1478"></image></g></g><!--z-index:53--><g   id="j_123"  transform="translate(1740,1380)" style=""><g  id="v-1482" style="opacity: 1;"><rect  id="v-1483" rx="20" ry="20" stroke-width="2" pointer-events="visiblePainted" fill="#a6cf58" stroke="#95ba4f" stroke-dasharray="" width="450" height="300"></rect><text  id="v-1484" font-size="33.599999999999994px" xml:space="preserve" y="101.30000000000001" font-weight="bold" text-anchor="middle" pointer-events="visible" font-family="Open Sans, Tahoma, Arial" fill="#121212" dominant-baseline="hanging" transform="matrix(1,0,0,1,225,0)"><tspan dy="0" >METRICS QUERY</tspan></text><text  id="v-1485" font-size="16.799999999999997px" xml:space="preserve" y="142.9" text-anchor="middle" font-family="Open Sans, Tahoma, Arial" fill="#121212" dominant-baseline="hanging" transform="matrix(1,0,0,1,225,0)" style="display: block;"><tspan dy="0" >[Component: Node.js (NestJS)]</tspan></text><text  id="v-1486" font-size="24px" xml:space="preserve" y="174.7" text-anchor="middle" font-family="Open Sans, Tahoma, Arial" fill="#121212" dominant-baseline="hanging" transform="matrix(1,0,0,1,225,0)" style="display: block;"><tspan dy="0" >Consulta de métricas del sistema</tspan></text><g  id="v-1487" color="#121212" transform="matrix(1,0,0,1,222.5,268)" display="none"><g ></g><g ></g><g ></g><g ></g></g><image  id="v-1488"></image></g></g><!--z-index:54--><g   id="j_124"  transform="translate(2490,1380)" style=""><g  id="v-1492" style="opacity: 1;"><rect  id="v-1493" rx="20" ry="20" stroke-width="2" pointer-events="visiblePainted" fill="#a6cf58" stroke="#95ba4f" stroke-dasharray="" width="450" height="300"></rect><text  id="v-1494" font-size="33.599999999999994px" xml:space="preserve" y="86.9" font-weight="bold" text-anchor="middle" pointer-events="visible" font-family="Open Sans, Tahoma, Arial" fill="#121212" dominant-baseline="hanging" transform="matrix(1,0,0,1,225,0)"><tspan dy="0" >REPORT EXPORT</tspan></text><text  id="v-1495" font-size="16.799999999999997px" xml:space="preserve" y="128.5" text-anchor="middle" font-family="Open Sans, Tahoma, Arial" fill="#121212" dominant-baseline="hanging" transform="matrix(1,0,0,1,225,0)" style="display: block;"><tspan dy="0" >[Component: Node.js (NestJS)]</tspan></text><text  id="v-1496" font-size="24px" xml:space="preserve" y="160.3" text-anchor="middle" font-family="Open Sans, Tahoma, Arial" fill="#121212" dominant-baseline="hanging" transform="matrix(1,0,0,1,225,0)" style="display: block;"><tspan dy="0" >Exportación y descarga de</tspan><tspan dy="1.2em" x="0" >reportes</tspan></text><g  id="v-1497" color="#121212" transform="matrix(1,0,0,1,222.5,268)" display="none"><g ></g><g ></g><g ></g><g ></g></g><image  id="v-1498"></image></g></g><!--z-index:55--><g   id="j_125"  transform="translate(3240,1380)" style=""><g  id="v-1499" style="opacity: 1;"><rect  id="v-1500" rx="20" ry="20" stroke-width="2" pointer-events="visiblePainted" fill="#a6cf58" stroke="#95ba4f" stroke-dasharray="" width="450" height="300"></rect><text  id="v-1501" font-size="33.599999999999994px" xml:space="preserve" y="101.30000000000001" font-weight="bold" text-anchor="middle" pointer-events="visible" font-family="Open Sans, Tahoma, Arial" fill="#121212" dominant-baseline="hanging" transform="matrix(1,0,0,1,225,0)"><tspan dy="0" >REPORT DELIVERY</tspan></text><text  id="v-1502" font-size="16.799999999999997px" xml:space="preserve" y="142.9" text-anchor="middle" font-family="Open Sans, Tahoma, Arial" fill="#121212" dominant-baseline="hanging" transform="matrix(1,0,0,1,225,0)" style="display: block;"><tspan dy="0" >[Component: Node.js (NestJS)]</tspan></text><text  id="v-1503" font-size="24px" xml:space="preserve" y="174.7" text-anchor="middle" font-family="Open Sans, Tahoma, Arial" fill="#121212" dominant-baseline="hanging" transform="matrix(1,0,0,1,225,0)" style="display: block;"><tspan dy="0" >Envío de reportes</tspan></text><g  id="v-1504" color="#121212" transform="matrix(1,0,0,1,222.5,268)" display="none"><g ></g><g ></g><g ></g><g ></g></g><image  id="v-1505"></image></g></g><!--z-index:56--><g   id="j_126"  transform="translate(3990,1380)" style=""><g  id="v-1512" style="opacity: 1;"><rect  id="v-1513" rx="20" ry="20" stroke-width="2" pointer-events="visiblePainted" fill="#a6cf58" stroke="#95ba4f" stroke-dasharray="" width="450" height="300"></rect><text  id="v-1514" font-size="33.599999999999994px" xml:space="preserve" y="101.30000000000001" font-weight="bold" text-anchor="middle" pointer-events="visible" font-family="Open Sans, Tahoma, Arial" fill="#121212" dominant-baseline="hanging" transform="matrix(1,0,0,1,225,0)"><tspan dy="0" >REPORT COMPARISON</tspan></text><text  id="v-1515" font-size="16.799999999999997px" xml:space="preserve" y="142.9" text-anchor="middle" font-family="Open Sans, Tahoma, Arial" fill="#121212" dominant-baseline="hanging" transform="matrix(1,0,0,1,225,0)" style="display: block;"><tspan dy="0" >[Component: Node.js (NestJS)]</tspan></text><text  id="v-1516" font-size="24px" xml:space="preserve" y="174.7" text-anchor="middle" font-family="Open Sans, Tahoma, Arial" fill="#121212" dominant-baseline="hanging" transform="matrix(1,0,0,1,225,0)" style="display: block;"><tspan dy="0" >Comparación de reportes</tspan></text><g  id="v-1517" color="#121212" transform="matrix(1,0,0,1,222.5,268)" display="none"><g ></g><g ></g><g ></g><g ></g></g><image  id="v-1518"></image></g></g><!--z-index:57--><g   id="j_127"  transform="translate(2115,1980)" style=""><g  id="v-1519" style="opacity: 1;"><rect  id="v-1520" rx="20" ry="20" stroke-width="2" pointer-events="visiblePainted" fill="#a6cf58" stroke="#95ba4f" stroke-dasharray="" width="450" height="300"></rect><text  id="v-1521" font-size="33.599999999999994px" xml:space="preserve" y="101.30000000000001" font-weight="bold" text-anchor="middle" pointer-events="visible" font-family="Open Sans, Tahoma, Arial" fill="#121212" dominant-baseline="hanging" transform="matrix(1,0,0,1,225,0)"><tspan dy="0" >DB CONECTOR</tspan></text><text  id="v-1522" font-size="16.799999999999997px" xml:space="preserve" y="142.9" text-anchor="middle" font-family="Open Sans, Tahoma, Arial" fill="#121212" dominant-baseline="hanging" transform="matrix(1,0,0,1,225,0)" style="display: block;"><tspan dy="0" >[Component: Node.js]</tspan></text><text  id="v-1523" font-size="24px" xml:space="preserve" y="174.7" text-anchor="middle" font-family="Open Sans, Tahoma, Arial" fill="#121212" dominant-baseline="hanging" transform="matrix(1,0,0,1,225,0)" style="display: block;"><tspan dy="0" >Acceso a datos</tspan></text><g  id="v-1524" color="#121212" transform="matrix(1,0,0,1,222.5,268)" display="none"><g ></g><g ></g><g ></g><g ></g></g><image  id="v-1525"></image></g></g><!--z-index:58--><g   id="j_129" ><path  stroke="#444444" d="M 2340 480 L 2340 780" id="v-1546" stroke-width="2" stroke-dasharray="8 8" fill="none" style="opacity: 1;"></path><path  fill="black" stroke="black" d="M 0 0 0 0" transform="matrix(6.123233995736766e-17,1,-1,6.123233995736766e-17,2340,480)"></path><path  fill="#444444" stroke="#444444" d="M 20 0 L 0 10 L 20 20 z" id="v-1548" transform="matrix(-1.8369701987210297e-16,-1,1,-1.8369701987210297e-16,2330,780)" style="opacity: 1;"></path><path  d="M 2340 480 L 2340 780" id="v-1547" fill="none" style="cursor: auto; pointer-events: visiblepainted;"></path><g ><g id="v-1540"  label-idx="0" cursor="move" transform="matrix(1,0,0,1,2340,630)" style="cursor: default; opacity: 1;"><rect joint-selector="rect" id="v-1543" fill="#ffffff" rx="3" ry="3" pointer-events="none" width="55.32304382324219" height="31.714298248291016" transform="matrix(1,0,0,1,-27.7,-15.8)"></rect><text joint-selector="text" id="v-1542" font-size="24px" xml:space="preserve" y="0.8em" fill="#444444" text-anchor="middle" pointer-events="none" font-family="Open Sans, Tahoma, Arial" font-weight="normal" transform="matrix(1,0,0,1,0,-10.1)"><tspan dy="0" >[use]</tspan></text></g><g id="v-1541"  label-idx="1" cursor="move" transform="matrix(1,0,0,1,2330,642)" style="cursor: default; opacity: 1;"><rect joint-selector="rect" id="v-1545" fill="#ffffff" rx="3" ry="3"  width="0" height="0" transform="matrix(1,0,0,1,0,0)" display="none"></rect><text joint-selector="text" id="v-1544" fill="#000000" font-size="14" text-anchor="middle" pointer-events="none"></text></g></g><g  display="none" style="display: none;"></g><g  id="v-1550" display="none"><g  id="v-1538"><path  end="source" d="M 26 0 L 0 13 L 26 26 z"></path></g><g  id="v-1539"><path  end="target" d="M 26 0 L 0 13 L 26 26 z"></path></g></g><g  id="v-1549" display="none"><g  id="v-1537" transform="translate(2340, 520) "><g  event="remove"><circle r="11"></circle><path transform="scale(.8) translate(-16, -16)" d="M24.778,21.419 19.276,15.917 24.777,10.415 21.949,7.585 16.447,13.087 10.945,7.585 8.117,10.415 13.618,15.917 8.116,21.419 10.946,24.248 16.447,18.746 21.948,24.248z"></path><title>Remove link.</title></g><g  event="link:options"><circle r="11" transform="translate(25)"></circle><path fill="white" transform="scale(.55) translate(29, -16)" d="M31.229,17.736c0.064-0.571,0.104-1.148,0.104-1.736s-0.04-1.166-0.104-1.737l-4.377-1.557c-0.218-0.716-0.504-1.401-0.851-2.05l1.993-4.192c-0.725-0.91-1.549-1.734-2.458-2.459l-4.193,1.994c-0.647-0.347-1.334-0.632-2.049-0.849l-1.558-4.378C17.165,0.708,16.588,0.667,16,0.667s-1.166,0.041-1.737,0.105L12.707,5.15c-0.716,0.217-1.401,0.502-2.05,0.849L6.464,4.005C5.554,4.73,4.73,5.554,4.005,6.464l1.994,4.192c-0.347,0.648-0.632,1.334-0.849,2.05l-4.378,1.557C0.708,14.834,0.667,15.412,0.667,16s0.041,1.165,0.105,1.736l4.378,1.558c0.217,0.715,0.502,1.401,0.849,2.049l-1.994,4.193c0.725,0.909,1.549,1.733,2.459,2.458l4.192-1.993c0.648,0.347,1.334,0.633,2.05,0.851l1.557,4.377c0.571,0.064,1.148,0.104,1.737,0.104c0.588,0,1.165-0.04,1.736-0.104l1.558-4.377c0.715-0.218,1.399-0.504,2.049-0.851l4.193,1.993c0.909-0.725,1.733-1.549,2.458-2.458l-1.993-4.193c0.347-0.647,0.633-1.334,0.851-2.049L31.229,17.736zM16,20.871c-2.69,0-4.872-2.182-4.872-4.871c0-2.69,2.182-4.872,4.872-4.872c2.689,0,4.871,2.182,4.871,4.872C20.871,18.689,18.689,20.871,16,20.871z"></path><title>Link options.</title></g></g></g></g><!--z-index:59--><g   id="j_130" ><path  stroke="#444444" d="M 2115 998 L 850 1377 C 843.3333333333333 1379 837 1381.3333333333333 831 1384 L 690 1440" id="v-1561" stroke-width="2" stroke-dasharray="8 8" fill="none" style="opacity: 1;"></path><path  fill="black" stroke="black" d="M 0 0 0 0" transform="matrix(-0.9578262599768823,0.2873479697138956,-0.2873479697138956,-0.9578262599768823,2115,997.5)"></path><path  fill="#444444" stroke="#444444" d="M 20 0 L 0 10 L 20 20 z" id="v-1563" transform="matrix(0.9284766089996245,-0.3713908810681253,0.3713908810681253,0.9284766089996245,686.2861151383851,1430.7152755331851)" style="opacity: 1;"></path><path  d="M 2115 998 L 850 1377 C 843.3333333333333 1379 837 1381.3333333333333 831 1384 L 690 1440" id="v-1562" fill="none" style="cursor: auto; pointer-events: visiblepainted;"></path><g ><g id="v-1555"  label-idx="0" cursor="move" transform="matrix(1,0,0,1,1400.130126953125,1212.178466796875)" style="cursor: default; opacity: 1;"><rect joint-selector="rect" id="v-1558" fill="#ffffff" rx="3" ry="3" pointer-events="none" width="55.32304382324219" height="31.714298248291016" transform="matrix(1,0,0,1,-27.7,-15.8)"></rect><text joint-selector="text" id="v-1557" font-size="24px" xml:space="preserve" y="0.8em" fill="#444444" text-anchor="middle" pointer-events="none" font-family="Open Sans, Tahoma, Arial" font-weight="normal" transform="matrix(1,0,0,1,0,-10.1)"><tspan dy="0" >[use]</tspan></text></g><g id="v-1556"  label-idx="1" cursor="move" transform="matrix(1,0,0,1,1390.130126953125,1224.178466796875)" style="cursor: default; opacity: 1;"><rect joint-selector="rect" id="v-1560" fill="#ffffff" rx="3" ry="3"  width="0" height="0" transform="matrix(1,0,0,1,0,0)" display="none"></rect><text joint-selector="text" id="v-1559" fill="#000000" font-size="14" text-anchor="middle" pointer-events="none"></text></g></g><g  display="none" style="display: none;"><g  transform="translate(840, 1380)" id="v-1768"><circle  idx="0" r="10"></circle><path  idx="0" d="M16,5.333c-7.732,0-14,4.701-14,10.5c0,1.982,0.741,3.833,2.016,5.414L2,25.667l5.613-1.441c2.339,1.317,5.237,2.107,8.387,2.107c7.732,0,14-4.701,14-10.5C30,10.034,23.732,5.333,16,5.333z" transform="translate(5, -33)"></path><path  idx="0" transform="scale(.8) translate(9.5, -37)" d="M24.778,21.419 19.276,15.917 24.777,10.415 21.949,7.585 16.447,13.087 10.945,7.585 8.117,10.415 13.618,15.917 8.116,21.419 10.946,24.248 16.447,18.746 21.948,24.248z"><title>Remove vertex.</title></path></g></g><g  id="v-1565" display="none"><g  id="v-1553"><path  end="source" d="M 26 0 L 0 13 L 26 26 z"></path></g><g  id="v-1554"><path  end="target" d="M 26 0 L 0 13 L 26 26 z"></path></g></g><g  id="v-1564" display="none"><g  id="v-1551" transform="translate(2076.682782722092, 1009.4800200382034) "><g  event="remove"><circle r="11"></circle><path transform="scale(.8) translate(-16, -16)" d="M24.778,21.419 19.276,15.917 24.777,10.415 21.949,7.585 16.447,13.087 10.945,7.585 8.117,10.415 13.618,15.917 8.116,21.419 10.946,24.248 16.447,18.746 21.948,24.248z"></path><title>Remove link.</title></g><g  event="link:options"><circle r="11" transform="translate(25)"></circle><path fill="white" transform="scale(.55) translate(29, -16)" d="M31.229,17.736c0.064-0.571,0.104-1.148,0.104-1.736s-0.04-1.166-0.104-1.737l-4.377-1.557c-0.218-0.716-0.504-1.401-0.851-2.05l1.993-4.192c-0.725-0.91-1.549-1.734-2.458-2.459l-4.193,1.994c-0.647-0.347-1.334-0.632-2.049-0.849l-1.558-4.378C17.165,0.708,16.588,0.667,16,0.667s-1.166,0.041-1.737,0.105L12.707,5.15c-0.716,0.217-1.401,0.502-2.05,0.849L6.464,4.005C5.554,4.73,4.73,5.554,4.005,6.464l1.994,4.192c-0.347,0.648-0.632,1.334-0.849,2.05l-4.378,1.557C0.708,14.834,0.667,15.412,0.667,16s0.041,1.165,0.105,1.736l4.378,1.558c0.217,0.715,0.502,1.401,0.849,2.049l-1.994,4.193c0.725,0.909,1.549,1.733,2.459,2.458l4.192-1.993c0.648,0.347,1.334,0.633,2.05,0.851l1.557,4.377c0.571,0.064,1.148,0.104,1.737,0.104c0.588,0,1.165-0.04,1.736-0.104l1.558-4.377c0.715-0.218,1.399-0.504,2.049-0.851l4.193,1.993c0.909-0.725,1.733-1.549,2.458-2.458l-1.993-4.193c0.347-0.647,0.633-1.334,0.851-2.049L31.229,17.736zM16,20.871c-2.69,0-4.872-2.182-4.872-4.871c0-2.69,2.182-4.872,4.872-4.872c2.689,0,4.871,2.182,4.871,4.872C20.871,18.689,18.689,20.871,16,20.871z"></path><title>Link options.</title></g></g></g></g><!--z-index:60--><g   id="j_131" ><path  stroke="#444444" d="M 2115 1050 L 1440 1410" id="v-1575" stroke-width="2" stroke-dasharray="8 8" fill="none" style="opacity: 1;"></path><path  fill="black" stroke="black" d="M 0 0 0 0" transform="matrix(-0.8823528789936014,0.47058835188697895,-0.47058835188697895,-0.8823528789936014,2115,1050)"></path><path  fill="#444444" stroke="#444444" d="M 20 0 L 0 10 L 20 20 z" id="v-1577" transform="matrix(0.8823530043188289,-0.4705881169021767,0.4705881169021767,0.8823530043188289,1435.294075115915,1401.176418508646)" style="opacity: 1;"></path><path  d="M 2115 1050 L 1440 1410" id="v-1576" fill="none" style="cursor: auto; pointer-events: visiblepainted;"></path><g ><g id="v-1569"  label-idx="0" cursor="move" transform="matrix(1,0,0,1,1777.5,1230)" style="cursor: default; opacity: 1;"><rect joint-selector="rect" id="v-1572" fill="#ffffff" rx="3" ry="3" pointer-events="none" width="55.32304382324219" height="31.714298248291016" transform="matrix(1,0,0,1,-27.7,-15.8)"></rect><text joint-selector="text" id="v-1571" font-size="24px" xml:space="preserve" y="0.8em" fill="#444444" text-anchor="middle" pointer-events="none" font-family="Open Sans, Tahoma, Arial" font-weight="normal" transform="matrix(1,0,0,1,0,-10.1)"><tspan dy="0" >[use]</tspan></text></g><g id="v-1570"  label-idx="1" cursor="move" transform="matrix(1,0,0,1,1767.5,1242)" style="cursor: default; opacity: 1;"><rect joint-selector="rect" id="v-1574" fill="#ffffff" rx="3" ry="3"  width="0" height="0" transform="matrix(1,0,0,1,0,0)" display="none"></rect><text joint-selector="text" id="v-1573" fill="#000000" font-size="14" text-anchor="middle" pointer-events="none"></text></g></g><g  display="none" style="display: none;"></g><g  id="v-1579" display="none"><g  id="v-1567"><path  end="source" d="M 26 0 L 0 13 L 26 26 z"></path></g><g  id="v-1568"><path  end="target" d="M 26 0 L 0 13 L 26 26 z"></path></g></g><g  id="v-1578" display="none"><g  id="v-1566" transform="translate(2079.705882352941, 1068.8235294117646) "><g  event="remove"><circle r="11"></circle><path transform="scale(.8) translate(-16, -16)" d="M24.778,21.419 19.276,15.917 24.777,10.415 21.949,7.585 16.447,13.087 10.945,7.585 8.117,10.415 13.618,15.917 8.116,21.419 10.946,24.248 16.447,18.746 21.948,24.248z"></path><title>Remove link.</title></g><g  event="link:options"><circle r="11" transform="translate(25)"></circle><path fill="white" transform="scale(.55) translate(29, -16)" d="M31.229,17.736c0.064-0.571,0.104-1.148,0.104-1.736s-0.04-1.166-0.104-1.737l-4.377-1.557c-0.218-0.716-0.504-1.401-0.851-2.05l1.993-4.192c-0.725-0.91-1.549-1.734-2.458-2.459l-4.193,1.994c-0.647-0.347-1.334-0.632-2.049-0.849l-1.558-4.378C17.165,0.708,16.588,0.667,16,0.667s-1.166,0.041-1.737,0.105L12.707,5.15c-0.716,0.217-1.401,0.502-2.05,0.849L6.464,4.005C5.554,4.73,4.73,5.554,4.005,6.464l1.994,4.192c-0.347,0.648-0.632,1.334-0.849,2.05l-4.378,1.557C0.708,14.834,0.667,15.412,0.667,16s0.041,1.165,0.105,1.736l4.378,1.558c0.217,0.715,0.502,1.401,0.849,2.049l-1.994,4.193c0.725,0.909,1.549,1.733,2.459,2.458l4.192-1.993c0.648,0.347,1.334,0.633,2.05,0.851l1.557,4.377c0.571,0.064,1.148,0.104,1.737,0.104c0.588,0,1.165-0.04,1.736-0.104l1.558-4.377c0.715-0.218,1.399-0.504,2.049-0.851l4.193,1.993c0.909-0.725,1.733-1.549,2.458-2.458l-1.993-4.193c0.347-0.647,0.633-1.334,0.851-2.049L31.229,17.736zM16,20.871c-2.69,0-4.872-2.182-4.872-4.871c0-2.69,2.182-4.872,4.872-4.872c2.689,0,4.871,2.182,4.871,4.872C20.871,18.689,18.689,20.871,16,20.871z"></path><title>Link options.</title></g></g></g></g><!--z-index:61--><g   id="j_132" ><path  stroke="#444444" d="M 2246 1080 L 2059 1380" id="v-1589" stroke-width="2" stroke-dasharray="8 8" fill="none" style="opacity: 1;"></path><path  fill="black" stroke="black" d="M 0 0 0 0" transform="matrix(-0.5299989865422612,0.8479982749181605,-0.8479982749181605,-0.5299989865422612,2246.25,1080)"></path><path  fill="#444444" stroke="#444444" d="M 20 0 L 0 10 L 20 20 z" id="v-1591" transform="matrix(0.5299987607066415,-0.8479984160653982,0.8479984160653982,0.5299987607066415,2050.2700770604047,1374.7000160848377)" style="opacity: 1;"></path><path  d="M 2246 1080 L 2059 1380" id="v-1590" fill="none" style="cursor: auto; pointer-events: visiblepainted;"></path><g ><g id="v-1583"  label-idx="0" cursor="move" transform="matrix(1,0,0,1,2152.5,1230)" style="cursor: default; opacity: 1;"><rect joint-selector="rect" id="v-1586" fill="#ffffff" rx="3" ry="3" pointer-events="none" width="55.32304382324219" height="31.714298248291016" transform="matrix(1,0,0,1,-27.7,-15.8)"></rect><text joint-selector="text" id="v-1585" font-size="24px" xml:space="preserve" y="0.8em" fill="#444444" text-anchor="middle" pointer-events="none" font-family="Open Sans, Tahoma, Arial" font-weight="normal" transform="matrix(1,0,0,1,0,-10.1)"><tspan dy="0" >[use]</tspan></text></g><g id="v-1584"  label-idx="1" cursor="move" transform="matrix(1,0,0,1,2142.5,1242)" style="cursor: default; opacity: 1;"><rect joint-selector="rect" id="v-1588" fill="#ffffff" rx="3" ry="3"  width="0" height="0" transform="matrix(1,0,0,1,0,0)" display="none"></rect><text joint-selector="text" id="v-1587" fill="#000000" font-size="14" text-anchor="middle" pointer-events="none"></text></g></g><g  display="none" style="display: none;"></g><g  id="v-1593" display="none"><g  id="v-1581"><path  end="source" d="M 26 0 L 0 13 L 26 26 z"></path></g><g  id="v-1582"><path  end="target" d="M 26 0 L 0 13 L 26 26 z"></path></g></g><g  id="v-1592" display="none"><g  id="v-1580" transform="translate(2224.8407411961143, 1113.9453349794958) "><g  event="remove"><circle r="11"></circle><path transform="scale(.8) translate(-16, -16)" d="M24.778,21.419 19.276,15.917 24.777,10.415 21.949,7.585 16.447,13.087 10.945,7.585 8.117,10.415 13.618,15.917 8.116,21.419 10.946,24.248 16.447,18.746 21.948,24.248z"></path><title>Remove link.</title></g><g  event="link:options"><circle r="11" transform="translate(25)"></circle><path fill="white" transform="scale(.55) translate(29, -16)" d="M31.229,17.736c0.064-0.571,0.104-1.148,0.104-1.736s-0.04-1.166-0.104-1.737l-4.377-1.557c-0.218-0.716-0.504-1.401-0.851-2.05l1.993-4.192c-0.725-0.91-1.549-1.734-2.458-2.459l-4.193,1.994c-0.647-0.347-1.334-0.632-2.049-0.849l-1.558-4.378C17.165,0.708,16.588,0.667,16,0.667s-1.166,0.041-1.737,0.105L12.707,5.15c-0.716,0.217-1.401,0.502-2.05,0.849L6.464,4.005C5.554,4.73,4.73,5.554,4.005,6.464l1.994,4.192c-0.347,0.648-0.632,1.334-0.849,2.05l-4.378,1.557C0.708,14.834,0.667,15.412,0.667,16s0.041,1.165,0.105,1.736l4.378,1.558c0.217,0.715,0.502,1.401,0.849,2.049l-1.994,4.193c0.725,0.909,1.549,1.733,2.459,2.458l4.192-1.993c0.648,0.347,1.334,0.633,2.05,0.851l1.557,4.377c0.571,0.064,1.148,0.104,1.737,0.104c0.588,0,1.165-0.04,1.736-0.104l1.558-4.377c0.715-0.218,1.399-0.504,2.049-0.851l4.193,1.993c0.909-0.725,1.733-1.549,2.458-2.458l-1.993-4.193c0.347-0.647,0.633-1.334,0.851-2.049L31.229,17.736zM16,20.871c-2.69,0-4.872-2.182-4.872-4.871c0-2.69,2.182-4.872,4.872-4.872c2.689,0,4.871,2.182,4.871,4.872C20.871,18.689,18.689,20.871,16,20.871z"></path><title>Link options.</title></g></g></g></g><!--z-index:62--><g   id="j_133" ><path  stroke="#444444" d="M 2434 1080 L 2621 1380" id="v-1603" stroke-width="2" stroke-dasharray="8 8" fill="none" style="opacity: 1;"></path><path  fill="black" stroke="black" d="M 0 0 0 0" transform="matrix(0.52999893008336,0.8479983102049754,-0.8479983102049754,0.52999893008336,2433.75,1080)"></path><path  fill="#444444" stroke="#444444" d="M 20 0 L 0 10 L 20 20 z" id="v-1605" transform="matrix(-0.5299989865422614,-0.8479982749181603,0.8479982749181603,-0.5299989865422614,2612.769958288116,1385.2999921458543)" style="opacity: 1;"></path><path  d="M 2434 1080 L 2621 1380" id="v-1604" fill="none" style="cursor: auto; pointer-events: visiblepainted;"></path><g ><g id="v-1597"  label-idx="0" cursor="move" transform="matrix(1,0,0,1,2527.5,1230)" style="cursor: default; opacity: 1;"><rect joint-selector="rect" id="v-1600" fill="#ffffff" rx="3" ry="3" pointer-events="none" width="55.32304382324219" height="31.714298248291016" transform="matrix(1,0,0,1,-27.7,-15.8)"></rect><text joint-selector="text" id="v-1599" font-size="24px" xml:space="preserve" y="0.8em" fill="#444444" text-anchor="middle" pointer-events="none" font-family="Open Sans, Tahoma, Arial" font-weight="normal" transform="matrix(1,0,0,1,0,-10.1)"><tspan dy="0" >[use]</tspan></text></g><g id="v-1598"  label-idx="1" cursor="move" transform="matrix(1,0,0,1,2517.5,1242)" style="cursor: default; opacity: 1;"><rect joint-selector="rect" id="v-1602" fill="#ffffff" rx="3" ry="3"  width="0" height="0" transform="matrix(1,0,0,1,0,0)" display="none"></rect><text joint-selector="text" id="v-1601" fill="#000000" font-size="14" text-anchor="middle" pointer-events="none"></text></g></g><g  display="none" style="display: none;"></g><g  id="v-1607" display="none"><g  id="v-1595"><path  end="source" d="M 26 0 L 0 13 L 26 26 z"></path></g><g  id="v-1596"><path  end="target" d="M 26 0 L 0 13 L 26 26 z"></path></g></g><g  id="v-1606" display="none"><g  id="v-1594" transform="translate(2455.1592588038857, 1113.9453349794958) "><g  event="remove"><circle r="11"></circle><path transform="scale(.8) translate(-16, -16)" d="M24.778,21.419 19.276,15.917 24.777,10.415 21.949,7.585 16.447,13.087 10.945,7.585 8.117,10.415 13.618,15.917 8.116,21.419 10.946,24.248 16.447,18.746 21.948,24.248z"></path><title>Remove link.</title></g><g  event="link:options"><circle r="11" transform="translate(25)"></circle><path fill="white" transform="scale(.55) translate(29, -16)" d="M31.229,17.736c0.064-0.571,0.104-1.148,0.104-1.736s-0.04-1.166-0.104-1.737l-4.377-1.557c-0.218-0.716-0.504-1.401-0.851-2.05l1.993-4.192c-0.725-0.91-1.549-1.734-2.458-2.459l-4.193,1.994c-0.647-0.347-1.334-0.632-2.049-0.849l-1.558-4.378C17.165,0.708,16.588,0.667,16,0.667s-1.166,0.041-1.737,0.105L12.707,5.15c-0.716,0.217-1.401,0.502-2.05,0.849L6.464,4.005C5.554,4.73,4.73,5.554,4.005,6.464l1.994,4.192c-0.347,0.648-0.632,1.334-0.849,2.05l-4.378,1.557C0.708,14.834,0.667,15.412,0.667,16s0.041,1.165,0.105,1.736l4.378,1.558c0.217,0.715,0.502,1.401,0.849,2.049l-1.994,4.193c0.725,0.909,1.549,1.733,2.459,2.458l4.192-1.993c0.648,0.347,1.334,0.633,2.05,0.851l1.557,4.377c0.571,0.064,1.148,0.104,1.737,0.104c0.588,0,1.165-0.04,1.736-0.104l1.558-4.377c0.715-0.218,1.399-0.504,2.049-0.851l4.193,1.993c0.909-0.725,1.733-1.549,2.458-2.458l-1.993-4.193c0.347-0.647,0.633-1.334,0.851-2.049L31.229,17.736zM16,20.871c-2.69,0-4.872-2.182-4.872-4.871c0-2.69,2.182-4.872,4.872-4.872c2.689,0,4.871,2.182,4.871,4.872C20.871,18.689,18.689,20.871,16,20.871z"></path><title>Link options.</title></g></g></g></g><!--z-index:63--><g   id="j_134" ><path  stroke="#444444" d="M 2565 1050 L 3240 1410" id="v-1617" stroke-width="2" stroke-dasharray="8 8" fill="none" style="opacity: 1;"></path><path  fill="black" stroke="black" d="M 0 0 0 0" transform="matrix(0.882352941656223,0.47058823439458186,-0.47058823439458186,0.882352941656223,2565,1050)"></path><path  fill="#444444" stroke="#444444" d="M 20 0 L 0 10 L 20 20 z" id="v-1619" transform="matrix(-0.8823528789936015,-0.47058835188697873,0.47058835188697873,-0.8823528789936015,3235.294158942941,1418.8234796916183)" style="opacity: 1;"></path><path  d="M 2565 1050 L 3240 1410" id="v-1618" fill="none" style="cursor: auto; pointer-events: visiblepainted;"></path><g ><g id="v-1611"  label-idx="0" cursor="move" transform="matrix(1,0,0,1,2902.5,1230)" style="cursor: default; opacity: 1;"><rect joint-selector="rect" id="v-1614" fill="#ffffff" rx="3" ry="3" pointer-events="none" width="55.32304382324219" height="31.714298248291016" transform="matrix(1,0,0,1,-27.7,-15.8)"></rect><text joint-selector="text" id="v-1613" font-size="24px" xml:space="preserve" y="0.8em" fill="#444444" text-anchor="middle" pointer-events="none" font-family="Open Sans, Tahoma, Arial" font-weight="normal" transform="matrix(1,0,0,1,0,-10.1)"><tspan dy="0" >[use]</tspan></text></g><g id="v-1612"  label-idx="1" cursor="move" transform="matrix(1,0,0,1,2892.5,1242)" style="cursor: default; opacity: 1;"><rect joint-selector="rect" id="v-1616" fill="#ffffff" rx="3" ry="3"  width="0" height="0" transform="matrix(1,0,0,1,0,0)" display="none"></rect><text joint-selector="text" id="v-1615" fill="#000000" font-size="14" text-anchor="middle" pointer-events="none"></text></g></g><g  display="none" style="display: none;"></g><g  id="v-1621" display="none"><g  id="v-1609"><path  end="source" d="M 26 0 L 0 13 L 26 26 z"></path></g><g  id="v-1610"><path  end="target" d="M 26 0 L 0 13 L 26 26 z"></path></g></g><g  id="v-1620" display="none"><g  id="v-1608" transform="translate(2600.294117647059, 1068.8235294117646) "><g  event="remove"><circle r="11"></circle><path transform="scale(.8) translate(-16, -16)" d="M24.778,21.419 19.276,15.917 24.777,10.415 21.949,7.585 16.447,13.087 10.945,7.585 8.117,10.415 13.618,15.917 8.116,21.419 10.946,24.248 16.447,18.746 21.948,24.248z"></path><title>Remove link.</title></g><g  event="link:options"><circle r="11" transform="translate(25)"></circle><path fill="white" transform="scale(.55) translate(29, -16)" d="M31.229,17.736c0.064-0.571,0.104-1.148,0.104-1.736s-0.04-1.166-0.104-1.737l-4.377-1.557c-0.218-0.716-0.504-1.401-0.851-2.05l1.993-4.192c-0.725-0.91-1.549-1.734-2.458-2.459l-4.193,1.994c-0.647-0.347-1.334-0.632-2.049-0.849l-1.558-4.378C17.165,0.708,16.588,0.667,16,0.667s-1.166,0.041-1.737,0.105L12.707,5.15c-0.716,0.217-1.401,0.502-2.05,0.849L6.464,4.005C5.554,4.73,4.73,5.554,4.005,6.464l1.994,4.192c-0.347,0.648-0.632,1.334-0.849,2.05l-4.378,1.557C0.708,14.834,0.667,15.412,0.667,16s0.041,1.165,0.105,1.736l4.378,1.558c0.217,0.715,0.502,1.401,0.849,2.049l-1.994,4.193c0.725,0.909,1.549,1.733,2.459,2.458l4.192-1.993c0.648,0.347,1.334,0.633,2.05,0.851l1.557,4.377c0.571,0.064,1.148,0.104,1.737,0.104c0.588,0,1.165-0.04,1.736-0.104l1.558-4.377c0.715-0.218,1.399-0.504,2.049-0.851l4.193,1.993c0.909-0.725,1.733-1.549,2.458-2.458l-1.993-4.193c0.347-0.647,0.633-1.334,0.851-2.049L31.229,17.736zM16,20.871c-2.69,0-4.872-2.182-4.872-4.871c0-2.69,2.182-4.872,4.872-4.872c2.689,0,4.871,2.182,4.871,4.872C20.871,18.689,18.689,20.871,16,20.871z"></path><title>Link options.</title></g></g></g></g><!--z-index:64--><g   id="j_135" ><path  stroke="#444444" d="M 2565 998 L 3830 1377 C 3836.6666666666665 1379 3843 1381.3333333333333 3849 1384 L 3990 1440" id="v-1632" stroke-width="2" stroke-dasharray="8 8" fill="none" style="opacity: 1;"></path><path  fill="black" stroke="black" d="M 0 0 0 0" transform="matrix(0.9578262886739,0.28734787405718315,-0.28734787405718315,0.9578262886739,2565,997.5)"></path><path  fill="#444444" stroke="#444444" d="M 20 0 L 0 10 L 20 20 z" id="v-1634" transform="matrix(-0.928476707906966,-0.3713906337998342,0.3713906337998342,-0.928476707906966,3986.2861927723216,1449.284806229568)" style="opacity: 1;"></path><path  d="M 2565 998 L 3830 1377 C 3836.6666666666665 1379 3843 1381.3333333333333 3849 1384 L 3990 1440" id="v-1633" fill="none" style="cursor: auto; pointer-events: visiblepainted;"></path><g ><g id="v-1626"  label-idx="0" cursor="move" transform="matrix(1,0,0,1,3279.869873046875,1212.178466796875)" style="cursor: default; opacity: 1;"><rect joint-selector="rect" id="v-1629" fill="#ffffff" rx="3" ry="3" pointer-events="none" width="55.32304382324219" height="31.714298248291016" transform="matrix(1,0,0,1,-27.7,-15.8)"></rect><text joint-selector="text" id="v-1628" font-size="24px" xml:space="preserve" y="0.8em" fill="#444444" text-anchor="middle" pointer-events="none" font-family="Open Sans, Tahoma, Arial" font-weight="normal" transform="matrix(1,0,0,1,0,-10.1)"><tspan dy="0" >[use]</tspan></text></g><g id="v-1627"  label-idx="1" cursor="move" transform="matrix(1,0,0,1,3269.869873046875,1224.178466796875)" style="cursor: default; opacity: 1;"><rect joint-selector="rect" id="v-1631" fill="#ffffff" rx="3" ry="3"  width="0" height="0" transform="matrix(1,0,0,1,0,0)" display="none"></rect><text joint-selector="text" id="v-1630" fill="#000000" font-size="14" text-anchor="middle" pointer-events="none"></text></g></g><g  display="none" style="display: none;"><g  transform="translate(3840, 1380)" id="v-1769"><circle  idx="0" r="10"></circle><path  idx="0" d="M16,5.333c-7.732,0-14,4.701-14,10.5c0,1.982,0.741,3.833,2.016,5.414L2,25.667l5.613-1.441c2.339,1.317,5.237,2.107,8.387,2.107c7.732,0,14-4.701,14-10.5C30,10.034,23.732,5.333,16,5.333z" transform="translate(5, -33)"></path><path  idx="0" transform="scale(.8) translate(9.5, -37)" d="M24.778,21.419 19.276,15.917 24.777,10.415 21.949,7.585 16.447,13.087 10.945,7.585 8.117,10.415 13.618,15.917 8.116,21.419 10.946,24.248 16.447,18.746 21.948,24.248z"><title>Remove vertex.</title></path></g></g><g  id="v-1636" display="none"><g  id="v-1624"><path  end="source" d="M 26 0 L 0 13 L 26 26 z"></path></g><g  id="v-1625"><path  end="target" d="M 26 0 L 0 13 L 26 26 z"></path></g></g><g  id="v-1635" display="none"><g  id="v-1622" transform="translate(2603.3172172779086, 1009.4800200382034) "><g  event="remove"><circle r="11"></circle><path transform="scale(.8) translate(-16, -16)" d="M24.778,21.419 19.276,15.917 24.777,10.415 21.949,7.585 16.447,13.087 10.945,7.585 8.117,10.415 13.618,15.917 8.116,21.419 10.946,24.248 16.447,18.746 21.948,24.248z"></path><title>Remove link.</title></g><g  event="link:options"><circle r="11" transform="translate(25)"></circle><path fill="white" transform="scale(.55) translate(29, -16)" d="M31.229,17.736c0.064-0.571,0.104-1.148,0.104-1.736s-0.04-1.166-0.104-1.737l-4.377-1.557c-0.218-0.716-0.504-1.401-0.851-2.05l1.993-4.192c-0.725-0.91-1.549-1.734-2.458-2.459l-4.193,1.994c-0.647-0.347-1.334-0.632-2.049-0.849l-1.558-4.378C17.165,0.708,16.588,0.667,16,0.667s-1.166,0.041-1.737,0.105L12.707,5.15c-0.716,0.217-1.401,0.502-2.05,0.849L6.464,4.005C5.554,4.73,4.73,5.554,4.005,6.464l1.994,4.192c-0.347,0.648-0.632,1.334-0.849,2.05l-4.378,1.557C0.708,14.834,0.667,15.412,0.667,16s0.041,1.165,0.105,1.736l4.378,1.558c0.217,0.715,0.502,1.401,0.849,2.049l-1.994,4.193c0.725,0.909,1.549,1.733,2.459,2.458l4.192-1.993c0.648,0.347,1.334,0.633,2.05,0.851l1.557,4.377c0.571,0.064,1.148,0.104,1.737,0.104c0.588,0,1.165-0.04,1.736-0.104l1.558-4.377c0.715-0.218,1.399-0.504,2.049-0.851l4.193,1.993c0.909-0.725,1.733-1.549,2.458-2.458l-1.993-4.193c0.347-0.647,0.633-1.334,0.851-2.049L31.229,17.736zM16,20.871c-2.69,0-4.872-2.182-4.872-4.871c0-2.69,2.182-4.872,4.872-4.872c2.689,0,4.871,2.182,4.871,4.872C20.871,18.689,18.689,20.871,16,20.871z"></path><title>Link options.</title></g></g></g></g><!--z-index:65--><g   id="j_136" ><path  stroke="#444444" d="M 2059 1680 L 2246 1980" id="v-1649" stroke-width="2" stroke-dasharray="8 8" fill="none" style="opacity: 1;"></path><path  fill="black" stroke="black" d="M 0 0 0 0" transform="matrix(0.52999893008336,0.8479983102049754,-0.8479983102049754,0.52999893008336,2058.75,1680)"></path><path  fill="#444444" stroke="#444444" d="M 20 0 L 0 10 L 20 20 z" id="v-1651" transform="matrix(-0.5299989865422614,-0.8479982749181603,0.8479982749181603,-0.5299989865422614,2237.769958288116,1985.2999921458543)" style="opacity: 1;"></path><path  d="M 2059 1680 L 2246 1980" id="v-1650" fill="none" style="cursor: auto; pointer-events: visiblepainted;"></path><g ><g id="v-1643"  label-idx="0" cursor="move" transform="matrix(1,0,0,1,2152.5,1830)" style="cursor: default; opacity: 1;"><rect joint-selector="rect" id="v-1646" fill="#ffffff" rx="3" ry="3" pointer-events="none" width="169.65025329589844" height="31.714298248291016" transform="matrix(1,0,0,1,-84.8,-15.8)"></rect><text joint-selector="text" id="v-1645" font-size="24px" xml:space="preserve" y="0.8em" fill="#444444" text-anchor="middle" pointer-events="none" font-family="Open Sans, Tahoma, Arial" font-weight="normal" transform="matrix(1,0,0,1,0,-10.1)"><tspan dy="0" >[query metrics]</tspan></text></g><g id="v-1644"  label-idx="1" cursor="move" transform="matrix(1,0,0,1,2142.5,1842)" style="cursor: default; opacity: 1;"><rect joint-selector="rect" id="v-1648" fill="#ffffff" rx="3" ry="3"  width="0" height="0" transform="matrix(1,0,0,1,0,0)" display="none"></rect><text joint-selector="text" id="v-1647" fill="#000000" font-size="14" text-anchor="middle" pointer-events="none"></text></g></g><g  display="none" style="display: none;"></g><g  id="v-1653" display="none"><g  id="v-1641"><path  end="source" d="M 26 0 L 0 13 L 26 26 z"></path></g><g  id="v-1642"><path  end="target" d="M 26 0 L 0 13 L 26 26 z"></path></g></g><g  id="v-1652" display="none"><g  id="v-1640" transform="translate(2080.1592588038857, 1713.9453349794958) "><g  event="remove"><circle r="11"></circle><path transform="scale(.8) translate(-16, -16)" d="M24.778,21.419 19.276,15.917 24.777,10.415 21.949,7.585 16.447,13.087 10.945,7.585 8.117,10.415 13.618,15.917 8.116,21.419 10.946,24.248 16.447,18.746 21.948,24.248z"></path><title>Remove link.</title></g><g  event="link:options"><circle r="11" transform="translate(25)"></circle><path fill="white" transform="scale(.55) translate(29, -16)" d="M31.229,17.736c0.064-0.571,0.104-1.148,0.104-1.736s-0.04-1.166-0.104-1.737l-4.377-1.557c-0.218-0.716-0.504-1.401-0.851-2.05l1.993-4.192c-0.725-0.91-1.549-1.734-2.458-2.459l-4.193,1.994c-0.647-0.347-1.334-0.632-2.049-0.849l-1.558-4.378C17.165,0.708,16.588,0.667,16,0.667s-1.166,0.041-1.737,0.105L12.707,5.15c-0.716,0.217-1.401,0.502-2.05,0.849L6.464,4.005C5.554,4.73,4.73,5.554,4.005,6.464l1.994,4.192c-0.347,0.648-0.632,1.334-0.849,2.05l-4.378,1.557C0.708,14.834,0.667,15.412,0.667,16s0.041,1.165,0.105,1.736l4.378,1.558c0.217,0.715,0.502,1.401,0.849,2.049l-1.994,4.193c0.725,0.909,1.549,1.733,2.459,2.458l4.192-1.993c0.648,0.347,1.334,0.633,2.05,0.851l1.557,4.377c0.571,0.064,1.148,0.104,1.737,0.104c0.588,0,1.165-0.04,1.736-0.104l1.558-4.377c0.715-0.218,1.399-0.504,2.049-0.851l4.193,1.993c0.909-0.725,1.733-1.549,2.458-2.458l-1.993-4.193c0.347-0.647,0.633-1.334,0.851-2.049L31.229,17.736zM16,20.871c-2.69,0-4.872-2.182-4.872-4.871c0-2.69,2.182-4.872,4.872-4.872c2.689,0,4.871,2.182,4.871,4.872C20.871,18.689,18.689,20.871,16,20.871z"></path><title>Link options.</title></g></g></g></g><!--z-index:66--><g   id="j_137" ><path  stroke="#444444" d="M 1440 1650 L 2115 2010" id="v-1666" stroke-width="2" stroke-dasharray="8 8" fill="none" style="opacity: 1;"></path><path  fill="black" stroke="black" d="M 0 0 0 0" transform="matrix(0.882352941656223,0.47058823439458186,-0.47058823439458186,0.882352941656223,1440,1650)"></path><path  fill="#444444" stroke="#444444" d="M 20 0 L 0 10 L 20 20 z" id="v-1668" transform="matrix(-0.8823528789936015,-0.47058835188697873,0.47058835188697873,-0.8823528789936015,2110.294158942941,2018.8234796916183)" style="opacity: 1;"></path><path  d="M 1440 1650 L 2115 2010" id="v-1667" fill="none" style="cursor: auto; pointer-events: visiblepainted;"></path><g ><g id="v-1660"  label-idx="0" cursor="move" transform="matrix(1,0,0,1,1777.5,1830)" style="cursor: default; opacity: 1;"><rect joint-selector="rect" id="v-1663" fill="#ffffff" rx="3" ry="3" pointer-events="none" width="185.16439819335938" height="60.51429557800293" transform="matrix(1,0,0,1,-92.3,-30.2)"></rect><text joint-selector="text" id="v-1662" font-size="24px" xml:space="preserve" y="0.8em" fill="#444444" text-anchor="middle" pointer-events="none" font-family="Open Sans, Tahoma, Arial" font-weight="normal" transform="matrix(1,0,0,1,0,-24.5)"><tspan dy="0" >[generate report</tspan><tspan dy="1.2em" x="0" >data]</tspan></text></g><g id="v-1661"  label-idx="1" cursor="move" transform="matrix(1,0,0,1,1767.5,1856.4000244140625)" style="cursor: default; opacity: 1;"><rect joint-selector="rect" id="v-1665" fill="#ffffff" rx="3" ry="3"  width="0" height="0" transform="matrix(1,0,0,1,0,0)" display="none"></rect><text joint-selector="text" id="v-1664" fill="#000000" font-size="14" text-anchor="middle" pointer-events="none"></text></g></g><g  display="none" style="display: none;"></g><g  id="v-1670" display="none"><g  id="v-1658"><path  end="source" d="M 26 0 L 0 13 L 26 26 z"></path></g><g  id="v-1659"><path  end="target" d="M 26 0 L 0 13 L 26 26 z"></path></g></g><g  id="v-1669" display="none"><g  id="v-1657" transform="translate(1475.2941176470588, 1668.8235294117646) "><g  event="remove"><circle r="11"></circle><path transform="scale(.8) translate(-16, -16)" d="M24.778,21.419 19.276,15.917 24.777,10.415 21.949,7.585 16.447,13.087 10.945,7.585 8.117,10.415 13.618,15.917 8.116,21.419 10.946,24.248 16.447,18.746 21.948,24.248z"></path><title>Remove link.</title></g><g  event="link:options"><circle r="11" transform="translate(25)"></circle><path fill="white" transform="scale(.55) translate(29, -16)" d="M31.229,17.736c0.064-0.571,0.104-1.148,0.104-1.736s-0.04-1.166-0.104-1.737l-4.377-1.557c-0.218-0.716-0.504-1.401-0.851-2.05l1.993-4.192c-0.725-0.91-1.549-1.734-2.458-2.459l-4.193,1.994c-0.647-0.347-1.334-0.632-2.049-0.849l-1.558-4.378C17.165,0.708,16.588,0.667,16,0.667s-1.166,0.041-1.737,0.105L12.707,5.15c-0.716,0.217-1.401,0.502-2.05,0.849L6.464,4.005C5.554,4.73,4.73,5.554,4.005,6.464l1.994,4.192c-0.347,0.648-0.632,1.334-0.849,2.05l-4.378,1.557C0.708,14.834,0.667,15.412,0.667,16s0.041,1.165,0.105,1.736l4.378,1.558c0.217,0.715,0.502,1.401,0.849,2.049l-1.994,4.193c0.725,0.909,1.549,1.733,2.459,2.458l4.192-1.993c0.648,0.347,1.334,0.633,2.05,0.851l1.557,4.377c0.571,0.064,1.148,0.104,1.737,0.104c0.588,0,1.165-0.04,1.736-0.104l1.558-4.377c0.715-0.218,1.399-0.504,2.049-0.851l4.193,1.993c0.909-0.725,1.733-1.549,2.458-2.458l-1.993-4.193c0.347-0.647,0.633-1.334,0.851-2.049L31.229,17.736zM16,20.871c-2.69,0-4.872-2.182-4.872-4.871c0-2.69,2.182-4.872,4.872-4.872c2.689,0,4.871,2.182,4.871,4.872C20.871,18.689,18.689,20.871,16,20.871z"></path><title>Link options.</title></g></g></g></g><!--z-index:67--><g   id="j_138" ><path  stroke="#444444" d="M 2621 1680 L 2434 1980" id="v-1683" stroke-width="2" stroke-dasharray="8 8" fill="none" style="opacity: 1;"></path><path  fill="black" stroke="black" d="M 0 0 0 0" transform="matrix(-0.5299989865422612,0.8479982749181605,-0.8479982749181605,-0.5299989865422612,2621.25,1680)"></path><path  fill="#444444" stroke="#444444" d="M 20 0 L 0 10 L 20 20 z" id="v-1685" transform="matrix(0.5299987607066415,-0.8479984160653982,0.8479984160653982,0.5299987607066415,2425.2700770604047,1974.7000160848377)" style="opacity: 1;"></path><path  d="M 2621 1680 L 2434 1980" id="v-1684" fill="none" style="cursor: auto; pointer-events: visiblepainted;"></path><g ><g id="v-1677"  label-idx="0" cursor="move" transform="matrix(1,0,0,1,2527.5,1830)" style="cursor: default; opacity: 1;"><rect joint-selector="rect" id="v-1680" fill="#ffffff" rx="3" ry="3" pointer-events="none" width="136.6112518310547" height="60.51429557800293" transform="matrix(1,0,0,1,-68.1,-30.2)"></rect><text joint-selector="text" id="v-1679" font-size="24px" xml:space="preserve" y="0.8em" fill="#444444" text-anchor="middle" pointer-events="none" font-family="Open Sans, Tahoma, Arial" font-weight="normal" transform="matrix(1,0,0,1,0,-24.5)"><tspan dy="0" >[read report</tspan><tspan dy="1.2em" x="0" >data]</tspan></text></g><g id="v-1678"  label-idx="1" cursor="move" transform="matrix(1,0,0,1,2517.5,1856.4000244140625)" style="cursor: default; opacity: 1;"><rect joint-selector="rect" id="v-1682" fill="#ffffff" rx="3" ry="3"  width="0" height="0" transform="matrix(1,0,0,1,0,0)" display="none"></rect><text joint-selector="text" id="v-1681" fill="#000000" font-size="14" text-anchor="middle" pointer-events="none"></text></g></g><g  display="none" style="display: none;"></g><g  id="v-1687" display="none"><g  id="v-1675"><path  end="source" d="M 26 0 L 0 13 L 26 26 z"></path></g><g  id="v-1676"><path  end="target" d="M 26 0 L 0 13 L 26 26 z"></path></g></g><g  id="v-1686" display="none"><g  id="v-1674" transform="translate(2599.8407411961143, 1713.9453349794958) "><g  event="remove"><circle r="11"></circle><path transform="scale(.8) translate(-16, -16)" d="M24.778,21.419 19.276,15.917 24.777,10.415 21.949,7.585 16.447,13.087 10.945,7.585 8.117,10.415 13.618,15.917 8.116,21.419 10.946,24.248 16.447,18.746 21.948,24.248z"></path><title>Remove link.</title></g><g  event="link:options"><circle r="11" transform="translate(25)"></circle><path fill="white" transform="scale(.55) translate(29, -16)" d="M31.229,17.736c0.064-0.571,0.104-1.148,0.104-1.736s-0.04-1.166-0.104-1.737l-4.377-1.557c-0.218-0.716-0.504-1.401-0.851-2.05l1.993-4.192c-0.725-0.91-1.549-1.734-2.458-2.459l-4.193,1.994c-0.647-0.347-1.334-0.632-2.049-0.849l-1.558-4.378C17.165,0.708,16.588,0.667,16,0.667s-1.166,0.041-1.737,0.105L12.707,5.15c-0.716,0.217-1.401,0.502-2.05,0.849L6.464,4.005C5.554,4.73,4.73,5.554,4.005,6.464l1.994,4.192c-0.347,0.648-0.632,1.334-0.849,2.05l-4.378,1.557C0.708,14.834,0.667,15.412,0.667,16s0.041,1.165,0.105,1.736l4.378,1.558c0.217,0.715,0.502,1.401,0.849,2.049l-1.994,4.193c0.725,0.909,1.549,1.733,2.459,2.458l4.192-1.993c0.648,0.347,1.334,0.633,2.05,0.851l1.557,4.377c0.571,0.064,1.148,0.104,1.737,0.104c0.588,0,1.165-0.04,1.736-0.104l1.558-4.377c0.715-0.218,1.399-0.504,2.049-0.851l4.193,1.993c0.909-0.725,1.733-1.549,2.458-2.458l-1.993-4.193c0.347-0.647,0.633-1.334,0.851-2.049L31.229,17.736zM16,20.871c-2.69,0-4.872-2.182-4.872-4.871c0-2.69,2.182-4.872,4.872-4.872c2.689,0,4.871,2.182,4.871,4.872C20.871,18.689,18.689,20.871,16,20.871z"></path><title>Link options.</title></g></g></g></g><!--z-index:68--><g   id="j_139" ><path  stroke="#444444" d="M 3240 1650 L 2565 2010" id="v-1700" stroke-width="2" stroke-dasharray="8 8" fill="none" style="opacity: 1;"></path><path  fill="black" stroke="black" d="M 0 0 0 0" transform="matrix(-0.8823528789936014,0.47058835188697895,-0.47058835188697895,-0.8823528789936014,3240,1650)"></path><path  fill="#444444" stroke="#444444" d="M 20 0 L 0 10 L 20 20 z" id="v-1702" transform="matrix(0.8823530043188289,-0.4705881169021767,0.4705881169021767,0.8823530043188289,2560.294075115915,2001.176418508646)" style="opacity: 1;"></path><path  d="M 3240 1650 L 2565 2010" id="v-1701" fill="none" style="cursor: auto; pointer-events: visiblepainted;"></path><g ><g id="v-1694"  label-idx="0" cursor="move" transform="matrix(1,0,0,1,2902.5,1830)" style="cursor: default; opacity: 1;"><rect joint-selector="rect" id="v-1697" fill="#ffffff" rx="3" ry="3" pointer-events="none" width="183.1713104248047" height="31.714298248291016" transform="matrix(1,0,0,1,-91.6,-15.8)"></rect><text joint-selector="text" id="v-1696" font-size="24px" xml:space="preserve" y="0.8em" fill="#444444" text-anchor="middle" pointer-events="none" font-family="Open Sans, Tahoma, Arial" font-weight="normal" transform="matrix(1,0,0,1,0,-10.1)"><tspan dy="0" >[record delivery]</tspan></text></g><g id="v-1695"  label-idx="1" cursor="move" transform="matrix(1,0,0,1,2892.5,1842)" style="cursor: default; opacity: 1;"><rect joint-selector="rect" id="v-1699" fill="#ffffff" rx="3" ry="3"  width="0" height="0" transform="matrix(1,0,0,1,0,0)" display="none"></rect><text joint-selector="text" id="v-1698" fill="#000000" font-size="14" text-anchor="middle" pointer-events="none"></text></g></g><g  display="none" style="display: none;"></g><g  id="v-1704" display="none"><g  id="v-1692"><path  end="source" d="M 26 0 L 0 13 L 26 26 z"></path></g><g  id="v-1693"><path  end="target" d="M 26 0 L 0 13 L 26 26 z"></path></g></g><g  id="v-1703" display="none"><g  id="v-1691" transform="translate(3204.705882352941, 1668.8235294117646) "><g  event="remove"><circle r="11"></circle><path transform="scale(.8) translate(-16, -16)" d="M24.778,21.419 19.276,15.917 24.777,10.415 21.949,7.585 16.447,13.087 10.945,7.585 8.117,10.415 13.618,15.917 8.116,21.419 10.946,24.248 16.447,18.746 21.948,24.248z"></path><title>Remove link.</title></g><g  event="link:options"><circle r="11" transform="translate(25)"></circle><path fill="white" transform="scale(.55) translate(29, -16)" d="M31.229,17.736c0.064-0.571,0.104-1.148,0.104-1.736s-0.04-1.166-0.104-1.737l-4.377-1.557c-0.218-0.716-0.504-1.401-0.851-2.05l1.993-4.192c-0.725-0.91-1.549-1.734-2.458-2.459l-4.193,1.994c-0.647-0.347-1.334-0.632-2.049-0.849l-1.558-4.378C17.165,0.708,16.588,0.667,16,0.667s-1.166,0.041-1.737,0.105L12.707,5.15c-0.716,0.217-1.401,0.502-2.05,0.849L6.464,4.005C5.554,4.73,4.73,5.554,4.005,6.464l1.994,4.192c-0.347,0.648-0.632,1.334-0.849,2.05l-4.378,1.557C0.708,14.834,0.667,15.412,0.667,16s0.041,1.165,0.105,1.736l4.378,1.558c0.217,0.715,0.502,1.401,0.849,2.049l-1.994,4.193c0.725,0.909,1.549,1.733,2.459,2.458l4.192-1.993c0.648,0.347,1.334,0.633,2.05,0.851l1.557,4.377c0.571,0.064,1.148,0.104,1.737,0.104c0.588,0,1.165-0.04,1.736-0.104l1.558-4.377c0.715-0.218,1.399-0.504,2.049-0.851l4.193,1.993c0.909-0.725,1.733-1.549,2.458-2.458l-1.993-4.193c0.347-0.647,0.633-1.334,0.851-2.049L31.229,17.736zM16,20.871c-2.69,0-4.872-2.182-4.872-4.871c0-2.69,2.182-4.872,4.872-4.872c2.689,0,4.871,2.182,4.871,4.872C20.871,18.689,18.689,20.871,16,20.871z"></path><title>Link options.</title></g></g></g></g><!--z-index:69--><g   id="j_140" ><path  stroke="#444444" d="M 3990 1620 L 3849 1676 C 3843 1678.6666666666665 3836.6666666666665 1681 3830 1683 L 2565 2063" id="v-1718" stroke-width="2" stroke-dasharray="8 8" fill="none" style="opacity: 1;"></path><path  fill="black" stroke="black" d="M 0 0 0 0" transform="matrix(-0.928476707906966,0.37139063379983406,-0.37139063379983406,-0.928476707906966,3990,1620)"></path><path  fill="#444444" stroke="#444444" d="M 20 0 L 0 10 L 20 20 z" id="v-1720" transform="matrix(0.9578262599768823,-0.2873479697138957,0.2873479697138957,0.9578262599768823,2562.126626843717,2052.9216819411204)" style="opacity: 1;"></path><path  d="M 3990 1620 L 3849 1676 C 3843 1678.6666666666665 3836.6666666666665 1681 3830 1683 L 2565 2063" id="v-1719" fill="none" style="cursor: auto; pointer-events: visiblepainted;"></path><g ><g id="v-1712"  label-idx="0" cursor="move" transform="matrix(1,0,0,1,3279.85205078125,1848.2618408203125)" style="cursor: default; opacity: 1;"><rect joint-selector="rect" id="v-1715" fill="#ffffff" rx="3" ry="3" pointer-events="none" width="107.38310241699219" height="60.51429557800293" transform="matrix(1,0,0,1,-53.6,-30.2)"></rect><text joint-selector="text" id="v-1714" font-size="24px" xml:space="preserve" y="0.8em" fill="#444444" text-anchor="middle" pointer-events="none" font-family="Open Sans, Tahoma, Arial" font-weight="normal" transform="matrix(1,0,0,1,0,-24.5)"><tspan dy="0" >[compare</tspan><tspan dy="1.2em" x="0" >reports]</tspan></text></g><g id="v-1713"  label-idx="1" cursor="move" transform="matrix(1,0,0,1,3269.85205078125,1874.661865234375)" style="cursor: default; opacity: 1;"><rect joint-selector="rect" id="v-1717" fill="#ffffff" rx="3" ry="3"  width="0" height="0" transform="matrix(1,0,0,1,0,0)" display="none"></rect><text joint-selector="text" id="v-1716" fill="#000000" font-size="14" text-anchor="middle" pointer-events="none"></text></g></g><g  display="none" style="display: none;"><g  transform="translate(3840, 1680)" id="v-1770"><circle  idx="0" r="10"></circle><path  idx="0" d="M16,5.333c-7.732,0-14,4.701-14,10.5c0,1.982,0.741,3.833,2.016,5.414L2,25.667l5.613-1.441c2.339,1.317,5.237,2.107,8.387,2.107c7.732,0,14-4.701,14-10.5C30,10.034,23.732,5.333,16,5.333z" transform="translate(5, -33)"></path><path  idx="0" transform="scale(.8) translate(9.5, -37)" d="M24.778,21.419 19.276,15.917 24.777,10.415 21.949,7.585 16.447,13.087 10.945,7.585 8.117,10.415 13.618,15.917 8.116,21.419 10.946,24.248 16.447,18.746 21.948,24.248z"><title>Remove vertex.</title></path></g></g><g  id="v-1722" display="none"><g  id="v-1710"><path  end="source" d="M 26 0 L 0 13 L 26 26 z"></path></g><g  id="v-1711"><path  end="target" d="M 26 0 L 0 13 L 26 26 z"></path></g></g><g  id="v-1721" display="none"><g  id="v-1708" transform="translate(3952.824677468894, 1634.7646671045527) "><g  event="remove"><circle r="11"></circle><path transform="scale(.8) translate(-16, -16)" d="M24.778,21.419 19.276,15.917 24.777,10.415 21.949,7.585 16.447,13.087 10.945,7.585 8.117,10.415 13.618,15.917 8.116,21.419 10.946,24.248 16.447,18.746 21.948,24.248z"></path><title>Remove link.</title></g><g  event="link:options"><circle r="11" transform="translate(25)"></circle><path fill="white" transform="scale(.55) translate(29, -16)" d="M31.229,17.736c0.064-0.571,0.104-1.148,0.104-1.736s-0.04-1.166-0.104-1.737l-4.377-1.557c-0.218-0.716-0.504-1.401-0.851-2.05l1.993-4.192c-0.725-0.91-1.549-1.734-2.458-2.459l-4.193,1.994c-0.647-0.347-1.334-0.632-2.049-0.849l-1.558-4.378C17.165,0.708,16.588,0.667,16,0.667s-1.166,0.041-1.737,0.105L12.707,5.15c-0.716,0.217-1.401,0.502-2.05,0.849L6.464,4.005C5.554,4.73,4.73,5.554,4.005,6.464l1.994,4.192c-0.347,0.648-0.632,1.334-0.849,2.05l-4.378,1.557C0.708,14.834,0.667,15.412,0.667,16s0.041,1.165,0.105,1.736l4.378,1.558c0.217,0.715,0.502,1.401,0.849,2.049l-1.994,4.193c0.725,0.909,1.549,1.733,2.459,2.458l4.192-1.993c0.648,0.347,1.334,0.633,2.05,0.851l1.557,4.377c0.571,0.064,1.148,0.104,1.737,0.104c0.588,0,1.165-0.04,1.736-0.104l1.558-4.377c0.715-0.218,1.399-0.504,2.049-0.851l4.193,1.993c0.909-0.725,1.733-1.549,2.458-2.458l-1.993-4.193c0.347-0.647,0.633-1.334,0.851-2.049L31.229,17.736zM16,20.871c-2.69,0-4.872-2.182-4.872-4.871c0-2.69,2.182-4.872,4.872-4.872c2.689,0,4.871,2.182,4.871,4.872C20.871,18.689,18.689,20.871,16,20.871z"></path><title>Link options.</title></g></g></g></g><!--z-index:70--><g   id="j_141" ><path  stroke="#444444" d="M 690 1620 L 831 1676 C 837 1678.6666666666665 843.3333333333333 1681 850 1683 L 2115 2063" id="v-1736" stroke-width="2" stroke-dasharray="8 8" fill="none" style="opacity: 1;"></path><path  fill="black" stroke="black" d="M 0 0 0 0" transform="matrix(0.9284766955435519,0.371390664708372,-0.371390664708372,0.9284766955435519,690,1620)"></path><path  fill="#444444" stroke="#444444" d="M 20 0 L 0 10 L 20 20 z" id="v-1738" transform="matrix(-0.9578262599768824,-0.28734796971389537,0.28734796971389537,-0.9578262599768824,2112.126413762005,2072.078207140658)" style="opacity: 1;"></path><path  d="M 690 1620 L 831 1676 C 837 1678.6666666666665 843.3333333333333 1681 850 1683 L 2115 2063" id="v-1737" fill="none" style="cursor: auto; pointer-events: visiblepainted;"></path><g ><g id="v-1730"  label-idx="0" cursor="move" transform="matrix(1,0,0,1,1400.14794921875,1848.2618408203125)" style="cursor: default; opacity: 1;"><rect joint-selector="rect" id="v-1733" fill="#ffffff" rx="3" ry="3" pointer-events="none" width="104.84123992919922" height="60.51429557800293" transform="matrix(1,0,0,1,-52.4,-30.2)"></rect><text joint-selector="text" id="v-1732" font-size="24px" xml:space="preserve" y="0.8em" fill="#444444" text-anchor="middle" pointer-events="none" font-family="Open Sans, Tahoma, Arial" font-weight="normal" transform="matrix(1,0,0,1,0,-24.5)"><tspan dy="0" >[process</tspan><tspan dy="1.2em" x="0" >analytics]</tspan></text></g><g id="v-1731"  label-idx="1" cursor="move" transform="matrix(1,0,0,1,1390.14794921875,1874.661865234375)" style="cursor: default; opacity: 1;"><rect joint-selector="rect" id="v-1735" fill="#ffffff" rx="3" ry="3"  width="0" height="0" transform="matrix(1,0,0,1,0,0)" display="none"></rect><text joint-selector="text" id="v-1734" fill="#000000" font-size="14" text-anchor="middle" pointer-events="none"></text></g></g><g  display="none" style="display: none;"><g  transform="translate(840, 1680)" id="v-1771"><circle  idx="0" r="10"></circle><path  idx="0" d="M16,5.333c-7.732,0-14,4.701-14,10.5c0,1.982,0.741,3.833,2.016,5.414L2,25.667l5.613-1.441c2.339,1.317,5.237,2.107,8.387,2.107c7.732,0,14-4.701,14-10.5C30,10.034,23.732,5.333,16,5.333z" transform="translate(5, -33)"></path><path  idx="0" transform="scale(.8) translate(9.5, -37)" d="M24.778,21.419 19.276,15.917 24.777,10.415 21.949,7.585 16.447,13.087 10.945,7.585 8.117,10.415 13.618,15.917 8.116,21.419 10.946,24.248 16.447,18.746 21.948,24.248z"><title>Remove vertex.</title></path></g></g><g  id="v-1740" display="none"><g  id="v-1728"><path  end="source" d="M 26 0 L 0 13 L 26 26 z"></path></g><g  id="v-1729"><path  end="target" d="M 26 0 L 0 13 L 26 26 z"></path></g></g><g  id="v-1739" display="none"><g  id="v-1726" transform="translate(727.1753225311058, 1634.7646671045527) "><g  event="remove"><circle r="11"></circle><path transform="scale(.8) translate(-16, -16)" d="M24.778,21.419 19.276,15.917 24.777,10.415 21.949,7.585 16.447,13.087 10.945,7.585 8.117,10.415 13.618,15.917 8.116,21.419 10.946,24.248 16.447,18.746 21.948,24.248z"></path><title>Remove link.</title></g><g  event="link:options"><circle r="11" transform="translate(25)"></circle><path fill="white" transform="scale(.55) translate(29, -16)" d="M31.229,17.736c0.064-0.571,0.104-1.148,0.104-1.736s-0.04-1.166-0.104-1.737l-4.377-1.557c-0.218-0.716-0.504-1.401-0.851-2.05l1.993-4.192c-0.725-0.91-1.549-1.734-2.458-2.459l-4.193,1.994c-0.647-0.347-1.334-0.632-2.049-0.849l-1.558-4.378C17.165,0.708,16.588,0.667,16,0.667s-1.166,0.041-1.737,0.105L12.707,5.15c-0.716,0.217-1.401,0.502-2.05,0.849L6.464,4.005C5.554,4.73,4.73,5.554,4.005,6.464l1.994,4.192c-0.347,0.648-0.632,1.334-0.849,2.05l-4.378,1.557C0.708,14.834,0.667,15.412,0.667,16s0.041,1.165,0.105,1.736l4.378,1.558c0.217,0.715,0.502,1.401,0.849,2.049l-1.994,4.193c0.725,0.909,1.549,1.733,2.459,2.458l4.192-1.993c0.648,0.347,1.334,0.633,2.05,0.851l1.557,4.377c0.571,0.064,1.148,0.104,1.737,0.104c0.588,0,1.165-0.04,1.736-0.104l1.558-4.377c0.715-0.218,1.399-0.504,2.049-0.851l4.193,1.993c0.909-0.725,1.733-1.549,2.458-2.458l-1.993-4.193c0.347-0.647,0.633-1.334,0.851-2.049L31.229,17.736zM16,20.871c-2.69,0-4.872-2.182-4.872-4.871c0-2.69,2.182-4.872,4.872-4.872c2.689,0,4.871,2.182,4.871,4.872C20.871,18.689,18.689,20.871,16,20.871z"></path><title>Link options.</title></g></g></g></g><!--z-index:71--><g   id="j_142" ><path  stroke="#444444" d="M 2340 2280 L 2340 2580" id="v-1753" stroke-width="2" stroke-dasharray="8 8" fill="none" style="opacity: 1;"></path><path  fill="black" stroke="black" d="M 0 0 0 0" transform="matrix(6.123233995736766e-17,1,-1,6.123233995736766e-17,2340,2280)"></path><path  fill="#444444" stroke="#444444" d="M 20 0 L 0 10 L 20 20 z" id="v-1755" transform="matrix(-1.8369701987210297e-16,-1,1,-1.8369701987210297e-16,2330,2580)" style="opacity: 1;"></path><path  d="M 2340 2280 L 2340 2580" id="v-1754" fill="none" style="cursor: auto; pointer-events: visiblepainted;"></path><g ><g id="v-1747"  label-idx="0" cursor="move" transform="matrix(1,0,0,1,2340,2430)" style="cursor: default; opacity: 1;"><rect joint-selector="rect" id="v-1750" fill="#ffffff" rx="3" ry="3" pointer-events="none" width="188.3744354248047" height="31.714298248291016" transform="matrix(1,0,0,1,-94.2,-15.8)"></rect><text joint-selector="text" id="v-1749" font-size="24px" xml:space="preserve" y="0.8em" fill="#444444" text-anchor="middle" pointer-events="none" font-family="Open Sans, Tahoma, Arial" font-weight="normal" transform="matrix(1,0,0,1,0,-10.1)"><tspan dy="0" >[read/write data]</tspan></text></g><g id="v-1748"  label-idx="1" cursor="move" transform="matrix(1,0,0,1,2330,2442)" style="cursor: default; opacity: 1;"><rect joint-selector="rect" id="v-1752" fill="#ffffff" rx="3" ry="3"  width="0" height="0" transform="matrix(1,0,0,1,0,0)" display="none"></rect><text joint-selector="text" id="v-1751" fill="#000000" font-size="14" text-anchor="middle" pointer-events="none"></text></g></g><g  display="none" style="display: none;"></g><g  id="v-1757" display="none"><g  id="v-1745"><path  end="source" d="M 26 0 L 0 13 L 26 26 z"></path></g><g  id="v-1746"><path  end="target" d="M 26 0 L 0 13 L 26 26 z"></path></g></g><g  id="v-1756" display="none"><g  id="v-1744" transform="translate(2340, 2320) "><g  event="remove"><circle r="11"></circle><path transform="scale(.8) translate(-16, -16)" d="M24.778,21.419 19.276,15.917 24.777,10.415 21.949,7.585 16.447,13.087 10.945,7.585 8.117,10.415 13.618,15.917 8.116,21.419 10.946,24.248 16.447,18.746 21.948,24.248z"></path><title>Remove link.</title></g><g  event="link:options"><circle r="11" transform="translate(25)"></circle><path fill="white" transform="scale(.55) translate(29, -16)" d="M31.229,17.736c0.064-0.571,0.104-1.148,0.104-1.736s-0.04-1.166-0.104-1.737l-4.377-1.557c-0.218-0.716-0.504-1.401-0.851-2.05l1.993-4.192c-0.725-0.91-1.549-1.734-2.458-2.459l-4.193,1.994c-0.647-0.347-1.334-0.632-2.049-0.849l-1.558-4.378C17.165,0.708,16.588,0.667,16,0.667s-1.166,0.041-1.737,0.105L12.707,5.15c-0.716,0.217-1.401,0.502-2.05,0.849L6.464,4.005C5.554,4.73,4.73,5.554,4.005,6.464l1.994,4.192c-0.347,0.648-0.632,1.334-0.849,2.05l-4.378,1.557C0.708,14.834,0.667,15.412,0.667,16s0.041,1.165,0.105,1.736l4.378,1.558c0.217,0.715,0.502,1.401,0.849,2.049l-1.994,4.193c0.725,0.909,1.549,1.733,2.459,2.458l4.192-1.993c0.648,0.347,1.334,0.633,2.05,0.851l1.557,4.377c0.571,0.064,1.148,0.104,1.737,0.104c0.588,0,1.165-0.04,1.736-0.104l1.558-4.377c0.715-0.218,1.399-0.504,2.049-0.851l4.193,1.993c0.909-0.725,1.733-1.549,2.458-2.458l-1.993-4.193c0.347-0.647,0.633-1.334,0.851-2.049L31.229,17.736zM16,20.871c-2.69,0-4.872-2.182-4.872-4.871c0-2.69,2.182-4.872,4.872-4.872c2.689,0,4.871,2.182,4.871,4.872C20.871,18.689,18.689,20.871,16,20.871z"></path><title>Link options.</title></g></g></g></g><!--z-index:72--><!--z-index:73--><!--z-index:74--><!--z-index:75--><!--z-index:76--><!--z-index:77--><!--z-index:78--><!--z-index:79--></g><g ></g><g ></g><g ></g></g></svg>