<svg xmlns="http://www.w3.org/2000/svg" xmlns:xlink="http://www.w3.org/1999/xlink" version="1.1" viewBox="0 0 5430 3219" style="background: #ffffff"><defs joint-selector="defs"></defs><g joint-selector="layers"  transform="matrix(1,0,0,1,0,0)"><g ></g><g ><!--z-index:1--><!--z-index:2--><!--z-index:3--><!--z-index:4--><!--z-index:5--><!--z-index:6--><!--z-index:7--><!--z-index:8--><!--z-index:9--><!--z-index:10--><!--z-index:11--><!--z-index:12--><!--z-index:13--><!--z-index:14--><!--z-index:15--><!--z-index:16--><!--z-index:17--><!--z-index:18--><!--z-index:19--><!--z-index:20--><!--z-index:21--><!--z-index:22--><!--z-index:23--><!--z-index:24--><!--z-index:25--><!--z-index:26--><!--z-index:27--><!--z-index:28--><!--z-index:29--><!--z-index:30--><!--z-index:31--><!--z-index:32--><!--z-index:33--><!--z-index:34--><!--z-index:35--><!--z-index:36--><!--z-index:37--><!--z-index:38--><!--z-index:39--><!--z-index:40--><!--z-index:41--><!--z-index:42--><!--z-index:43--><!--z-index:44--><!--z-index:45--><!--z-index:46--><!--z-index:47--><!--z-index:48--><g   id="j_32"  transform="translate(20,3175)"><g id="v-374"><text  id="v-375" font-size="24px" xml:space="preserve" y="0.8em" font-weight="normal" text-anchor="start" fill="#444444" pointer-events="none" display="block" font-family="Open Sans, Tahoma, Arial"><tspan dy="0"  display="block">sábado, 25 de abril de 2026, 11:27 hora estándar de Perú</tspan></text></g></g><!--z-index:49--><g   id="j_31"  transform="translate(20,3129)"><g id="v-372"><text  id="v-373" font-size="36px" xml:space="preserve" y="0.8em" font-weight="normal" text-anchor="start" fill="#444444" pointer-events="none" display="block" font-family="Open Sans, Tahoma, Arial"><tspan dy="0"  display="block">Component View: VITALIA SAAS - CLINICAL CONTEXT</tspan></text></g></g><!--z-index:50--><g   id="j_34"  transform="translate(199,159)" style=""><g id="v-386"><rect  id="v-387" width="5030" height="2819" rx="20" ry="20" stroke-width="2" pointer-events="none" stroke="#1d8a8e" fill="#ffffff" stroke-dasharray=""></rect><text  id="v-388" font-size="33.599999999999994px" xml:space="preserve" y="2780" font-weight="bold" text-anchor="start" pointer-events="visible" font-family="Open Sans, Tahoma, Arial" fill="#1168bd" transform="matrix(1,0,0,1,15,0)"><tspan dy="0" >VITALIA SAAS</tspan></text><text  id="v-389" font-size="16.799999999999997px" xml:space="preserve" y="2804" font-weight="normal" text-anchor="start" pointer-events="visible" font-family="Open Sans, Tahoma, Arial" fill="#1168bd" transform="matrix(1,0,0,1,15,0)"><tspan dy="0" >[Software System]</tspan></text><image  id="v-390" pointer-events="visible"></image></g></g><!--z-index:51--><g   id="j_33"  transform="translate(2489,179)" style=""><g  id="v-379" style="opacity: 1;"><rect  id="v-380" rx="20" ry="20" stroke-width="2" pointer-events="visiblePainted" fill="#1a1f1f" stroke="#171c1c" stroke-dasharray="" width="450" height="300"></rect><text  id="v-381" font-size="33.599999999999994px" xml:space="preserve" y="101.30000000000001" font-weight="bold" text-anchor="middle" pointer-events="visible" font-family="Open Sans, Tahoma, Arial" fill="#ffffff" dominant-baseline="hanging" transform="matrix(1,0,0,1,225,0)"><tspan dy="0" >CLINICAL</tspan></text><text  id="v-382" font-size="16.799999999999997px" xml:space="preserve" y="142.9" text-anchor="middle" font-family="Open Sans, Tahoma, Arial" fill="#ffffff" dominant-baseline="hanging" transform="matrix(1,0,0,1,225,0)" style="display: block;"><tspan dy="0" >[Container: Node.Js / Python]</tspan></text><text  id="v-383" font-size="24px" xml:space="preserve" y="174.7" text-anchor="middle" font-family="Open Sans, Tahoma, Arial" fill="#ffffff" dominant-baseline="hanging" transform="matrix(1,0,0,1,225,0)" style="display: block;"><tspan dy="0" >Historia clínica y core médico</tspan></text><g  id="v-384" color="#ffffff" transform="matrix(1,0,0,1,222.5,268)" display="none"><g ></g><g ></g><g ></g><g ></g></g><image  id="v-385"></image></g></g><!--z-index:52--><g   id="j_36"  transform="translate(219,759)" style=""><g id="v-398"><rect  id="v-399" width="4990" height="1619" rx="20" ry="20" stroke-width="2" pointer-events="none" stroke="#171c1c" fill="#ffffff" stroke-dasharray=""></rect><text  id="v-400" font-size="33.599999999999994px" xml:space="preserve" y="1580" font-weight="bold" text-anchor="start" pointer-events="visible" font-family="Open Sans, Tahoma, Arial" fill="#438dd5" transform="matrix(1,0,0,1,15,0)"><tspan dy="0" >CLINICAL CONTEXT</tspan></text><text  id="v-401" font-size="16.799999999999997px" xml:space="preserve" y="1604" font-weight="normal" text-anchor="start" pointer-events="visible" font-family="Open Sans, Tahoma, Arial" fill="#438dd5" transform="matrix(1,0,0,1,15,0)"><tspan dy="0" >[Container]</tspan></text><image  id="v-402" pointer-events="visible"></image></g></g><!--z-index:53--><g   id="j_45"  transform="translate(2489,2579)" style=""><g  id="v-492" style="opacity: 1;"><path  d="M 0,30 a 225,30 0,0,0 450 0 a 225,30 0,0,0 -450 0 l 0,240 a 225,30 0,0,0 450 0 l 0,-240" id="v-493" stroke-width="2" pointer-events="visiblePainted" fill="#c77646" stroke="#b36a3f" stroke-dasharray=""></path><rect  id="v-494" stroke-width="0" pointer-events="visiblePainted" fill="none" stroke="none" width="450" height="270" x="0" y="30"></rect><text  id="v-495" font-size="33.599999999999994px" xml:space="preserve" y="116.30000000000001" font-weight="bold" text-anchor="middle" pointer-events="visible" font-family="Open Sans, Tahoma, Arial" fill="#ffffff" dominant-baseline="hanging" transform="matrix(1,0,0,1,225,0)"><tspan dy="0" >DATABASE</tspan></text><text  id="v-496" font-size="16.799999999999997px" xml:space="preserve" y="157.9" text-anchor="middle" font-family="Open Sans, Tahoma, Arial" fill="#ffffff" dominant-baseline="hanging" transform="matrix(1,0,0,1,225,0)" style="display: block;"><tspan dy="0" >[Container: MySQL]</tspan></text><text  id="v-497" font-size="24px" xml:space="preserve" y="189.7" text-anchor="middle" font-family="Open Sans, Tahoma, Arial" fill="#ffffff" dominant-baseline="hanging" transform="matrix(1,0,0,1,225,0)" style="display: block;"><tspan dy="0" >Base de datos de Vitalia</tspan></text><g  id="v-498" font-weight="normal" text-anchor="middle" color="#ffffff" transform="matrix(1,0,0,1,222.5,268)" display="none"><g ></g><g ></g><g ></g><g ></g></g><image  id="v-499"></image></g></g><!--z-index:54--><g   id="j_35"  transform="translate(2489,779)" style=""><g  id="v-391" style="opacity: 1;"><rect  id="v-392" rx="20" ry="20" stroke-width="2" pointer-events="visiblePainted" fill="#a6cf58" stroke="#95ba4f" stroke-dasharray="" width="450" height="300"></rect><text  id="v-393" font-size="33.599999999999994px" xml:space="preserve" y="101.30000000000001" font-weight="bold" text-anchor="middle" pointer-events="visible" font-family="Open Sans, Tahoma, Arial" fill="#121212" dominant-baseline="hanging" transform="matrix(1,0,0,1,225,0)"><tspan dy="0" >CONTROLLER</tspan></text><text  id="v-394" font-size="16.799999999999997px" xml:space="preserve" y="142.9" text-anchor="middle" font-family="Open Sans, Tahoma, Arial" fill="#121212" dominant-baseline="hanging" transform="matrix(1,0,0,1,225,0)" style="display: block;"><tspan dy="0" >[Component: Node.js (NestJS)]</tspan></text><text  id="v-395" font-size="24px" xml:space="preserve" y="174.7" text-anchor="middle" font-family="Open Sans, Tahoma, Arial" fill="#121212" dominant-baseline="hanging" transform="matrix(1,0,0,1,225,0)" style="display: block;"><tspan dy="0" >Expone endpoints REST</tspan></text><g  id="v-396" color="#121212" transform="matrix(1,0,0,1,222.5,268)" display="none"><g ></g><g ></g><g ></g><g ></g></g><image  id="v-397"></image></g></g><!--z-index:55--><g   id="j_37"  transform="translate(239,1379)" style=""><g  id="v-406" style="opacity: 1;"><rect  id="v-407" rx="20" ry="20" stroke-width="2" pointer-events="visiblePainted" fill="#a6cf58" stroke="#95ba4f" stroke-dasharray="" width="450" height="300"></rect><text  id="v-408" font-size="33.599999999999994px" xml:space="preserve" y="86.9" font-weight="bold" text-anchor="middle" pointer-events="visible" font-family="Open Sans, Tahoma, Arial" fill="#121212" dominant-baseline="hanging" transform="matrix(1,0,0,1,225,0)"><tspan dy="0" >MEDICAL RECORDS</tspan></text><text  id="v-409" font-size="16.799999999999997px" xml:space="preserve" y="128.5" text-anchor="middle" font-family="Open Sans, Tahoma, Arial" fill="#121212" dominant-baseline="hanging" transform="matrix(1,0,0,1,225,0)" style="display: block;"><tspan dy="0" >[Component: Node.js (NestJS)]</tspan></text><text  id="v-410" font-size="24px" xml:space="preserve" y="160.3" text-anchor="middle" font-family="Open Sans, Tahoma, Arial" fill="#121212" dominant-baseline="hanging" transform="matrix(1,0,0,1,225,0)" style="display: block;"><tspan dy="0" >Historia clínica (Modelo Dinámico</tspan><tspan dy="1.2em" x="0" >JSONB)</tspan></text><g  id="v-411" color="#121212" transform="matrix(1,0,0,1,222.5,268)" display="none"><g ></g><g ></g><g ></g><g ></g></g><image  id="v-412"></image></g></g><!--z-index:56--><g   id="j_38"  transform="translate(989,1379)" style=""><g  id="v-419" style="opacity: 1;"><rect  id="v-420" rx="20" ry="20" stroke-width="2" pointer-events="visiblePainted" fill="#a6cf58" stroke="#95ba4f" stroke-dasharray="" width="450" height="300"></rect><text  id="v-421" font-size="33.599999999999994px" xml:space="preserve" y="81.14000000000001" font-weight="bold" text-anchor="middle" pointer-events="visible" font-family="Open Sans, Tahoma, Arial" fill="#121212" dominant-baseline="hanging" transform="matrix(1,0,0,1,225,0)"><tspan dy="0" >CONSULTATIONS &amp;</tspan><tspan dy="1.2em" x="0" >TRIAGE</tspan></text><text  id="v-422" font-size="16.799999999999997px" xml:space="preserve" y="163.06" text-anchor="middle" font-family="Open Sans, Tahoma, Arial" fill="#121212" dominant-baseline="hanging" transform="matrix(1,0,0,1,225,0)" style="display: block;"><tspan dy="0" >[Component: Node.js (NestJS)]</tspan></text><text  id="v-423" font-size="24px" xml:space="preserve" y="194.86" text-anchor="middle" font-family="Open Sans, Tahoma, Arial" fill="#121212" dominant-baseline="hanging" transform="matrix(1,0,0,1,225,0)" style="display: block;"><tspan dy="0" >Registro de la consulta</tspan></text><g  id="v-424" color="#121212" transform="matrix(1,0,0,1,222.5,268)" display="none"><g ></g><g ></g><g ></g><g ></g></g><image  id="v-425"></image></g></g><!--z-index:57--><g   id="j_39"  transform="translate(1739,1379)" style=""><g  id="v-429" style="opacity: 1;"><rect  id="v-430" rx="20" ry="20" stroke-width="2" pointer-events="visiblePainted" fill="#a6cf58" stroke="#95ba4f" stroke-dasharray="" width="450" height="300"></rect><text  id="v-431" font-size="33.599999999999994px" xml:space="preserve" y="101.30000000000001" font-weight="bold" text-anchor="middle" pointer-events="visible" font-family="Open Sans, Tahoma, Arial" fill="#121212" dominant-baseline="hanging" transform="matrix(1,0,0,1,225,0)"><tspan dy="0" >DIAGNOSIS</tspan></text><text  id="v-432" font-size="16.799999999999997px" xml:space="preserve" y="142.9" text-anchor="middle" font-family="Open Sans, Tahoma, Arial" fill="#121212" dominant-baseline="hanging" transform="matrix(1,0,0,1,225,0)" style="display: block;"><tspan dy="0" >[Component: Node.js (NestJS)]</tspan></text><text  id="v-433" font-size="24px" xml:space="preserve" y="174.7" text-anchor="middle" font-family="Open Sans, Tahoma, Arial" fill="#121212" dominant-baseline="hanging" transform="matrix(1,0,0,1,225,0)" style="display: block;"><tspan dy="0" >Registro de diagnóstico</tspan></text><g  id="v-434" color="#121212" transform="matrix(1,0,0,1,222.5,268)" display="none"><g ></g><g ></g><g ></g><g ></g></g><image  id="v-435"></image></g></g><!--z-index:58--><g   id="j_40"  transform="translate(2489,1379)" style=""><g  id="v-439" style="opacity: 1;"><rect  id="v-440" rx="20" ry="20" stroke-width="2" pointer-events="visiblePainted" fill="#a6cf58" stroke="#95ba4f" stroke-dasharray="" width="450" height="300"></rect><text  id="v-441" font-size="33.599999999999994px" xml:space="preserve" y="86.9" font-weight="bold" text-anchor="middle" pointer-events="visible" font-family="Open Sans, Tahoma, Arial" fill="#121212" dominant-baseline="hanging" transform="matrix(1,0,0,1,225,0)"><tspan dy="0" >ANAMNESIS</tspan></text><text  id="v-442" font-size="16.799999999999997px" xml:space="preserve" y="128.5" text-anchor="middle" font-family="Open Sans, Tahoma, Arial" fill="#121212" dominant-baseline="hanging" transform="matrix(1,0,0,1,225,0)" style="display: block;"><tspan dy="0" >[Component: Node.js (NestJS)]</tspan></text><text  id="v-443" font-size="24px" xml:space="preserve" y="160.3" text-anchor="middle" font-family="Open Sans, Tahoma, Arial" fill="#121212" dominant-baseline="hanging" transform="matrix(1,0,0,1,225,0)" style="display: block;"><tspan dy="0" >Registro de información inicial del</tspan><tspan dy="1.2em" x="0" >paciente</tspan></text><g  id="v-444" color="#121212" transform="matrix(1,0,0,1,222.5,268)" display="none"><g ></g><g ></g><g ></g><g ></g></g><image  id="v-445"></image></g></g><!--z-index:59--><g   id="j_41"  transform="translate(3239,1379)" style=""><g  id="v-449" style="opacity: 1;"><rect  id="v-450" rx="20" ry="20" stroke-width="2" pointer-events="visiblePainted" fill="#a6cf58" stroke="#95ba4f" stroke-dasharray="" width="450" height="300"></rect><text  id="v-451" font-size="33.599999999999994px" xml:space="preserve" y="101.30000000000001" font-weight="bold" text-anchor="middle" pointer-events="visible" font-family="Open Sans, Tahoma, Arial" fill="#121212" dominant-baseline="hanging" transform="matrix(1,0,0,1,225,0)"><tspan dy="0" >VITAL SIGNS</tspan></text><text  id="v-452" font-size="16.799999999999997px" xml:space="preserve" y="142.9" text-anchor="middle" font-family="Open Sans, Tahoma, Arial" fill="#121212" dominant-baseline="hanging" transform="matrix(1,0,0,1,225,0)" style="display: block;"><tspan dy="0" >[Component: Node.js (NestJS)]</tspan></text><text  id="v-453" font-size="24px" xml:space="preserve" y="174.7" text-anchor="middle" font-family="Open Sans, Tahoma, Arial" fill="#121212" dominant-baseline="hanging" transform="matrix(1,0,0,1,225,0)" style="display: block;"><tspan dy="0" >Registro de signos vitales</tspan></text><g  id="v-454" color="#121212" transform="matrix(1,0,0,1,222.5,268)" display="none"><g ></g><g ></g><g ></g><g ></g></g><image  id="v-455"></image></g></g><!--z-index:60--><g   id="j_42"  transform="translate(3989,1379)" style=""><g  id="v-462" style="opacity: 1;"><rect  id="v-463" rx="20" ry="20" stroke-width="2" pointer-events="visiblePainted" fill="#a6cf58" stroke="#95ba4f" stroke-dasharray="" width="450" height="300"></rect><text  id="v-464" font-size="33.599999999999994px" xml:space="preserve" y="81.14000000000001" font-weight="bold" text-anchor="middle" pointer-events="visible" font-family="Open Sans, Tahoma, Arial" fill="#121212" dominant-baseline="hanging" transform="matrix(1,0,0,1,225,0)"><tspan dy="0" >TREATMENT</tspan><tspan dy="1.2em" x="0" >MANAGEMENT</tspan></text><text  id="v-465" font-size="16.799999999999997px" xml:space="preserve" y="163.06" text-anchor="middle" font-family="Open Sans, Tahoma, Arial" fill="#121212" dominant-baseline="hanging" transform="matrix(1,0,0,1,225,0)" style="display: block;"><tspan dy="0" >[Component: Node.js (NestJS)]</tspan></text><text  id="v-466" font-size="24px" xml:space="preserve" y="194.86" text-anchor="middle" font-family="Open Sans, Tahoma, Arial" fill="#121212" dominant-baseline="hanging" transform="matrix(1,0,0,1,225,0)" style="display: block;"><tspan dy="0" >Gestión de tratamientos</tspan></text><g  id="v-467" color="#121212" transform="matrix(1,0,0,1,222.5,268)" display="none"><g ></g><g ></g><g ></g><g ></g></g><image  id="v-468"></image></g></g><!--z-index:61--><g   id="j_43"  transform="translate(4739,1379)" style=""><g  id="v-475" style="opacity: 1;"><rect  id="v-476" rx="20" ry="20" stroke-width="2" pointer-events="visiblePainted" fill="#a6cf58" stroke="#95ba4f" stroke-dasharray="" width="450" height="300"></rect><text  id="v-477" font-size="33.599999999999994px" xml:space="preserve" y="66.74000000000001" font-weight="bold" text-anchor="middle" pointer-events="visible" font-family="Open Sans, Tahoma, Arial" fill="#121212" dominant-baseline="hanging" transform="matrix(1,0,0,1,225,0)"><tspan dy="0" >PRESCRIPTION</tspan><tspan dy="1.2em" x="0" >MANAGEMENT</tspan></text><text  id="v-478" font-size="16.799999999999997px" xml:space="preserve" y="148.66" text-anchor="middle" font-family="Open Sans, Tahoma, Arial" fill="#121212" dominant-baseline="hanging" transform="matrix(1,0,0,1,225,0)" style="display: block;"><tspan dy="0" >[Component: Node.js (NestJS)]</tspan></text><text  id="v-479" font-size="24px" xml:space="preserve" y="180.45999999999998" text-anchor="middle" font-family="Open Sans, Tahoma, Arial" fill="#121212" dominant-baseline="hanging" transform="matrix(1,0,0,1,225,0)" style="display: block;"><tspan dy="0" >Gestión de recetas y</tspan><tspan dy="1.2em" x="0" >medicamentos</tspan></text><g  id="v-480" color="#121212" transform="matrix(1,0,0,1,222.5,268)" display="none"><g ></g><g ></g><g ></g><g ></g></g><image  id="v-481"></image></g></g><!--z-index:62--><g   id="j_44"  transform="translate(2489,1979)" style=""><g  id="v-482" style="opacity: 1;"><rect  id="v-483" rx="20" ry="20" stroke-width="2" pointer-events="visiblePainted" fill="#a6cf58" stroke="#95ba4f" stroke-dasharray="" width="450" height="300"></rect><text  id="v-484" font-size="33.599999999999994px" xml:space="preserve" y="101.30000000000001" font-weight="bold" text-anchor="middle" pointer-events="visible" font-family="Open Sans, Tahoma, Arial" fill="#121212" dominant-baseline="hanging" transform="matrix(1,0,0,1,225,0)"><tspan dy="0" >DB CONECTOR</tspan></text><text  id="v-485" font-size="16.799999999999997px" xml:space="preserve" y="142.9" text-anchor="middle" font-family="Open Sans, Tahoma, Arial" fill="#121212" dominant-baseline="hanging" transform="matrix(1,0,0,1,225,0)" style="display: block;"><tspan dy="0" >[Component: Node.js]</tspan></text><text  id="v-486" font-size="24px" xml:space="preserve" y="174.7" text-anchor="middle" font-family="Open Sans, Tahoma, Arial" fill="#121212" dominant-baseline="hanging" transform="matrix(1,0,0,1,225,0)" style="display: block;"><tspan dy="0" >Acceso a datos</tspan></text><g  id="v-487" color="#121212" transform="matrix(1,0,0,1,222.5,268)" display="none"><g ></g><g ></g><g ></g><g ></g></g><image  id="v-488"></image></g></g><!--z-index:63--><g   id="j_46" ><path  stroke="#444444" d="M 2714 479 L 2714 779" id="v-509" stroke-width="2" stroke-dasharray="8 8" fill="none" style="opacity: 1;"></path><path  fill="black" stroke="black" d="M 0 0 0 0" transform="matrix(6.123233995736766e-17,1,-1,6.123233995736766e-17,2714,479)"></path><path  fill="#444444" stroke="#444444" d="M 20 0 L 0 10 L 20 20 z" id="v-511" transform="matrix(-1.8369701987210297e-16,-1,1,-1.8369701987210297e-16,2704,779)" style="opacity: 1;"></path><path  d="M 2714 479 L 2714 779" id="v-510" fill="none" style="cursor: auto; pointer-events: visiblepainted;"></path><g ><g id="v-503"  label-idx="0" cursor="move" transform="matrix(1,0,0,1,2714,629)" style="cursor: default; opacity: 1;"><rect joint-selector="rect" id="v-506" fill="#ffffff" rx="3" ry="3" pointer-events="none" width="55.32216262817383" height="33.16141128540039" transform="matrix(1,0,0,1,-27.7,-16.6)"></rect><text joint-selector="text" id="v-505" font-size="24px" xml:space="preserve" y="0.8em" fill="#444444" text-anchor="middle" pointer-events="none" font-family="Open Sans, Tahoma, Arial" font-weight="normal" transform="matrix(1,0,0,1,0,-10.3)"><tspan dy="0" >[use]</tspan></text></g><g id="v-504"  label-idx="1" cursor="move" transform="matrix(1,0,0,1,2704,641)" style="cursor: default; opacity: 1;"><rect joint-selector="rect" id="v-508" fill="#ffffff" rx="3" ry="3"  width="0" height="0" transform="matrix(1,0,0,1,0,0)" display="none"></rect><text joint-selector="text" id="v-507" fill="#000000" font-size="14" text-anchor="middle" pointer-events="none"></text></g></g><g  display="none" style="display: none;"></g><g  id="v-513" display="none"><g  id="v-501"><path  end="source" d="M 26 0 L 0 13 L 26 26 z"></path></g><g  id="v-502"><path  end="target" d="M 26 0 L 0 13 L 26 26 z"></path></g></g><g  id="v-512" display="none"><g  id="v-500" transform="translate(2714, 519) "><g  event="remove"><circle r="11"></circle><path transform="scale(.8) translate(-16, -16)" d="M24.778,21.419 19.276,15.917 24.777,10.415 21.949,7.585 16.447,13.087 10.945,7.585 8.117,10.415 13.618,15.917 8.116,21.419 10.946,24.248 16.447,18.746 21.948,24.248z"></path><title>Remove link.</title></g><g  event="link:options"><circle r="11" transform="translate(25)"></circle><path fill="white" transform="scale(.55) translate(29, -16)" d="M31.229,17.736c0.064-0.571,0.104-1.148,0.104-1.736s-0.04-1.166-0.104-1.737l-4.377-1.557c-0.218-0.716-0.504-1.401-0.851-2.05l1.993-4.192c-0.725-0.91-1.549-1.734-2.458-2.459l-4.193,1.994c-0.647-0.347-1.334-0.632-2.049-0.849l-1.558-4.378C17.165,0.708,16.588,0.667,16,0.667s-1.166,0.041-1.737,0.105L12.707,5.15c-0.716,0.217-1.401,0.502-2.05,0.849L6.464,4.005C5.554,4.73,4.73,5.554,4.005,6.464l1.994,4.192c-0.347,0.648-0.632,1.334-0.849,2.05l-4.378,1.557C0.708,14.834,0.667,15.412,0.667,16s0.041,1.165,0.105,1.736l4.378,1.558c0.217,0.715,0.502,1.401,0.849,2.049l-1.994,4.193c0.725,0.909,1.549,1.733,2.459,2.458l4.192-1.993c0.648,0.347,1.334,0.633,2.05,0.851l1.557,4.377c0.571,0.064,1.148,0.104,1.737,0.104c0.588,0,1.165-0.04,1.736-0.104l1.558-4.377c0.715-0.218,1.399-0.504,2.049-0.851l4.193,1.993c0.909-0.725,1.733-1.549,2.458-2.458l-1.993-4.193c0.347-0.647,0.633-1.334,0.851-2.049L31.229,17.736zM16,20.871c-2.69,0-4.872-2.182-4.872-4.871c0-2.69,2.182-4.872,4.872-4.872c2.689,0,4.871,2.182,4.871,4.872C20.871,18.689,18.689,20.871,16,20.871z"></path><title>Link options.</title></g></g></g></g><!--z-index:64--><g   id="j_47" ><path  stroke="#444444" d="M 2489 983 L 849 1377 C 842.3333333333333 1378.3333333333333 835.9999999999999 1380.3333333333333 830 1383 L 689 1439" id="v-524" stroke-width="2" stroke-dasharray="8 8" fill="none" style="opacity: 1;"></path><path  fill="black" stroke="black" d="M 0 0 0 0" transform="matrix(-0.9723873253673182,0.2333728550302998,-0.2333728550302998,-0.9723873253673182,2489,983)"></path><path  fill="#444444" stroke="#444444" d="M 20 0 L 0 10 L 20 20 z" id="v-526" transform="matrix(0.9284766089996245,-0.3713908810681253,0.3713908810681253,0.9284766089996245,685.286115138385,1429.715275533185)" style="opacity: 1;"></path><path  d="M 2489 983 L 849 1377 C 842.3333333333333 1378.3333333333333 835.9999999999999 1380.3333333333333 830 1383 L 689 1439" id="v-525" fill="none" style="cursor: auto; pointer-events: visiblepainted;"></path><g ><g id="v-518"  label-idx="0" cursor="move" transform="matrix(1,0,0,1,1585.5364990234375,1200.0516357421875)" style="cursor: default; opacity: 1;"><rect joint-selector="rect" id="v-521" fill="#ffffff" rx="3" ry="3" pointer-events="none" width="55.32216262817383" height="33.16141128540039" transform="matrix(1,0,0,1,-27.7,-16.6)"></rect><text joint-selector="text" id="v-520" font-size="24px" xml:space="preserve" y="0.8em" fill="#444444" text-anchor="middle" pointer-events="none" font-family="Open Sans, Tahoma, Arial" font-weight="normal" transform="matrix(1,0,0,1,0,-10.3)"><tspan dy="0" >[use]</tspan></text></g><g id="v-519"  label-idx="1" cursor="move" transform="matrix(1,0,0,1,1575.5364990234375,1212.0516357421875)" style="cursor: default; opacity: 1;"><rect joint-selector="rect" id="v-523" fill="#ffffff" rx="3" ry="3"  width="0" height="0" transform="matrix(1,0,0,1,0,0)" display="none"></rect><text joint-selector="text" id="v-522" fill="#000000" font-size="14" text-anchor="middle" pointer-events="none"></text></g></g><g  display="none" style="display: none;"><g  transform="translate(839, 1379)" id="v-759"><circle  idx="0" r="10"></circle><path  idx="0" d="M16,5.333c-7.732,0-14,4.701-14,10.5c0,1.982,0.741,3.833,2.016,5.414L2,25.667l5.613-1.441c2.339,1.317,5.237,2.107,8.387,2.107c7.732,0,14-4.701,14-10.5C30,10.034,23.732,5.333,16,5.333z" transform="translate(5, -33)"></path><path  idx="0" transform="scale(.8) translate(9.5, -37)" d="M24.778,21.419 19.276,15.917 24.777,10.415 21.949,7.585 16.447,13.087 10.945,7.585 8.117,10.415 13.618,15.917 8.116,21.419 10.946,24.248 16.447,18.746 21.948,24.248z"><title>Remove vertex.</title></path></g></g><g  id="v-528" display="none"><g  id="v-516"><path  end="source" d="M 26 0 L 0 13 L 26 26 z"></path></g><g  id="v-517"><path  end="target" d="M 26 0 L 0 13 L 26 26 z"></path></g></g><g  id="v-527" display="none"><g  id="v-514" transform="translate(2450.106661643364, 992.3438873856795) "><g  event="remove"><circle r="11"></circle><path transform="scale(.8) translate(-16, -16)" d="M24.778,21.419 19.276,15.917 24.777,10.415 21.949,7.585 16.447,13.087 10.945,7.585 8.117,10.415 13.618,15.917 8.116,21.419 10.946,24.248 16.447,18.746 21.948,24.248z"></path><title>Remove link.</title></g><g  event="link:options"><circle r="11" transform="translate(25)"></circle><path fill="white" transform="scale(.55) translate(29, -16)" d="M31.229,17.736c0.064-0.571,0.104-1.148,0.104-1.736s-0.04-1.166-0.104-1.737l-4.377-1.557c-0.218-0.716-0.504-1.401-0.851-2.05l1.993-4.192c-0.725-0.91-1.549-1.734-2.458-2.459l-4.193,1.994c-0.647-0.347-1.334-0.632-2.049-0.849l-1.558-4.378C17.165,0.708,16.588,0.667,16,0.667s-1.166,0.041-1.737,0.105L12.707,5.15c-0.716,0.217-1.401,0.502-2.05,0.849L6.464,4.005C5.554,4.73,4.73,5.554,4.005,6.464l1.994,4.192c-0.347,0.648-0.632,1.334-0.849,2.05l-4.378,1.557C0.708,14.834,0.667,15.412,0.667,16s0.041,1.165,0.105,1.736l4.378,1.558c0.217,0.715,0.502,1.401,0.849,2.049l-1.994,4.193c0.725,0.909,1.549,1.733,2.459,2.458l4.192-1.993c0.648,0.347,1.334,0.633,2.05,0.851l1.557,4.377c0.571,0.064,1.148,0.104,1.737,0.104c0.588,0,1.165-0.04,1.736-0.104l1.558-4.377c0.715-0.218,1.399-0.504,2.049-0.851l4.193,1.993c0.909-0.725,1.733-1.549,2.458-2.458l-1.993-4.193c0.347-0.647,0.633-1.334,0.851-2.049L31.229,17.736zM16,20.871c-2.69,0-4.872-2.182-4.872-4.871c0-2.69,2.182-4.872,4.872-4.872c2.689,0,4.871,2.182,4.871,4.872C20.871,18.689,18.689,20.871,16,20.871z"></path><title>Link options.</title></g></g></g></g><!--z-index:65--><g   id="j_48" ><path  stroke="#444444" d="M 2489 1019 L 1439 1439" id="v-538" stroke-width="2" stroke-dasharray="8 8" fill="none" style="opacity: 1;"></path><path  fill="black" stroke="black" d="M 0 0 0 0" transform="matrix(-0.928476707906966,0.37139063379983406,-0.37139063379983406,-0.928476707906966,2489,1019)"></path><path  fill="#444444" stroke="#444444" d="M 20 0 L 0 10 L 20 20 z" id="v-540" transform="matrix(0.9284766089996245,-0.3713908810681253,0.3713908810681253,0.9284766089996245,1435.286115138385,1429.715275533185)" style="opacity: 1;"></path><path  d="M 2489 1019 L 1439 1439" id="v-539" fill="none" style="cursor: auto; pointer-events: visiblepainted;"></path><g ><g id="v-532"  label-idx="0" cursor="move" transform="matrix(1,0,0,1,1964,1229)" style="cursor: default; opacity: 1;"><rect joint-selector="rect" id="v-535" fill="#ffffff" rx="3" ry="3" pointer-events="none" width="55.32216262817383" height="33.16141128540039" transform="matrix(1,0,0,1,-27.7,-16.6)"></rect><text joint-selector="text" id="v-534" font-size="24px" xml:space="preserve" y="0.8em" fill="#444444" text-anchor="middle" pointer-events="none" font-family="Open Sans, Tahoma, Arial" font-weight="normal" transform="matrix(1,0,0,1,0,-10.3)"><tspan dy="0" >[use]</tspan></text></g><g id="v-533"  label-idx="1" cursor="move" transform="matrix(1,0,0,1,1954,1241)" style="cursor: default; opacity: 1;"><rect joint-selector="rect" id="v-537" fill="#ffffff" rx="3" ry="3"  width="0" height="0" transform="matrix(1,0,0,1,0,0)" display="none"></rect><text joint-selector="text" id="v-536" fill="#000000" font-size="14" text-anchor="middle" pointer-events="none"></text></g></g><g  display="none" style="display: none;"></g><g  id="v-542" display="none"><g  id="v-530"><path  end="source" d="M 26 0 L 0 13 L 26 26 z"></path></g><g  id="v-531"><path  end="target" d="M 26 0 L 0 13 L 26 26 z"></path></g></g><g  id="v-541" display="none"><g  id="v-529" transform="translate(2451.8609323645896, 1033.8556270541642) "><g  event="remove"><circle r="11"></circle><path transform="scale(.8) translate(-16, -16)" d="M24.778,21.419 19.276,15.917 24.777,10.415 21.949,7.585 16.447,13.087 10.945,7.585 8.117,10.415 13.618,15.917 8.116,21.419 10.946,24.248 16.447,18.746 21.948,24.248z"></path><title>Remove link.</title></g><g  event="link:options"><circle r="11" transform="translate(25)"></circle><path fill="white" transform="scale(.55) translate(29, -16)" d="M31.229,17.736c0.064-0.571,0.104-1.148,0.104-1.736s-0.04-1.166-0.104-1.737l-4.377-1.557c-0.218-0.716-0.504-1.401-0.851-2.05l1.993-4.192c-0.725-0.91-1.549-1.734-2.458-2.459l-4.193,1.994c-0.647-0.347-1.334-0.632-2.049-0.849l-1.558-4.378C17.165,0.708,16.588,0.667,16,0.667s-1.166,0.041-1.737,0.105L12.707,5.15c-0.716,0.217-1.401,0.502-2.05,0.849L6.464,4.005C5.554,4.73,4.73,5.554,4.005,6.464l1.994,4.192c-0.347,0.648-0.632,1.334-0.849,2.05l-4.378,1.557C0.708,14.834,0.667,15.412,0.667,16s0.041,1.165,0.105,1.736l4.378,1.558c0.217,0.715,0.502,1.401,0.849,2.049l-1.994,4.193c0.725,0.909,1.549,1.733,2.459,2.458l4.192-1.993c0.648,0.347,1.334,0.633,2.05,0.851l1.557,4.377c0.571,0.064,1.148,0.104,1.737,0.104c0.588,0,1.165-0.04,1.736-0.104l1.558-4.377c0.715-0.218,1.399-0.504,2.049-0.851l4.193,1.993c0.909-0.725,1.733-1.549,2.458-2.458l-1.993-4.193c0.347-0.647,0.633-1.334,0.851-2.049L31.229,17.736zM16,20.871c-2.69,0-4.872-2.182-4.872-4.871c0-2.69,2.182-4.872,4.872-4.872c2.689,0,4.871,2.182,4.871,4.872C20.871,18.689,18.689,20.871,16,20.871z"></path><title>Link options.</title></g></g></g></g><!--z-index:66--><g   id="j_49" ><path  stroke="#444444" d="M 2527 1079 L 2152 1379" id="v-552" stroke-width="2" stroke-dasharray="8 8" fill="none" style="opacity: 1;"></path><path  fill="black" stroke="black" d="M 0 0 0 0" transform="matrix(-0.7808688416748546,0.6246950072646418,-0.6246950072646418,-0.7808688416748546,2526.5,1079)"></path><path  fill="#444444" stroke="#444444" d="M 20 0 L 0 10 L 20 20 z" id="v-554" transform="matrix(0.7808686753084834,-0.624695215222571,0.624695215222571,0.7808686753084834,2145.2529548446896,1371.1913171569533)" style="opacity: 1;"></path><path  d="M 2527 1079 L 2152 1379" id="v-553" fill="none" style="cursor: auto; pointer-events: visiblepainted;"></path><g ><g id="v-546"  label-idx="0" cursor="move" transform="matrix(1,0,0,1,2339.5,1229)" style="cursor: default; opacity: 1;"><rect joint-selector="rect" id="v-549" fill="#ffffff" rx="3" ry="3" pointer-events="none" width="55.32216262817383" height="33.16141128540039" transform="matrix(1,0,0,1,-27.7,-16.6)"></rect><text joint-selector="text" id="v-548" font-size="24px" xml:space="preserve" y="0.8em" fill="#444444" text-anchor="middle" pointer-events="none" font-family="Open Sans, Tahoma, Arial" font-weight="normal" transform="matrix(1,0,0,1,0,-10.3)"><tspan dy="0" >[use]</tspan></text></g><g id="v-547"  label-idx="1" cursor="move" transform="matrix(1,0,0,1,2329.5,1241)" style="cursor: default; opacity: 1;"><rect joint-selector="rect" id="v-551" fill="#ffffff" rx="3" ry="3"  width="0" height="0" transform="matrix(1,0,0,1,0,0)" display="none"></rect><text joint-selector="text" id="v-550" fill="#000000" font-size="14" text-anchor="middle" pointer-events="none"></text></g></g><g  display="none" style="display: none;"></g><g  id="v-556" display="none"><g  id="v-544"><path  end="source" d="M 26 0 L 0 13 L 26 26 z"></path></g><g  id="v-545"><path  end="target" d="M 26 0 L 0 13 L 26 26 z"></path></g></g><g  id="v-555" display="none"><g  id="v-543" transform="translate(2495.765247622279, 1103.9878019021771) "><g  event="remove"><circle r="11"></circle><path transform="scale(.8) translate(-16, -16)" d="M24.778,21.419 19.276,15.917 24.777,10.415 21.949,7.585 16.447,13.087 10.945,7.585 8.117,10.415 13.618,15.917 8.116,21.419 10.946,24.248 16.447,18.746 21.948,24.248z"></path><title>Remove link.</title></g><g  event="link:options"><circle r="11" transform="translate(25)"></circle><path fill="white" transform="scale(.55) translate(29, -16)" d="M31.229,17.736c0.064-0.571,0.104-1.148,0.104-1.736s-0.04-1.166-0.104-1.737l-4.377-1.557c-0.218-0.716-0.504-1.401-0.851-2.05l1.993-4.192c-0.725-0.91-1.549-1.734-2.458-2.459l-4.193,1.994c-0.647-0.347-1.334-0.632-2.049-0.849l-1.558-4.378C17.165,0.708,16.588,0.667,16,0.667s-1.166,0.041-1.737,0.105L12.707,5.15c-0.716,0.217-1.401,0.502-2.05,0.849L6.464,4.005C5.554,4.73,4.73,5.554,4.005,6.464l1.994,4.192c-0.347,0.648-0.632,1.334-0.849,2.05l-4.378,1.557C0.708,14.834,0.667,15.412,0.667,16s0.041,1.165,0.105,1.736l4.378,1.558c0.217,0.715,0.502,1.401,0.849,2.049l-1.994,4.193c0.725,0.909,1.549,1.733,2.459,2.458l4.192-1.993c0.648,0.347,1.334,0.633,2.05,0.851l1.557,4.377c0.571,0.064,1.148,0.104,1.737,0.104c0.588,0,1.165-0.04,1.736-0.104l1.558-4.377c0.715-0.218,1.399-0.504,2.049-0.851l4.193,1.993c0.909-0.725,1.733-1.549,2.458-2.458l-1.993-4.193c0.347-0.647,0.633-1.334,0.851-2.049L31.229,17.736zM16,20.871c-2.69,0-4.872-2.182-4.872-4.871c0-2.69,2.182-4.872,4.872-4.872c2.689,0,4.871,2.182,4.871,4.872C20.871,18.689,18.689,20.871,16,20.871z"></path><title>Link options.</title></g></g></g></g><!--z-index:67--><g   id="j_50" ><path  stroke="#444444" d="M 2714 1079 L 2714 1379" id="v-566" stroke-width="2" stroke-dasharray="8 8" fill="none" style="opacity: 1;"></path><path  fill="black" stroke="black" d="M 0 0 0 0" transform="matrix(6.123233995736766e-17,1,-1,6.123233995736766e-17,2714,1079)"></path><path  fill="#444444" stroke="#444444" d="M 20 0 L 0 10 L 20 20 z" id="v-568" transform="matrix(-1.8369701987210297e-16,-1,1,-1.8369701987210297e-16,2704,1379)" style="opacity: 1;"></path><path  d="M 2714 1079 L 2714 1379" id="v-567" fill="none" style="cursor: auto; pointer-events: visiblepainted;"></path><g ><g id="v-560"  label-idx="0" cursor="move" transform="matrix(1,0,0,1,2714,1229)" style="cursor: default; opacity: 1;"><rect joint-selector="rect" id="v-563" fill="#ffffff" rx="3" ry="3" pointer-events="none" width="55.32216262817383" height="33.16141128540039" transform="matrix(1,0,0,1,-27.7,-16.6)"></rect><text joint-selector="text" id="v-562" font-size="24px" xml:space="preserve" y="0.8em" fill="#444444" text-anchor="middle" pointer-events="none" font-family="Open Sans, Tahoma, Arial" font-weight="normal" transform="matrix(1,0,0,1,0,-10.3)"><tspan dy="0" >[use]</tspan></text></g><g id="v-561"  label-idx="1" cursor="move" transform="matrix(1,0,0,1,2704,1241)" style="cursor: default; opacity: 1;"><rect joint-selector="rect" id="v-565" fill="#ffffff" rx="3" ry="3"  width="0" height="0" transform="matrix(1,0,0,1,0,0)" display="none"></rect><text joint-selector="text" id="v-564" fill="#000000" font-size="14" text-anchor="middle" pointer-events="none"></text></g></g><g  display="none" style="display: none;"></g><g  id="v-570" display="none"><g  id="v-558"><path  end="source" d="M 26 0 L 0 13 L 26 26 z"></path></g><g  id="v-559"><path  end="target" d="M 26 0 L 0 13 L 26 26 z"></path></g></g><g  id="v-569" display="none"><g  id="v-557" transform="translate(2714, 1119) "><g  event="remove"><circle r="11"></circle><path transform="scale(.8) translate(-16, -16)" d="M24.778,21.419 19.276,15.917 24.777,10.415 21.949,7.585 16.447,13.087 10.945,7.585 8.117,10.415 13.618,15.917 8.116,21.419 10.946,24.248 16.447,18.746 21.948,24.248z"></path><title>Remove link.</title></g><g  event="link:options"><circle r="11" transform="translate(25)"></circle><path fill="white" transform="scale(.55) translate(29, -16)" d="M31.229,17.736c0.064-0.571,0.104-1.148,0.104-1.736s-0.04-1.166-0.104-1.737l-4.377-1.557c-0.218-0.716-0.504-1.401-0.851-2.05l1.993-4.192c-0.725-0.91-1.549-1.734-2.458-2.459l-4.193,1.994c-0.647-0.347-1.334-0.632-2.049-0.849l-1.558-4.378C17.165,0.708,16.588,0.667,16,0.667s-1.166,0.041-1.737,0.105L12.707,5.15c-0.716,0.217-1.401,0.502-2.05,0.849L6.464,4.005C5.554,4.73,4.73,5.554,4.005,6.464l1.994,4.192c-0.347,0.648-0.632,1.334-0.849,2.05l-4.378,1.557C0.708,14.834,0.667,15.412,0.667,16s0.041,1.165,0.105,1.736l4.378,1.558c0.217,0.715,0.502,1.401,0.849,2.049l-1.994,4.193c0.725,0.909,1.549,1.733,2.459,2.458l4.192-1.993c0.648,0.347,1.334,0.633,2.05,0.851l1.557,4.377c0.571,0.064,1.148,0.104,1.737,0.104c0.588,0,1.165-0.04,1.736-0.104l1.558-4.377c0.715-0.218,1.399-0.504,2.049-0.851l4.193,1.993c0.909-0.725,1.733-1.549,2.458-2.458l-1.993-4.193c0.347-0.647,0.633-1.334,0.851-2.049L31.229,17.736zM16,20.871c-2.69,0-4.872-2.182-4.872-4.871c0-2.69,2.182-4.872,4.872-4.872c2.689,0,4.871,2.182,4.871,4.872C20.871,18.689,18.689,20.871,16,20.871z"></path><title>Link options.</title></g></g></g></g><!--z-index:68--><g   id="j_51" ><path  stroke="#444444" d="M 2902 1079 L 3277 1379" id="v-580" stroke-width="2" stroke-dasharray="8 8" fill="none" style="opacity: 1;"></path><path  fill="black" stroke="black" d="M 0 0 0 0" transform="matrix(0.7808688000832672,0.624695059254128,-0.624695059254128,0.7808688000832672,2901.5,1079)"></path><path  fill="#444444" stroke="#444444" d="M 20 0 L 0 10 L 20 20 z" id="v-582" transform="matrix(-0.7808688416748548,-0.6246950072646416,0.6246950072646416,-0.7808688416748548,3270.253144594102,1386.8086902472076)" style="opacity: 1;"></path><path  d="M 2902 1079 L 3277 1379" id="v-581" fill="none" style="cursor: auto; pointer-events: visiblepainted;"></path><g ><g id="v-574"  label-idx="0" cursor="move" transform="matrix(1,0,0,1,3089.5,1229)" style="cursor: default; opacity: 1;"><rect joint-selector="rect" id="v-577" fill="#ffffff" rx="3" ry="3" pointer-events="none" width="55.32216262817383" height="33.16141128540039" transform="matrix(1,0,0,1,-27.7,-16.6)"></rect><text joint-selector="text" id="v-576" font-size="24px" xml:space="preserve" y="0.8em" fill="#444444" text-anchor="middle" pointer-events="none" font-family="Open Sans, Tahoma, Arial" font-weight="normal" transform="matrix(1,0,0,1,0,-10.3)"><tspan dy="0" >[use]</tspan></text></g><g id="v-575"  label-idx="1" cursor="move" transform="matrix(1,0,0,1,3079.5,1241)" style="cursor: default; opacity: 1;"><rect joint-selector="rect" id="v-579" fill="#ffffff" rx="3" ry="3"  width="0" height="0" transform="matrix(1,0,0,1,0,0)" display="none"></rect><text joint-selector="text" id="v-578" fill="#000000" font-size="14" text-anchor="middle" pointer-events="none"></text></g></g><g  display="none" style="display: none;"></g><g  id="v-584" display="none"><g  id="v-572"><path  end="source" d="M 26 0 L 0 13 L 26 26 z"></path></g><g  id="v-573"><path  end="target" d="M 26 0 L 0 13 L 26 26 z"></path></g></g><g  id="v-583" display="none"><g  id="v-571" transform="translate(2933.234752377721, 1103.9878019021771) "><g  event="remove"><circle r="11"></circle><path transform="scale(.8) translate(-16, -16)" d="M24.778,21.419 19.276,15.917 24.777,10.415 21.949,7.585 16.447,13.087 10.945,7.585 8.117,10.415 13.618,15.917 8.116,21.419 10.946,24.248 16.447,18.746 21.948,24.248z"></path><title>Remove link.</title></g><g  event="link:options"><circle r="11" transform="translate(25)"></circle><path fill="white" transform="scale(.55) translate(29, -16)" d="M31.229,17.736c0.064-0.571,0.104-1.148,0.104-1.736s-0.04-1.166-0.104-1.737l-4.377-1.557c-0.218-0.716-0.504-1.401-0.851-2.05l1.993-4.192c-0.725-0.91-1.549-1.734-2.458-2.459l-4.193,1.994c-0.647-0.347-1.334-0.632-2.049-0.849l-1.558-4.378C17.165,0.708,16.588,0.667,16,0.667s-1.166,0.041-1.737,0.105L12.707,5.15c-0.716,0.217-1.401,0.502-2.05,0.849L6.464,4.005C5.554,4.73,4.73,5.554,4.005,6.464l1.994,4.192c-0.347,0.648-0.632,1.334-0.849,2.05l-4.378,1.557C0.708,14.834,0.667,15.412,0.667,16s0.041,1.165,0.105,1.736l4.378,1.558c0.217,0.715,0.502,1.401,0.849,2.049l-1.994,4.193c0.725,0.909,1.549,1.733,2.459,2.458l4.192-1.993c0.648,0.347,1.334,0.633,2.05,0.851l1.557,4.377c0.571,0.064,1.148,0.104,1.737,0.104c0.588,0,1.165-0.04,1.736-0.104l1.558-4.377c0.715-0.218,1.399-0.504,2.049-0.851l4.193,1.993c0.909-0.725,1.733-1.549,2.458-2.458l-1.993-4.193c0.347-0.647,0.633-1.334,0.851-2.049L31.229,17.736zM16,20.871c-2.69,0-4.872-2.182-4.872-4.871c0-2.69,2.182-4.872,4.872-4.872c2.689,0,4.871,2.182,4.871,4.872C20.871,18.689,18.689,20.871,16,20.871z"></path><title>Link options.</title></g></g></g></g><!--z-index:69--><g   id="j_52" ><path  stroke="#444444" d="M 2939 1019 L 3989 1439" id="v-594" stroke-width="2" stroke-dasharray="8 8" fill="none" style="opacity: 1;"></path><path  fill="black" stroke="black" d="M 0 0 0 0" transform="matrix(0.9284766955435519,0.371390664708372,-0.371390664708372,0.9284766955435519,2939,1019)"></path><path  fill="#444444" stroke="#444444" d="M 20 0 L 0 10 L 20 20 z" id="v-596" transform="matrix(-0.928476707906966,-0.3713906337998342,0.3713906337998342,-0.928476707906966,3985.286192772321,1448.284806229568)" style="opacity: 1;"></path><path  d="M 2939 1019 L 3989 1439" id="v-595" fill="none" style="cursor: auto; pointer-events: visiblepainted;"></path><g ><g id="v-588"  label-idx="0" cursor="move" transform="matrix(1,0,0,1,3464,1229)" style="cursor: default; opacity: 1;"><rect joint-selector="rect" id="v-591" fill="#ffffff" rx="3" ry="3" pointer-events="none" width="55.32216262817383" height="33.16141128540039" transform="matrix(1,0,0,1,-27.7,-16.6)"></rect><text joint-selector="text" id="v-590" font-size="24px" xml:space="preserve" y="0.8em" fill="#444444" text-anchor="middle" pointer-events="none" font-family="Open Sans, Tahoma, Arial" font-weight="normal" transform="matrix(1,0,0,1,0,-10.3)"><tspan dy="0" >[use]</tspan></text></g><g id="v-589"  label-idx="1" cursor="move" transform="matrix(1,0,0,1,3454,1241)" style="cursor: default; opacity: 1;"><rect joint-selector="rect" id="v-593" fill="#ffffff" rx="3" ry="3"  width="0" height="0" transform="matrix(1,0,0,1,0,0)" display="none"></rect><text joint-selector="text" id="v-592" fill="#000000" font-size="14" text-anchor="middle" pointer-events="none"></text></g></g><g  display="none" style="display: none;"></g><g  id="v-598" display="none"><g  id="v-586"><path  end="source" d="M 26 0 L 0 13 L 26 26 z"></path></g><g  id="v-587"><path  end="target" d="M 26 0 L 0 13 L 26 26 z"></path></g></g><g  id="v-597" display="none"><g  id="v-585" transform="translate(2976.1390676354104, 1033.8556270541642) "><g  event="remove"><circle r="11"></circle><path transform="scale(.8) translate(-16, -16)" d="M24.778,21.419 19.276,15.917 24.777,10.415 21.949,7.585 16.447,13.087 10.945,7.585 8.117,10.415 13.618,15.917 8.116,21.419 10.946,24.248 16.447,18.746 21.948,24.248z"></path><title>Remove link.</title></g><g  event="link:options"><circle r="11" transform="translate(25)"></circle><path fill="white" transform="scale(.55) translate(29, -16)" d="M31.229,17.736c0.064-0.571,0.104-1.148,0.104-1.736s-0.04-1.166-0.104-1.737l-4.377-1.557c-0.218-0.716-0.504-1.401-0.851-2.05l1.993-4.192c-0.725-0.91-1.549-1.734-2.458-2.459l-4.193,1.994c-0.647-0.347-1.334-0.632-2.049-0.849l-1.558-4.378C17.165,0.708,16.588,0.667,16,0.667s-1.166,0.041-1.737,0.105L12.707,5.15c-0.716,0.217-1.401,0.502-2.05,0.849L6.464,4.005C5.554,4.73,4.73,5.554,4.005,6.464l1.994,4.192c-0.347,0.648-0.632,1.334-0.849,2.05l-4.378,1.557C0.708,14.834,0.667,15.412,0.667,16s0.041,1.165,0.105,1.736l4.378,1.558c0.217,0.715,0.502,1.401,0.849,2.049l-1.994,4.193c0.725,0.909,1.549,1.733,2.459,2.458l4.192-1.993c0.648,0.347,1.334,0.633,2.05,0.851l1.557,4.377c0.571,0.064,1.148,0.104,1.737,0.104c0.588,0,1.165-0.04,1.736-0.104l1.558-4.377c0.715-0.218,1.399-0.504,2.049-0.851l4.193,1.993c0.909-0.725,1.733-1.549,2.458-2.458l-1.993-4.193c0.347-0.647,0.633-1.334,0.851-2.049L31.229,17.736zM16,20.871c-2.69,0-4.872-2.182-4.872-4.871c0-2.69,2.182-4.872,4.872-4.872c2.689,0,4.871,2.182,4.871,4.872C20.871,18.689,18.689,20.871,16,20.871z"></path><title>Link options.</title></g></g></g></g><!--z-index:70--><g   id="j_53" ><path  stroke="#444444" d="M 2939 983 L 4579 1377 C 4585.666666666666 1378.3333333333333 4592 1380.3333333333333 4598 1383 L 4739 1439" id="v-609" stroke-width="2" stroke-dasharray="8 8" fill="none" style="opacity: 1;"></path><path  fill="black" stroke="black" d="M 0 0 0 0" transform="matrix(0.9723873020607068,0.23337295214120202,-0.23337295214120202,0.9723873020607068,2939,983)"></path><path  fill="#444444" stroke="#444444" d="M 20 0 L 0 10 L 20 20 z" id="v-611" transform="matrix(-0.928476707906966,-0.3713906337998342,0.3713906337998342,-0.928476707906966,4735.286192772322,1448.284806229568)" style="opacity: 1;"></path><path  d="M 2939 983 L 4579 1377 C 4585.666666666666 1378.3333333333333 4592 1380.3333333333333 4598 1383 L 4739 1439" id="v-610" fill="none" style="cursor: auto; pointer-events: visiblepainted;"></path><g ><g id="v-603"  label-idx="0" cursor="move" transform="matrix(1,0,0,1,3842.46337890625,1200.0516357421875)" style="cursor: default; opacity: 1;"><rect joint-selector="rect" id="v-606" fill="#ffffff" rx="3" ry="3" pointer-events="none" width="55.32216262817383" height="33.16141128540039" transform="matrix(1,0,0,1,-27.7,-16.6)"></rect><text joint-selector="text" id="v-605" font-size="24px" xml:space="preserve" y="0.8em" fill="#444444" text-anchor="middle" pointer-events="none" font-family="Open Sans, Tahoma, Arial" font-weight="normal" transform="matrix(1,0,0,1,0,-10.3)"><tspan dy="0" >[use]</tspan></text></g><g id="v-604"  label-idx="1" cursor="move" transform="matrix(1,0,0,1,3832.46337890625,1212.0516357421875)" style="cursor: default; opacity: 1;"><rect joint-selector="rect" id="v-608" fill="#ffffff" rx="3" ry="3"  width="0" height="0" transform="matrix(1,0,0,1,0,0)" display="none"></rect><text joint-selector="text" id="v-607" fill="#000000" font-size="14" text-anchor="middle" pointer-events="none"></text></g></g><g  display="none" style="display: none;"><g  transform="translate(4589, 1379)" id="v-760"><circle  idx="0" r="10"></circle><path  idx="0" d="M16,5.333c-7.732,0-14,4.701-14,10.5c0,1.982,0.741,3.833,2.016,5.414L2,25.667l5.613-1.441c2.339,1.317,5.237,2.107,8.387,2.107c7.732,0,14-4.701,14-10.5C30,10.034,23.732,5.333,16,5.333z" transform="translate(5, -33)"></path><path  idx="0" transform="scale(.8) translate(9.5, -37)" d="M24.778,21.419 19.276,15.917 24.777,10.415 21.949,7.585 16.447,13.087 10.945,7.585 8.117,10.415 13.618,15.917 8.116,21.419 10.946,24.248 16.447,18.746 21.948,24.248z"><title>Remove vertex.</title></path></g></g><g  id="v-613" display="none"><g  id="v-601"><path  end="source" d="M 26 0 L 0 13 L 26 26 z"></path></g><g  id="v-602"><path  end="target" d="M 26 0 L 0 13 L 26 26 z"></path></g></g><g  id="v-612" display="none"><g  id="v-599" transform="translate(2977.893338356636, 992.3438873856795) "><g  event="remove"><circle r="11"></circle><path transform="scale(.8) translate(-16, -16)" d="M24.778,21.419 19.276,15.917 24.777,10.415 21.949,7.585 16.447,13.087 10.945,7.585 8.117,10.415 13.618,15.917 8.116,21.419 10.946,24.248 16.447,18.746 21.948,24.248z"></path><title>Remove link.</title></g><g  event="link:options"><circle r="11" transform="translate(25)"></circle><path fill="white" transform="scale(.55) translate(29, -16)" d="M31.229,17.736c0.064-0.571,0.104-1.148,0.104-1.736s-0.04-1.166-0.104-1.737l-4.377-1.557c-0.218-0.716-0.504-1.401-0.851-2.05l1.993-4.192c-0.725-0.91-1.549-1.734-2.458-2.459l-4.193,1.994c-0.647-0.347-1.334-0.632-2.049-0.849l-1.558-4.378C17.165,0.708,16.588,0.667,16,0.667s-1.166,0.041-1.737,0.105L12.707,5.15c-0.716,0.217-1.401,0.502-2.05,0.849L6.464,4.005C5.554,4.73,4.73,5.554,4.005,6.464l1.994,4.192c-0.347,0.648-0.632,1.334-0.849,2.05l-4.378,1.557C0.708,14.834,0.667,15.412,0.667,16s0.041,1.165,0.105,1.736l4.378,1.558c0.217,0.715,0.502,1.401,0.849,2.049l-1.994,4.193c0.725,0.909,1.549,1.733,2.459,2.458l4.192-1.993c0.648,0.347,1.334,0.633,2.05,0.851l1.557,4.377c0.571,0.064,1.148,0.104,1.737,0.104c0.588,0,1.165-0.04,1.736-0.104l1.558-4.377c0.715-0.218,1.399-0.504,2.049-0.851l4.193,1.993c0.909-0.725,1.733-1.549,2.458-2.458l-1.993-4.193c0.347-0.647,0.633-1.334,0.851-2.049L31.229,17.736zM16,20.871c-2.69,0-4.872-2.182-4.872-4.871c0-2.69,2.182-4.872,4.872-4.872c2.689,0,4.871,2.182,4.871,4.872C20.871,18.689,18.689,20.871,16,20.871z"></path><title>Link options.</title></g></g></g></g><!--z-index:71--><g   id="j_54" ><path  stroke="#444444" d="M 689 1619 L 830 1675 C 835.9999999999999 1677.6666666666665 842.3333333333333 1679.6666666666665 849 1681 L 2489 2075" id="v-627" stroke-width="2" stroke-dasharray="8 8" fill="none" style="opacity: 1;"></path><path  fill="black" stroke="black" d="M 0 0 0 0" transform="matrix(0.9284766955435519,0.371390664708372,-0.371390664708372,0.9284766955435519,689,1619)"></path><path  fill="#444444" stroke="#444444" d="M 20 0 L 0 10 L 20 20 z" id="v-629" transform="matrix(-0.9723873253673182,-0.23337285503029956,0.23337285503029956,-0.9723873253673182,2486.666267750245,2084.723861569601)" style="opacity: 1;"></path><path  d="M 689 1619 L 830 1675 C 835.9999999999999 1677.6666666666665 842.3333333333333 1679.6666666666665 849 1681 L 2489 2075" id="v-628" fill="none" style="cursor: auto; pointer-events: visiblepainted;"></path><g ><g id="v-621"  label-idx="0" cursor="move" transform="matrix(1,0,0,1,1585.5364990234375,1857.9483642578125)" style="cursor: default; opacity: 1;"><rect joint-selector="rect" id="v-624" fill="#ffffff" rx="3" ry="3" pointer-events="none" width="157.59642028808594" height="61.96141052246094" transform="matrix(1,0,0,1,-78.8,-31)"></rect><text joint-selector="text" id="v-623" font-size="24px" xml:space="preserve" y="0.8em" fill="#444444" text-anchor="middle" pointer-events="none" font-family="Open Sans, Tahoma, Arial" font-weight="normal" transform="matrix(1,0,0,1,0,-24.7)"><tspan dy="0" >[Read medical</tspan><tspan dy="1.2em" x="0" >record]</tspan></text></g><g id="v-622"  label-idx="1" cursor="move" transform="matrix(1,0,0,1,1575.5364990234375,1884.348388671875)" style="cursor: default; opacity: 1;"><rect joint-selector="rect" id="v-626" fill="#ffffff" rx="3" ry="3"  width="0" height="0" transform="matrix(1,0,0,1,0,0)" display="none"></rect><text joint-selector="text" id="v-625" fill="#000000" font-size="14" text-anchor="middle" pointer-events="none"></text></g></g><g  display="none" style="display: none;"><g  transform="translate(839, 1679)" id="v-761"><circle  idx="0" r="10"></circle><path  idx="0" d="M16,5.333c-7.732,0-14,4.701-14,10.5c0,1.982,0.741,3.833,2.016,5.414L2,25.667l5.613-1.441c2.339,1.317,5.237,2.107,8.387,2.107c7.732,0,14-4.701,14-10.5C30,10.034,23.732,5.333,16,5.333z" transform="translate(5, -33)"></path><path  idx="0" transform="scale(.8) translate(9.5, -37)" d="M24.778,21.419 19.276,15.917 24.777,10.415 21.949,7.585 16.447,13.087 10.945,7.585 8.117,10.415 13.618,15.917 8.116,21.419 10.946,24.248 16.447,18.746 21.948,24.248z"><title>Remove vertex.</title></path></g></g><g  id="v-631" display="none"><g  id="v-619"><path  end="source" d="M 26 0 L 0 13 L 26 26 z"></path></g><g  id="v-620"><path  end="target" d="M 26 0 L 0 13 L 26 26 z"></path></g></g><g  id="v-630" display="none"><g  id="v-617" transform="translate(726.1753225311058, 1633.7646671045527) "><g  event="remove"><circle r="11"></circle><path transform="scale(.8) translate(-16, -16)" d="M24.778,21.419 19.276,15.917 24.777,10.415 21.949,7.585 16.447,13.087 10.945,7.585 8.117,10.415 13.618,15.917 8.116,21.419 10.946,24.248 16.447,18.746 21.948,24.248z"></path><title>Remove link.</title></g><g  event="link:options"><circle r="11" transform="translate(25)"></circle><path fill="white" transform="scale(.55) translate(29, -16)" d="M31.229,17.736c0.064-0.571,0.104-1.148,0.104-1.736s-0.04-1.166-0.104-1.737l-4.377-1.557c-0.218-0.716-0.504-1.401-0.851-2.05l1.993-4.192c-0.725-0.91-1.549-1.734-2.458-2.459l-4.193,1.994c-0.647-0.347-1.334-0.632-2.049-0.849l-1.558-4.378C17.165,0.708,16.588,0.667,16,0.667s-1.166,0.041-1.737,0.105L12.707,5.15c-0.716,0.217-1.401,0.502-2.05,0.849L6.464,4.005C5.554,4.73,4.73,5.554,4.005,6.464l1.994,4.192c-0.347,0.648-0.632,1.334-0.849,2.05l-4.378,1.557C0.708,14.834,0.667,15.412,0.667,16s0.041,1.165,0.105,1.736l4.378,1.558c0.217,0.715,0.502,1.401,0.849,2.049l-1.994,4.193c0.725,0.909,1.549,1.733,2.459,2.458l4.192-1.993c0.648,0.347,1.334,0.633,2.05,0.851l1.557,4.377c0.571,0.064,1.148,0.104,1.737,0.104c0.588,0,1.165-0.04,1.736-0.104l1.558-4.377c0.715-0.218,1.399-0.504,2.049-0.851l4.193,1.993c0.909-0.725,1.733-1.549,2.458-2.458l-1.993-4.193c0.347-0.647,0.633-1.334,0.851-2.049L31.229,17.736zM16,20.871c-2.69,0-4.872-2.182-4.872-4.871c0-2.69,2.182-4.872,4.872-4.872c2.689,0,4.871,2.182,4.871,4.872C20.871,18.689,18.689,20.871,16,20.871z"></path><title>Link options.</title></g></g></g></g><!--z-index:72--><g   id="j_55" ><path  stroke="#444444" d="M 1439 1619 L 2489 2039" id="v-644" stroke-width="2" stroke-dasharray="8 8" fill="none" style="opacity: 1;"></path><path  fill="black" stroke="black" d="M 0 0 0 0" transform="matrix(0.9284766955435519,0.371390664708372,-0.371390664708372,0.9284766955435519,1439,1619)"></path><path  fill="#444444" stroke="#444444" d="M 20 0 L 0 10 L 20 20 z" id="v-646" transform="matrix(-0.928476707906966,-0.3713906337998342,0.3713906337998342,-0.928476707906966,2485.286192772321,2048.284806229568)" style="opacity: 1;"></path><path  d="M 1439 1619 L 2489 2039" id="v-645" fill="none" style="cursor: auto; pointer-events: visiblepainted;"></path><g ><g id="v-638"  label-idx="0" cursor="move" transform="matrix(1,0,0,1,1964,1829)" style="cursor: default; opacity: 1;"><rect joint-selector="rect" id="v-641" fill="#ffffff" rx="3" ry="3" pointer-events="none" width="146.2769012451172" height="61.96141052246094" transform="matrix(1,0,0,1,-73.1,-31)"></rect><text joint-selector="text" id="v-640" font-size="24px" xml:space="preserve" y="0.8em" fill="#444444" text-anchor="middle" pointer-events="none" font-family="Open Sans, Tahoma, Arial" font-weight="normal" transform="matrix(1,0,0,1,0,-24.7)"><tspan dy="0" >[Store</tspan><tspan dy="1.2em" x="0" >consultation]</tspan></text></g><g id="v-639"  label-idx="1" cursor="move" transform="matrix(1,0,0,1,1954,1855.4000244140625)" style="cursor: default; opacity: 1;"><rect joint-selector="rect" id="v-643" fill="#ffffff" rx="3" ry="3"  width="0" height="0" transform="matrix(1,0,0,1,0,0)" display="none"></rect><text joint-selector="text" id="v-642" fill="#000000" font-size="14" text-anchor="middle" pointer-events="none"></text></g></g><g  display="none" style="display: none;"></g><g  id="v-648" display="none"><g  id="v-636"><path  end="source" d="M 26 0 L 0 13 L 26 26 z"></path></g><g  id="v-637"><path  end="target" d="M 26 0 L 0 13 L 26 26 z"></path></g></g><g  id="v-647" display="none"><g  id="v-635" transform="translate(1476.1390676354104, 1633.855627054164) "><g  event="remove"><circle r="11"></circle><path transform="scale(.8) translate(-16, -16)" d="M24.778,21.419 19.276,15.917 24.777,10.415 21.949,7.585 16.447,13.087 10.945,7.585 8.117,10.415 13.618,15.917 8.116,21.419 10.946,24.248 16.447,18.746 21.948,24.248z"></path><title>Remove link.</title></g><g  event="link:options"><circle r="11" transform="translate(25)"></circle><path fill="white" transform="scale(.55) translate(29, -16)" d="M31.229,17.736c0.064-0.571,0.104-1.148,0.104-1.736s-0.04-1.166-0.104-1.737l-4.377-1.557c-0.218-0.716-0.504-1.401-0.851-2.05l1.993-4.192c-0.725-0.91-1.549-1.734-2.458-2.459l-4.193,1.994c-0.647-0.347-1.334-0.632-2.049-0.849l-1.558-4.378C17.165,0.708,16.588,0.667,16,0.667s-1.166,0.041-1.737,0.105L12.707,5.15c-0.716,0.217-1.401,0.502-2.05,0.849L6.464,4.005C5.554,4.73,4.73,5.554,4.005,6.464l1.994,4.192c-0.347,0.648-0.632,1.334-0.849,2.05l-4.378,1.557C0.708,14.834,0.667,15.412,0.667,16s0.041,1.165,0.105,1.736l4.378,1.558c0.217,0.715,0.502,1.401,0.849,2.049l-1.994,4.193c0.725,0.909,1.549,1.733,2.459,2.458l4.192-1.993c0.648,0.347,1.334,0.633,2.05,0.851l1.557,4.377c0.571,0.064,1.148,0.104,1.737,0.104c0.588,0,1.165-0.04,1.736-0.104l1.558-4.377c0.715-0.218,1.399-0.504,2.049-0.851l4.193,1.993c0.909-0.725,1.733-1.549,2.458-2.458l-1.993-4.193c0.347-0.647,0.633-1.334,0.851-2.049L31.229,17.736zM16,20.871c-2.69,0-4.872-2.182-4.872-4.871c0-2.69,2.182-4.872,4.872-4.872c2.689,0,4.871,2.182,4.871,4.872C20.871,18.689,18.689,20.871,16,20.871z"></path><title>Link options.</title></g></g></g></g><!--z-index:73--><g   id="j_56" ><path  stroke="#444444" d="M 2152 1679 L 2527 1979" id="v-661" stroke-width="2" stroke-dasharray="8 8" fill="none" style="opacity: 1;"></path><path  fill="black" stroke="black" d="M 0 0 0 0" transform="matrix(0.7808688000832672,0.624695059254128,-0.624695059254128,0.7808688000832672,2151.5,1679)"></path><path  fill="#444444" stroke="#444444" d="M 20 0 L 0 10 L 20 20 z" id="v-663" transform="matrix(-0.7808688416748548,-0.6246950072646416,0.6246950072646416,-0.7808688416748548,2520.253144594102,1986.8086902472076)" style="opacity: 1;"></path><path  d="M 2152 1679 L 2527 1979" id="v-662" fill="none" style="cursor: auto; pointer-events: visiblepainted;"></path><g ><g id="v-655"  label-idx="0" cursor="move" transform="matrix(1,0,0,1,2339.5,1829)" style="cursor: default; opacity: 1;"><rect joint-selector="rect" id="v-658" fill="#ffffff" rx="3" ry="3" pointer-events="none" width="186.41336059570312" height="33.16141128540039" transform="matrix(1,0,0,1,-93.2,-16.6)"></rect><text joint-selector="text" id="v-657" font-size="24px" xml:space="preserve" y="0.8em" fill="#444444" text-anchor="middle" pointer-events="none" font-family="Open Sans, Tahoma, Arial" font-weight="normal" transform="matrix(1,0,0,1,0,-10.3)"><tspan dy="0" >[Store diagnosis]</tspan></text></g><g id="v-656"  label-idx="1" cursor="move" transform="matrix(1,0,0,1,2329.5,1841)" style="cursor: default; opacity: 1;"><rect joint-selector="rect" id="v-660" fill="#ffffff" rx="3" ry="3"  width="0" height="0" transform="matrix(1,0,0,1,0,0)" display="none"></rect><text joint-selector="text" id="v-659" fill="#000000" font-size="14" text-anchor="middle" pointer-events="none"></text></g></g><g  display="none" style="display: none;"></g><g  id="v-665" display="none"><g  id="v-653"><path  end="source" d="M 26 0 L 0 13 L 26 26 z"></path></g><g  id="v-654"><path  end="target" d="M 26 0 L 0 13 L 26 26 z"></path></g></g><g  id="v-664" display="none"><g  id="v-652" transform="translate(2183.2347523777216, 1703.9878019021771) "><g  event="remove"><circle r="11"></circle><path transform="scale(.8) translate(-16, -16)" d="M24.778,21.419 19.276,15.917 24.777,10.415 21.949,7.585 16.447,13.087 10.945,7.585 8.117,10.415 13.618,15.917 8.116,21.419 10.946,24.248 16.447,18.746 21.948,24.248z"></path><title>Remove link.</title></g><g  event="link:options"><circle r="11" transform="translate(25)"></circle><path fill="white" transform="scale(.55) translate(29, -16)" d="M31.229,17.736c0.064-0.571,0.104-1.148,0.104-1.736s-0.04-1.166-0.104-1.737l-4.377-1.557c-0.218-0.716-0.504-1.401-0.851-2.05l1.993-4.192c-0.725-0.91-1.549-1.734-2.458-2.459l-4.193,1.994c-0.647-0.347-1.334-0.632-2.049-0.849l-1.558-4.378C17.165,0.708,16.588,0.667,16,0.667s-1.166,0.041-1.737,0.105L12.707,5.15c-0.716,0.217-1.401,0.502-2.05,0.849L6.464,4.005C5.554,4.73,4.73,5.554,4.005,6.464l1.994,4.192c-0.347,0.648-0.632,1.334-0.849,2.05l-4.378,1.557C0.708,14.834,0.667,15.412,0.667,16s0.041,1.165,0.105,1.736l4.378,1.558c0.217,0.715,0.502,1.401,0.849,2.049l-1.994,4.193c0.725,0.909,1.549,1.733,2.459,2.458l4.192-1.993c0.648,0.347,1.334,0.633,2.05,0.851l1.557,4.377c0.571,0.064,1.148,0.104,1.737,0.104c0.588,0,1.165-0.04,1.736-0.104l1.558-4.377c0.715-0.218,1.399-0.504,2.049-0.851l4.193,1.993c0.909-0.725,1.733-1.549,2.458-2.458l-1.993-4.193c0.347-0.647,0.633-1.334,0.851-2.049L31.229,17.736zM16,20.871c-2.69,0-4.872-2.182-4.872-4.871c0-2.69,2.182-4.872,4.872-4.872c2.689,0,4.871,2.182,4.871,4.872C20.871,18.689,18.689,20.871,16,20.871z"></path><title>Link options.</title></g></g></g></g><!--z-index:74--><g   id="j_57" ><path  stroke="#444444" d="M 2714 1679 L 2714 1979" id="v-678" stroke-width="2" stroke-dasharray="8 8" fill="none" style="opacity: 1;"></path><path  fill="black" stroke="black" d="M 0 0 0 0" transform="matrix(6.123233995736766e-17,1,-1,6.123233995736766e-17,2714,1679)"></path><path  fill="#444444" stroke="#444444" d="M 20 0 L 0 10 L 20 20 z" id="v-680" transform="matrix(-1.8369701987210297e-16,-1,1,-1.8369701987210297e-16,2704,1979)" style="opacity: 1;"></path><path  d="M 2714 1679 L 2714 1979" id="v-679" fill="none" style="cursor: auto; pointer-events: visiblepainted;"></path><g ><g id="v-672"  label-idx="0" cursor="move" transform="matrix(1,0,0,1,2714,1829)" style="cursor: default; opacity: 1;"><rect joint-selector="rect" id="v-675" fill="#ffffff" rx="3" ry="3" pointer-events="none" width="128.50047302246094" height="61.96141052246094" transform="matrix(1,0,0,1,-64.3,-31)"></rect><text joint-selector="text" id="v-674" font-size="24px" xml:space="preserve" y="0.8em" fill="#444444" text-anchor="middle" pointer-events="none" font-family="Open Sans, Tahoma, Arial" font-weight="normal" transform="matrix(1,0,0,1,0,-24.7)"><tspan dy="0" >[Store</tspan><tspan dy="1.2em" x="0" >anamnesis]</tspan></text></g><g id="v-673"  label-idx="1" cursor="move" transform="matrix(1,0,0,1,2704,1855.4000244140625)" style="cursor: default; opacity: 1;"><rect joint-selector="rect" id="v-677" fill="#ffffff" rx="3" ry="3"  width="0" height="0" transform="matrix(1,0,0,1,0,0)" display="none"></rect><text joint-selector="text" id="v-676" fill="#000000" font-size="14" text-anchor="middle" pointer-events="none"></text></g></g><g  display="none" style="display: none;"></g><g  id="v-682" display="none"><g  id="v-670"><path  end="source" d="M 26 0 L 0 13 L 26 26 z"></path></g><g  id="v-671"><path  end="target" d="M 26 0 L 0 13 L 26 26 z"></path></g></g><g  id="v-681" display="none"><g  id="v-669" transform="translate(2714, 1719) "><g  event="remove"><circle r="11"></circle><path transform="scale(.8) translate(-16, -16)" d="M24.778,21.419 19.276,15.917 24.777,10.415 21.949,7.585 16.447,13.087 10.945,7.585 8.117,10.415 13.618,15.917 8.116,21.419 10.946,24.248 16.447,18.746 21.948,24.248z"></path><title>Remove link.</title></g><g  event="link:options"><circle r="11" transform="translate(25)"></circle><path fill="white" transform="scale(.55) translate(29, -16)" d="M31.229,17.736c0.064-0.571,0.104-1.148,0.104-1.736s-0.04-1.166-0.104-1.737l-4.377-1.557c-0.218-0.716-0.504-1.401-0.851-2.05l1.993-4.192c-0.725-0.91-1.549-1.734-2.458-2.459l-4.193,1.994c-0.647-0.347-1.334-0.632-2.049-0.849l-1.558-4.378C17.165,0.708,16.588,0.667,16,0.667s-1.166,0.041-1.737,0.105L12.707,5.15c-0.716,0.217-1.401,0.502-2.05,0.849L6.464,4.005C5.554,4.73,4.73,5.554,4.005,6.464l1.994,4.192c-0.347,0.648-0.632,1.334-0.849,2.05l-4.378,1.557C0.708,14.834,0.667,15.412,0.667,16s0.041,1.165,0.105,1.736l4.378,1.558c0.217,0.715,0.502,1.401,0.849,2.049l-1.994,4.193c0.725,0.909,1.549,1.733,2.459,2.458l4.192-1.993c0.648,0.347,1.334,0.633,2.05,0.851l1.557,4.377c0.571,0.064,1.148,0.104,1.737,0.104c0.588,0,1.165-0.04,1.736-0.104l1.558-4.377c0.715-0.218,1.399-0.504,2.049-0.851l4.193,1.993c0.909-0.725,1.733-1.549,2.458-2.458l-1.993-4.193c0.347-0.647,0.633-1.334,0.851-2.049L31.229,17.736zM16,20.871c-2.69,0-4.872-2.182-4.872-4.871c0-2.69,2.182-4.872,4.872-4.872c2.689,0,4.871,2.182,4.871,4.872C20.871,18.689,18.689,20.871,16,20.871z"></path><title>Link options.</title></g></g></g></g><!--z-index:75--><g   id="j_58" ><path  stroke="#444444" d="M 3277 1679 L 2902 1979" id="v-695" stroke-width="2" stroke-dasharray="8 8" fill="none" style="opacity: 1;"></path><path  fill="black" stroke="black" d="M 0 0 0 0" transform="matrix(-0.7808688416748546,0.6246950072646418,-0.6246950072646418,-0.7808688416748546,3276.5,1679)"></path><path  fill="#444444" stroke="#444444" d="M 20 0 L 0 10 L 20 20 z" id="v-697" transform="matrix(0.7808686753084834,-0.624695215222571,0.624695215222571,0.7808686753084834,2895.2529548446896,1971.1913171569533)" style="opacity: 1;"></path><path  d="M 3277 1679 L 2902 1979" id="v-696" fill="none" style="cursor: auto; pointer-events: visiblepainted;"></path><g ><g id="v-689"  label-idx="0" cursor="move" transform="matrix(1,0,0,1,3089.5,1829)" style="cursor: default; opacity: 1;"><rect joint-selector="rect" id="v-692" fill="#ffffff" rx="3" ry="3" pointer-events="none" width="190.1201171875" height="33.16141128540039" transform="matrix(1,0,0,1,-95.1,-16.6)"></rect><text joint-selector="text" id="v-691" font-size="24px" xml:space="preserve" y="0.8em" fill="#444444" text-anchor="middle" pointer-events="none" font-family="Open Sans, Tahoma, Arial" font-weight="normal" transform="matrix(1,0,0,1,0,-10.3)"><tspan dy="0" >[Store vital signs]</tspan></text></g><g id="v-690"  label-idx="1" cursor="move" transform="matrix(1,0,0,1,3079.5,1841)" style="cursor: default; opacity: 1;"><rect joint-selector="rect" id="v-694" fill="#ffffff" rx="3" ry="3"  width="0" height="0" transform="matrix(1,0,0,1,0,0)" display="none"></rect><text joint-selector="text" id="v-693" fill="#000000" font-size="14" text-anchor="middle" pointer-events="none"></text></g></g><g  display="none" style="display: none;"></g><g  id="v-699" display="none"><g  id="v-687"><path  end="source" d="M 26 0 L 0 13 L 26 26 z"></path></g><g  id="v-688"><path  end="target" d="M 26 0 L 0 13 L 26 26 z"></path></g></g><g  id="v-698" display="none"><g  id="v-686" transform="translate(3245.765247622279, 1703.9878019021771) "><g  event="remove"><circle r="11"></circle><path transform="scale(.8) translate(-16, -16)" d="M24.778,21.419 19.276,15.917 24.777,10.415 21.949,7.585 16.447,13.087 10.945,7.585 8.117,10.415 13.618,15.917 8.116,21.419 10.946,24.248 16.447,18.746 21.948,24.248z"></path><title>Remove link.</title></g><g  event="link:options"><circle r="11" transform="translate(25)"></circle><path fill="white" transform="scale(.55) translate(29, -16)" d="M31.229,17.736c0.064-0.571,0.104-1.148,0.104-1.736s-0.04-1.166-0.104-1.737l-4.377-1.557c-0.218-0.716-0.504-1.401-0.851-2.05l1.993-4.192c-0.725-0.91-1.549-1.734-2.458-2.459l-4.193,1.994c-0.647-0.347-1.334-0.632-2.049-0.849l-1.558-4.378C17.165,0.708,16.588,0.667,16,0.667s-1.166,0.041-1.737,0.105L12.707,5.15c-0.716,0.217-1.401,0.502-2.05,0.849L6.464,4.005C5.554,4.73,4.73,5.554,4.005,6.464l1.994,4.192c-0.347,0.648-0.632,1.334-0.849,2.05l-4.378,1.557C0.708,14.834,0.667,15.412,0.667,16s0.041,1.165,0.105,1.736l4.378,1.558c0.217,0.715,0.502,1.401,0.849,2.049l-1.994,4.193c0.725,0.909,1.549,1.733,2.459,2.458l4.192-1.993c0.648,0.347,1.334,0.633,2.05,0.851l1.557,4.377c0.571,0.064,1.148,0.104,1.737,0.104c0.588,0,1.165-0.04,1.736-0.104l1.558-4.377c0.715-0.218,1.399-0.504,2.049-0.851l4.193,1.993c0.909-0.725,1.733-1.549,2.458-2.458l-1.993-4.193c0.347-0.647,0.633-1.334,0.851-2.049L31.229,17.736zM16,20.871c-2.69,0-4.872-2.182-4.872-4.871c0-2.69,2.182-4.872,4.872-4.872c2.689,0,4.871,2.182,4.871,4.872C20.871,18.689,18.689,20.871,16,20.871z"></path><title>Link options.</title></g></g></g></g><!--z-index:76--><g   id="j_59" ><path  stroke="#444444" d="M 3989 1619 L 2939 2039" id="v-712" stroke-width="2" stroke-dasharray="8 8" fill="none" style="opacity: 1;"></path><path  fill="black" stroke="black" d="M 0 0 0 0" transform="matrix(-0.928476707906966,0.37139063379983406,-0.37139063379983406,-0.928476707906966,3989,1619)"></path><path  fill="#444444" stroke="#444444" d="M 20 0 L 0 10 L 20 20 z" id="v-714" transform="matrix(0.9284766089996245,-0.3713908810681253,0.3713908810681253,0.9284766089996245,2935.2859930680725,2029.715275533185)" style="opacity: 1;"></path><path  d="M 3989 1619 L 2939 2039" id="v-713" fill="none" style="cursor: auto; pointer-events: visiblepainted;"></path><g ><g id="v-706"  label-idx="0" cursor="move" transform="matrix(1,0,0,1,3464,1829)" style="cursor: default; opacity: 1;"><rect joint-selector="rect" id="v-709" fill="#ffffff" rx="3" ry="3" pointer-events="none" width="193.9065704345703" height="33.16141128540039" transform="matrix(1,0,0,1,-97,-16.6)"></rect><text joint-selector="text" id="v-708" font-size="24px" xml:space="preserve" y="0.8em" fill="#444444" text-anchor="middle" pointer-events="none" font-family="Open Sans, Tahoma, Arial" font-weight="normal" transform="matrix(1,0,0,1,0,-10.3)"><tspan dy="0" >[Store treatment]</tspan></text></g><g id="v-707"  label-idx="1" cursor="move" transform="matrix(1,0,0,1,3454,1841)" style="cursor: default; opacity: 1;"><rect joint-selector="rect" id="v-711" fill="#ffffff" rx="3" ry="3"  width="0" height="0" transform="matrix(1,0,0,1,0,0)" display="none"></rect><text joint-selector="text" id="v-710" fill="#000000" font-size="14" text-anchor="middle" pointer-events="none"></text></g></g><g  display="none" style="display: none;"></g><g  id="v-716" display="none"><g  id="v-704"><path  end="source" d="M 26 0 L 0 13 L 26 26 z"></path></g><g  id="v-705"><path  end="target" d="M 26 0 L 0 13 L 26 26 z"></path></g></g><g  id="v-715" display="none"><g  id="v-703" transform="translate(3951.8609323645896, 1633.855627054164) "><g  event="remove"><circle r="11"></circle><path transform="scale(.8) translate(-16, -16)" d="M24.778,21.419 19.276,15.917 24.777,10.415 21.949,7.585 16.447,13.087 10.945,7.585 8.117,10.415 13.618,15.917 8.116,21.419 10.946,24.248 16.447,18.746 21.948,24.248z"></path><title>Remove link.</title></g><g  event="link:options"><circle r="11" transform="translate(25)"></circle><path fill="white" transform="scale(.55) translate(29, -16)" d="M31.229,17.736c0.064-0.571,0.104-1.148,0.104-1.736s-0.04-1.166-0.104-1.737l-4.377-1.557c-0.218-0.716-0.504-1.401-0.851-2.05l1.993-4.192c-0.725-0.91-1.549-1.734-2.458-2.459l-4.193,1.994c-0.647-0.347-1.334-0.632-2.049-0.849l-1.558-4.378C17.165,0.708,16.588,0.667,16,0.667s-1.166,0.041-1.737,0.105L12.707,5.15c-0.716,0.217-1.401,0.502-2.05,0.849L6.464,4.005C5.554,4.73,4.73,5.554,4.005,6.464l1.994,4.192c-0.347,0.648-0.632,1.334-0.849,2.05l-4.378,1.557C0.708,14.834,0.667,15.412,0.667,16s0.041,1.165,0.105,1.736l4.378,1.558c0.217,0.715,0.502,1.401,0.849,2.049l-1.994,4.193c0.725,0.909,1.549,1.733,2.459,2.458l4.192-1.993c0.648,0.347,1.334,0.633,2.05,0.851l1.557,4.377c0.571,0.064,1.148,0.104,1.737,0.104c0.588,0,1.165-0.04,1.736-0.104l1.558-4.377c0.715-0.218,1.399-0.504,2.049-0.851l4.193,1.993c0.909-0.725,1.733-1.549,2.458-2.458l-1.993-4.193c0.347-0.647,0.633-1.334,0.851-2.049L31.229,17.736zM16,20.871c-2.69,0-4.872-2.182-4.872-4.871c0-2.69,2.182-4.872,4.872-4.872c2.689,0,4.871,2.182,4.871,4.872C20.871,18.689,18.689,20.871,16,20.871z"></path><title>Link options.</title></g></g></g></g><!--z-index:77--><g   id="j_60" ><path  stroke="#444444" d="M 4739 1619 L 4598 1675 C 4592 1677.6666666666665 4585.666666666666 1679.6666666666665 4579 1681 L 2939 2075" id="v-730" stroke-width="2" stroke-dasharray="8 8" fill="none" style="opacity: 1;"></path><path  fill="black" stroke="black" d="M 0 0 0 0" transform="matrix(-0.928476707906966,0.37139063379983406,-0.37139063379983406,-0.928476707906966,4739,1619)"></path><path  fill="#444444" stroke="#444444" d="M 20 0 L 0 10 L 20 20 z" id="v-732" transform="matrix(0.9723873253673181,-0.23337285503029992,0.23337285503029992,0.9723873253673181,2936.666275149149,2065.276115062255)" style="opacity: 1;"></path><path  d="M 4739 1619 L 4598 1675 C 4592 1677.6666666666665 4585.666666666666 1679.6666666666665 4579 1681 L 2939 2075" id="v-731" fill="none" style="cursor: auto; pointer-events: visiblepainted;"></path><g ><g id="v-724"  label-idx="0" cursor="move" transform="matrix(1,0,0,1,3842.46337890625,1857.9483642578125)" style="cursor: default; opacity: 1;"><rect joint-selector="rect" id="v-727" fill="#ffffff" rx="3" ry="3" pointer-events="none" width="154.40782165527344" height="61.96141052246094" transform="matrix(1,0,0,1,-77.2,-31)"></rect><text joint-selector="text" id="v-726" font-size="24px" xml:space="preserve" y="0.8em" fill="#444444" text-anchor="middle" pointer-events="none" font-family="Open Sans, Tahoma, Arial" font-weight="normal" transform="matrix(1,0,0,1,0,-24.7)"><tspan dy="0" >[Manage</tspan><tspan dy="1.2em" x="0" >prescriptions]</tspan></text></g><g id="v-725"  label-idx="1" cursor="move" transform="matrix(1,0,0,1,3832.46337890625,1884.348388671875)" style="cursor: default; opacity: 1;"><rect joint-selector="rect" id="v-729" fill="#ffffff" rx="3" ry="3"  width="0" height="0" transform="matrix(1,0,0,1,0,0)" display="none"></rect><text joint-selector="text" id="v-728" fill="#000000" font-size="14" text-anchor="middle" pointer-events="none"></text></g></g><g  display="none" style="display: none;"><g  transform="translate(4589, 1679)" id="v-762"><circle  idx="0" r="10"></circle><path  idx="0" d="M16,5.333c-7.732,0-14,4.701-14,10.5c0,1.982,0.741,3.833,2.016,5.414L2,25.667l5.613-1.441c2.339,1.317,5.237,2.107,8.387,2.107c7.732,0,14-4.701,14-10.5C30,10.034,23.732,5.333,16,5.333z" transform="translate(5, -33)"></path><path  idx="0" transform="scale(.8) translate(9.5, -37)" d="M24.778,21.419 19.276,15.917 24.777,10.415 21.949,7.585 16.447,13.087 10.945,7.585 8.117,10.415 13.618,15.917 8.116,21.419 10.946,24.248 16.447,18.746 21.948,24.248z"><title>Remove vertex.</title></path></g></g><g  id="v-734" display="none"><g  id="v-722"><path  end="source" d="M 26 0 L 0 13 L 26 26 z"></path></g><g  id="v-723"><path  end="target" d="M 26 0 L 0 13 L 26 26 z"></path></g></g><g  id="v-733" display="none"><g  id="v-720" transform="translate(4701.824677468894, 1633.7646671045527) "><g  event="remove"><circle r="11"></circle><path transform="scale(.8) translate(-16, -16)" d="M24.778,21.419 19.276,15.917 24.777,10.415 21.949,7.585 16.447,13.087 10.945,7.585 8.117,10.415 13.618,15.917 8.116,21.419 10.946,24.248 16.447,18.746 21.948,24.248z"></path><title>Remove link.</title></g><g  event="link:options"><circle r="11" transform="translate(25)"></circle><path fill="white" transform="scale(.55) translate(29, -16)" d="M31.229,17.736c0.064-0.571,0.104-1.148,0.104-1.736s-0.04-1.166-0.104-1.737l-4.377-1.557c-0.218-0.716-0.504-1.401-0.851-2.05l1.993-4.192c-0.725-0.91-1.549-1.734-2.458-2.459l-4.193,1.994c-0.647-0.347-1.334-0.632-2.049-0.849l-1.558-4.378C17.165,0.708,16.588,0.667,16,0.667s-1.166,0.041-1.737,0.105L12.707,5.15c-0.716,0.217-1.401,0.502-2.05,0.849L6.464,4.005C5.554,4.73,4.73,5.554,4.005,6.464l1.994,4.192c-0.347,0.648-0.632,1.334-0.849,2.05l-4.378,1.557C0.708,14.834,0.667,15.412,0.667,16s0.041,1.165,0.105,1.736l4.378,1.558c0.217,0.715,0.502,1.401,0.849,2.049l-1.994,4.193c0.725,0.909,1.549,1.733,2.459,2.458l4.192-1.993c0.648,0.347,1.334,0.633,2.05,0.851l1.557,4.377c0.571,0.064,1.148,0.104,1.737,0.104c0.588,0,1.165-0.04,1.736-0.104l1.558-4.377c0.715-0.218,1.399-0.504,2.049-0.851l4.193,1.993c0.909-0.725,1.733-1.549,2.458-2.458l-1.993-4.193c0.347-0.647,0.633-1.334,0.851-2.049L31.229,17.736zM16,20.871c-2.69,0-4.872-2.182-4.872-4.871c0-2.69,2.182-4.872,4.872-4.872c2.689,0,4.871,2.182,4.871,4.872C20.871,18.689,18.689,20.871,16,20.871z"></path><title>Link options.</title></g></g></g></g><!--z-index:78--><g   id="j_61" ><path  stroke="#444444" d="M 2714 2279 L 2714 2579" id="v-744" stroke-width="2" stroke-dasharray="8 8" fill="none" style="opacity: 1;"></path><path  fill="black" stroke="black" d="M 0 0 0 0" transform="matrix(6.123233995736766e-17,1,-1,6.123233995736766e-17,2714,2279)"></path><path  fill="#444444" stroke="#444444" d="M 20 0 L 0 10 L 20 20 z" id="v-746" transform="matrix(-1.8369701987210297e-16,-1,1,-1.8369701987210297e-16,2704,2579)" style="opacity: 1;"></path><path  d="M 2714 2279 L 2714 2579" id="v-745" fill="none" style="cursor: auto; pointer-events: visiblepainted;"></path><g ><g id="v-738"  label-idx="0" cursor="move" transform="matrix(1,0,0,1,2714,2429)" style="cursor: default; opacity: 1;"><rect joint-selector="rect" id="v-741" fill="#ffffff" rx="3" ry="3" pointer-events="none" width="73.37759399414062" height="33.16141128540039" transform="matrix(1,0,0,1,-36.7,-16.6)"></rect><text joint-selector="text" id="v-740" font-size="24px" xml:space="preserve" y="0.8em" fill="#444444" text-anchor="middle" pointer-events="none" font-family="Open Sans, Tahoma, Arial" font-weight="normal" transform="matrix(1,0,0,1,0,-10.3)"><tspan dy="0" >[store]</tspan></text></g><g id="v-739"  label-idx="1" cursor="move" transform="matrix(1,0,0,1,2704,2441)" style="cursor: default; opacity: 1;"><rect joint-selector="rect" id="v-743" fill="#ffffff" rx="3" ry="3"  width="0" height="0" transform="matrix(1,0,0,1,0,0)" display="none"></rect><text joint-selector="text" id="v-742" fill="#000000" font-size="14" text-anchor="middle" pointer-events="none"></text></g></g><g  display="none" style="display: none;"></g><g  id="v-748" display="none"><g  id="v-736"><path  end="source" d="M 26 0 L 0 13 L 26 26 z"></path></g><g  id="v-737"><path  end="target" d="M 26 0 L 0 13 L 26 26 z"></path></g></g><g  id="v-747" display="none"><g  id="v-735" transform="translate(2714, 2319) "><g  event="remove"><circle r="11"></circle><path transform="scale(.8) translate(-16, -16)" d="M24.778,21.419 19.276,15.917 24.777,10.415 21.949,7.585 16.447,13.087 10.945,7.585 8.117,10.415 13.618,15.917 8.116,21.419 10.946,24.248 16.447,18.746 21.948,24.248z"></path><title>Remove link.</title></g><g  event="link:options"><circle r="11" transform="translate(25)"></circle><path fill="white" transform="scale(.55) translate(29, -16)" d="M31.229,17.736c0.064-0.571,0.104-1.148,0.104-1.736s-0.04-1.166-0.104-1.737l-4.377-1.557c-0.218-0.716-0.504-1.401-0.851-2.05l1.993-4.192c-0.725-0.91-1.549-1.734-2.458-2.459l-4.193,1.994c-0.647-0.347-1.334-0.632-2.049-0.849l-1.558-4.378C17.165,0.708,16.588,0.667,16,0.667s-1.166,0.041-1.737,0.105L12.707,5.15c-0.716,0.217-1.401,0.502-2.05,0.849L6.464,4.005C5.554,4.73,4.73,5.554,4.005,6.464l1.994,4.192c-0.347,0.648-0.632,1.334-0.849,2.05l-4.378,1.557C0.708,14.834,0.667,15.412,0.667,16s0.041,1.165,0.105,1.736l4.378,1.558c0.217,0.715,0.502,1.401,0.849,2.049l-1.994,4.193c0.725,0.909,1.549,1.733,2.459,2.458l4.192-1.993c0.648,0.347,1.334,0.633,2.05,0.851l1.557,4.377c0.571,0.064,1.148,0.104,1.737,0.104c0.588,0,1.165-0.04,1.736-0.104l1.558-4.377c0.715-0.218,1.399-0.504,2.049-0.851l4.193,1.993c0.909-0.725,1.733-1.549,2.458-2.458l-1.993-4.193c0.347-0.647,0.633-1.334,0.851-2.049L31.229,17.736zM16,20.871c-2.69,0-4.872-2.182-4.872-4.871c0-2.69,2.182-4.872,4.872-4.872c2.689,0,4.871,2.182,4.871,4.872C20.871,18.689,18.689,20.871,16,20.871z"></path><title>Link options.</title></g></g></g></g><!--z-index:79--></g><g ></g><g ></g><g ></g></g></svg>